<svg xmlns="http://www.w3.org/2000/svg" xmlns:xlink="http://www.w3.org/1999/xlink" viewBox="0 0 506.08 514.49"><defs><style>.cls-1{fill:none;}.cls-2{font-size:19.49px;font-family:Helvetica-Bold, Helvetica;font-weight:700;}.cls-3{font-size:15.16px;}.cls-3,.cls-8{font-family:Helvetica, Helvetica;}.cls-4{fill:#818181;}.cls-5{fill:#131545;}.cls-6{clip-path:url(#clip-path);}.cls-7{fill:#010101;}.cls-8{font-size:12.27px;}</style><clipPath id="clip-path"><rect class="cls-1" x="72.5" y="92.96" width="434.9" height="342.09"/></clipPath></defs><title>chart-4_1</title><g id="Layer_2" data-name="Layer 2"><g id="Layer_1-2" data-name="Layer 1"><text class="cls-2" transform="translate(0 16.76)">IRAN:CAPITAL INVESTMENT IN TRAVEL &amp; TOURISM</text><text class="cls-3" transform="translate(0.25 66.66)">CONSTANT <tspan x="87.23" y="0">2016</tspan><tspan x="120.89" y="0" xml:space="preserve"> IRRBN</tspan></text><path class="cls-4" d="M72.37,92.82H506.08v.4H72.37Zm0,68.16H506.08v.4H72.37Zm0,68.15H506.08v.4H72.37Zm0,68.15H506.08v.4H72.37Zm0,68.15H506.08v.4H72.37Z"/><rect class="cls-5" x="80.68" y="294.25" width="16.74" height="139.47"/><g class="cls-6"><path class="cls-5" d="M81.6,433.73l-.92-.79H97.42l-.79.79V294.26l.79.92H80.68l.92-.92m-1.71,0a.85.85,0,0,1,.79-.79H97.42a.88.88,0,0,1,.92.79V433.73a.9.9,0,0,1-.92.92H80.68a.88.88,0,0,1-.79-.92Z"/></g><rect class="cls-5" x="114.03" y="274.09" width="16.74" height="159.64"/><g class="cls-6"><path class="cls-5" d="M115,433.73l-.92-.79h16.74l-.79.79V274.09l.79.92H114l.92-.92m-1.71,0a.85.85,0,0,1,.79-.79h16.74a.88.88,0,0,1,.92.79V433.73a.9.9,0,0,1-.92.92H114a.88.88,0,0,1-.79-.92Z"/></g><rect class="cls-5" x="147.38" y="273.82" width="16.74" height="159.91"/><g class="cls-6"><path class="cls-5" d="M148.3,433.73l-.92-.79h16.74l-.79.79V273.82l.79.92H147.38l.92-.92m-1.71,0a.85.85,0,0,1,.79-.79h16.74a.88.88,0,0,1,.92.79V433.73a.9.9,0,0,1-.92.92H147.38a.88.88,0,0,1-.79-.92Z"/></g><rect class="cls-5" x="180.87" y="301.24" width="16.61" height="132.49"/><g class="cls-6"><path class="cls-5" d="M181.79,433.73l-.92-.79h16.61l-.79.79V301.24l.79.92H180.87l.92-.92m-1.71,0a.85.85,0,0,1,.79-.79h16.61a.88.88,0,0,1,.92.79V433.73a.9.9,0,0,1-.92.92H180.87a.88.88,0,0,1-.79-.92Z"/></g><rect class="cls-5" x="214.22" y="314.69" width="16.61" height="119.04"/><g class="cls-6"><path class="cls-5" d="M215.14,433.73l-.92-.79h16.61l-.79.79v-119l.79.92H214.22l.92-.92m-1.71,0a.85.85,0,0,1,.79-.79h16.61a.88.88,0,0,1,.92.79v119a.9.9,0,0,1-.92.92H214.22a.88.88,0,0,1-.79-.92Z"/></g><rect class="cls-5" x="247.57" y="308.49" width="16.61" height="125.24"/><g class="cls-6"><path class="cls-5" d="M248.49,433.73l-.92-.79h16.61l-.79.79V308.49l.79.92H247.57l.92-.92m-1.71,0a.85.85,0,0,1,.79-.79h16.61a.88.88,0,0,1,.92.79V433.73a.9.9,0,0,1-.92.92H247.57a.88.88,0,0,1-.79-.92Z"/></g><rect class="cls-5" x="280.92" y="308.89" width="16.61" height="124.84"/><g class="cls-6"><path class="cls-5" d="M281.85,433.73l-.92-.79h16.61l-.79.79V308.89l.79.92H280.92l.92-.92m-1.71,0a.85.85,0,0,1,.79-.79h16.61a.88.88,0,0,1,.92.79V433.73a.9.9,0,0,1-.92.92H280.92a.88.88,0,0,1-.79-.92Z"/></g><rect class="cls-5" x="314.28" y="300.98" width="16.61" height="132.75"/><g class="cls-6"><path class="cls-5" d="M315.2,433.73l-.92-.79h16.61l-.79.79V301l.79.92H314.28l.92-.92m-1.71,0a.85.85,0,0,1,.79-.79h16.61a.88.88,0,0,1,.92.79V433.73a.9.9,0,0,1-.92.92H314.28a.88.88,0,0,1-.79-.92Z"/></g><rect class="cls-5" x="347.63" y="295.84" width="16.61" height="137.89"/><path class="cls-5" d="M348.55,433.73l-.92-.79h16.61l-.79.79V295.84l.79.92H347.63l.92-.92m-1.71,0a.85.85,0,0,1,.79-.79h16.61a.88.88,0,0,1,.92.79V433.73a.9.9,0,0,1-.92.92H347.63a.88.88,0,0,1-.79-.92Z"/><rect class="cls-5" x="380.98" y="287.4" width="16.61" height="146.33"/><path class="cls-5" d="M381.9,433.73l-.92-.79h16.61l-.79.79V287.4l.79.92H381l.92-.92m-1.71,0a.85.85,0,0,1,.79-.79h16.61a.88.88,0,0,1,.92.79V433.73a.9.9,0,0,1-.92.92H381a.88.88,0,0,1-.79-.92Z"/><rect class="cls-5" x="414.33" y="278.3" width="16.61" height="155.43"/><path class="cls-5" d="M415.26,433.73l-.92-.79h16.61l-.79.79V278.3l.79.92H414.33l.92-.92m-1.71,0a.85.85,0,0,1,.79-.79h16.61a.88.88,0,0,1,.92.79V433.73a.9.9,0,0,1-.92.92H414.33a.88.88,0,0,1-.79-.92Z"/><rect class="cls-5" x="481.04" y="172.84" width="16.74" height="260.89"/><path class="cls-5" d="M482,433.73l-.92-.79h16.74l-.79.79V172.84l.79.92H481l.92-.92m-1.71,0a.85.85,0,0,1,.79-.79h16.74a.88.88,0,0,1,.92.79V433.73a.9.9,0,0,1-.92.92H481a.88.88,0,0,1-.79-.92Z"/><rect class="cls-7" x="72.37" y="432.94" width="433.71" height="1.71"/><text class="cls-3" transform="translate(52.95 437.68)">0</text><text class="cls-3" transform="translate(0.25 369.52)">50,000</text><text class="cls-3" transform="translate(0.25 301.36)">100,000</text><text class="cls-3" transform="translate(0.25 233.2)">150,000</text><text class="cls-3" transform="translate(0.25 165.04)">200,000</text><text class="cls-3" transform="translate(0.25 96.87)">250,000</text><text class="cls-3" transform="translate(93.86 479.73) rotate(-90)">2007</text><text class="cls-3" transform="translate(127.21 479.73) rotate(-90)">2008</text><text class="cls-3" transform="translate(160.56 479.73) rotate(-90)">2009</text><text class="cls-3" transform="translate(193.92 479.73) rotate(-90)">2010</text><text class="cls-3" transform="translate(227.27 479.73) rotate(-90)">2011</text><text class="cls-3" transform="translate(260.62 479.73) rotate(-90)">2012</text><text class="cls-3" transform="translate(293.97 479.73) rotate(-90)">2013</text><text class="cls-3" transform="translate(327.32 479.72) rotate(-90)">2014</text><text class="cls-3" transform="translate(360.67 479.73) rotate(-90)">2015</text><text class="cls-3" transform="translate(394.02 479.73) rotate(-90)">2016</text><text class="cls-3" transform="translate(427.37 479.73) rotate(-90)">2017</text><text class="cls-3" transform="translate(494.08 479.73) rotate(-90)">2027</text><text class="cls-8" transform="translate(0 508.59)">Source: WTTC</text></g></g></svg>
