<svg xmlns="http://www.w3.org/2000/svg" width="163.96mm" height="35.99mm" viewBox="0 0 464.77 102.02"><title>semega logo</title><g id="f19169f0-6e03-4fea-8263-e07c91fb837a" data-name="Layer 1"><path d="M428.94,12.35l-8-8a11.38,11.38,0,0,0-16.05,0l-8,8L412.89,28.4Z" fill="#4eabd8"/><path d="M397.09,66.94a22.52,22.52,0,1,1,31.85,0,22.52,22.52,0,0,1-31.85,0" fill="#4eabd8"/><path d="M451.62,34.93V23.58a11.38,11.38,0,0,0-11.35-11.35H428.92V34.93Z" fill="#d1b643"/><path d="M451.69,66.93l8-8a11.39,11.39,0,0,0,0-16.05l-8-8L435.63,50.88Z" fill="#4eabd8"/><path d="M429.1,89.62h11.36a11.39,11.39,0,0,0,11.35-11.36V66.91H429.1Z" fill="#d1b643"/><path d="M397.1,89.68l8,8a11.4,11.4,0,0,0,16.06,0l8-8L413.16,73.62Z" fill="#4eabd8"/><path d="M374.42,67.09V78.45A11.38,11.38,0,0,0,385.77,89.8h11.35V67.09Z" fill="#d1b643"/><path d="M374.35,35.09l-8,8a11.4,11.4,0,0,0,0,16.06l8,8,16.05-16Z" fill="#4eabd8"/><path d="M396.94,12.41H385.58a11.39,11.39,0,0,0-11.34,11.36V35.12h22.7Z" fill="#d1b643"/><polygon points="5.39 91.96 2.14 91.96 2.14 91.14 3.22 91.14 3.22 84.73 2.14 84.73 2.14 83.91 5.39 83.91 5.39 84.73 4.31 84.73 4.31 91.14 5.39 91.14 5.39 91.96" fill="#595a5c"/><path d="M10.56,87h-.05L10.05,87l-.51,0a2.18,2.18,0,0,0-.93.21,4.32,4.32,0,0,0-.86.54V92h-1v-6h1v.89a5.06,5.06,0,0,1,1.09-.69,2.42,2.42,0,0,1,1-.2h.39l.36.05Z" fill="#595a5c"/><path d="M14.64,90.48h0V88.8l-1.12.08a5.59,5.59,0,0,0-1,.16,1.7,1.7,0,0,0-.72.39,1.1,1.1,0,0,0,0,1.5,1.54,1.54,0,0,0,1,.26,2.34,2.34,0,0,0,1-.21,4.53,4.53,0,0,0,.84-.5m1,1.49h-1v-.64l-.37.25a2.8,2.8,0,0,1-.45.26,3,3,0,0,1-.6.21,3.28,3.28,0,0,1-.79.08A2,2,0,0,1,11,91.59a1.81,1.81,0,0,1-.58-1.38,1.86,1.86,0,0,1,.3-1.11,2,2,0,0,1,.86-.67,4.68,4.68,0,0,1,1.35-.33C13.48,88,14,88,14.64,88v-.16a1.23,1.23,0,0,0-.12-.57.9.9,0,0,0-.35-.36,1.57,1.57,0,0,0-.53-.17,4.54,4.54,0,0,0-.64,0,4.69,4.69,0,0,0-.92.1,7.38,7.38,0,0,0-1,.3H11v-1c.2-.05.49-.11.88-.18a6.66,6.66,0,0,1,1.13-.1,5.4,5.4,0,0,1,1.13.11,2.22,2.22,0,0,1,.84.36,1.61,1.61,0,0,1,.53.64,2.34,2.34,0,0,1,.18,1Z" fill="#595a5c"/><path d="M22.37,92h-1V88.53a6.07,6.07,0,0,0,0-.78,1.39,1.39,0,0,0-.18-.57.83.83,0,0,0-.4-.34,1.73,1.73,0,0,0-.67-.11,2.18,2.18,0,0,0-.89.2,4.71,4.71,0,0,0-.89.53V92h-1v-6h1v.67a4.32,4.32,0,0,1,1-.61,2.69,2.69,0,0,1,1.06-.22,1.93,1.93,0,0,1,1.52.59,2.46,2.46,0,0,1,.53,1.7Z" fill="#595a5c"/><path d="M33.87,91.38l-.55.24a5.6,5.6,0,0,1-.64.24,7.28,7.28,0,0,1-.73.18,4.72,4.72,0,0,1-.87.07,5.1,5.1,0,0,1-1.62-.25,3.31,3.31,0,0,1-1.27-.77,3.54,3.54,0,0,1-.83-1.31,5.19,5.19,0,0,1-.3-1.84,5.28,5.28,0,0,1,.29-1.78,3.63,3.63,0,0,1,.83-1.32,3.48,3.48,0,0,1,1.26-.8,4.76,4.76,0,0,1,1.65-.27,5.8,5.8,0,0,1,1.32.15,7.35,7.35,0,0,1,1.46.56v1.27h-.08a4.82,4.82,0,0,0-1.35-.81A3.94,3.94,0,0,0,31,84.68a3,3,0,0,0-1.12.2,2.48,2.48,0,0,0-.89.61,2.81,2.81,0,0,0-.59,1,4.42,4.42,0,0,0-.21,1.43,4.05,4.05,0,0,0,.24,1.46,3,3,0,0,0,.6,1,2.4,2.4,0,0,0,.9.59,3.07,3.07,0,0,0,1.09.19,4.1,4.1,0,0,0,1.47-.26,4.21,4.21,0,0,0,1.3-.79h.08Z" fill="#595a5c"/><path d="M40,92H39v-.67a5.24,5.24,0,0,1-1,.62,2.58,2.58,0,0,1-1.06.21,2,2,0,0,1-1.51-.58,2.41,2.41,0,0,1-.54-1.7V85.92h1v3.44a6.28,6.28,0,0,0,0,.78,1.4,1.4,0,0,0,.19.56.91.91,0,0,0,.38.35,1.72,1.72,0,0,0,.69.11,2.28,2.28,0,0,0,.88-.21,4.12,4.12,0,0,0,.89-.53V85.92h1Z" fill="#595a5c"/><rect x="41.59" y="83.55" width="1.04" height="8.41" fill="#595a5c"/><path d="M47.43,91.91a6.52,6.52,0,0,1-.64.13,4.82,4.82,0,0,1-.61,0,1.93,1.93,0,0,1-1.44-.5A2.2,2.2,0,0,1,44.25,90V86.78h-.7v-.85h.7V84.19h1v1.74h2.14v.85H45.29v2.75c0,.32,0,.57,0,.74a1.2,1.2,0,0,0,.16.5.75.75,0,0,0,.33.32,1.66,1.66,0,0,0,.65.1,2,2,0,0,0,.53-.07,2.38,2.38,0,0,0,.4-.12h.06Z" fill="#595a5c"/><path d="M53.34,92h-1v-.67a5.35,5.35,0,0,1-1,.62,2.6,2.6,0,0,1-1.06.21,2,2,0,0,1-1.51-.58,2.42,2.42,0,0,1-.54-1.7V85.92h1v3.44a6.32,6.32,0,0,0,0,.78,1.46,1.46,0,0,0,.19.56.92.92,0,0,0,.38.35,1.73,1.73,0,0,0,.69.11,2.26,2.26,0,0,0,.88-.21,4.18,4.18,0,0,0,.89-.53V85.92h1Z" fill="#595a5c"/><path d="M58.77,87h-.05L58.27,87l-.52,0a2.18,2.18,0,0,0-.93.21,4.26,4.26,0,0,0-.86.54V92h-1v-6h1v.89a5.06,5.06,0,0,1,1.09-.69,2.43,2.43,0,0,1,1-.2h.39l.36.05Z" fill="#595a5c"/><path d="M62.86,90.48h0V88.8l-1.12.08a5.57,5.57,0,0,0-1,.16,1.7,1.7,0,0,0-.72.39.94.94,0,0,0-.27.72,1,1,0,0,0,.32.78,1.53,1.53,0,0,0,1,.26A2.34,2.34,0,0,0,62,91a4.66,4.66,0,0,0,.84-.5m1,1.49h-1v-.64l-.37.25a2.72,2.72,0,0,1-.45.26,2.93,2.93,0,0,1-.6.21,3.26,3.26,0,0,1-.79.08,2,2,0,0,1-1.41-.54,1.81,1.81,0,0,1-.58-1.38A1.88,1.88,0,0,1,59,89.1a2,2,0,0,1,.86-.67,4.68,4.68,0,0,1,1.35-.33c.53-.06,1.09-.1,1.7-.13v-.16a1.2,1.2,0,0,0-.13-.57.9.9,0,0,0-.35-.36,1.56,1.56,0,0,0-.53-.17,4.48,4.48,0,0,0-.64,0,4.67,4.67,0,0,0-.91.1,7.25,7.25,0,0,0-1,.3H59.2v-1c.2-.05.5-.11.88-.18a6.67,6.67,0,0,1,1.13-.1,5.39,5.39,0,0,1,1.13.11,2.22,2.22,0,0,1,.84.36,1.62,1.62,0,0,1,.53.64,2.41,2.41,0,0,1,.18,1Z" fill="#595a5c"/><rect x="65.45" y="83.55" width="1.03" height="8.41" fill="#595a5c"/><polygon points="77.97 91.96 76.88 91.96 76.88 88.02 72.78 88.02 72.78 91.96 71.69 91.96 71.69 83.91 72.78 83.91 72.78 87.07 76.88 87.07 76.88 83.91 77.97 83.91 77.97 91.96" fill="#595a5c"/><path d="M83.8,88.27h0A1.79,1.79,0,0,0,83.39,87a1.6,1.6,0,0,0-1.23-.44,1.81,1.81,0,0,0-1.33.48,1.84,1.84,0,0,0-.56,1.2Zm1,.78H80.26a2.53,2.53,0,0,0,.17,1,1.78,1.78,0,0,0,.47.68,1.92,1.92,0,0,0,.68.39,2.85,2.85,0,0,0,.87.13A3.47,3.47,0,0,0,83.72,91a3.12,3.12,0,0,0,.91-.48h.06V91.6a9.36,9.36,0,0,1-1.07.37,4.56,4.56,0,0,1-1.14.14,3.36,3.36,0,0,1-2.4-.81A3,3,0,0,1,79.21,89,3.27,3.27,0,0,1,80,86.63a2.85,2.85,0,0,1,2.17-.87,2.52,2.52,0,0,1,1.92.71,2.83,2.83,0,0,1,.67,2Z" fill="#595a5c"/><path d="M89.77,87h-.05L89.27,87l-.52,0a2.17,2.17,0,0,0-.93.21,4.26,4.26,0,0,0-.86.54V92h-1v-6h1v.89a5.06,5.06,0,0,1,1.09-.69,2.41,2.41,0,0,1,1-.2h.39l.36.05Z" fill="#595a5c"/><path d="M90.31,92h1v-6h-1Zm-.06-7h1.17V83.86H90.24Z" fill="#595a5c"/><path d="M96.15,91.91c-.2.05-.41.09-.64.13a4.9,4.9,0,0,1-.62,0,1.94,1.94,0,0,1-1.44-.5A2.2,2.2,0,0,1,93,90V86.78h-.7v-.85H93V84.19h1v1.74h2.14v.85H94v2.75c0,.32,0,.57,0,.74a1.12,1.12,0,0,0,.16.5.74.74,0,0,0,.33.32,1.62,1.62,0,0,0,.65.1,2,2,0,0,0,.53-.07,2.66,2.66,0,0,0,.4-.12h.06Z" fill="#595a5c"/><path d="M100.71,90.48h0V88.8l-1.11.08a5.59,5.59,0,0,0-1,.16,1.66,1.66,0,0,0-.72.39,1.1,1.1,0,0,0,0,1.5,1.54,1.54,0,0,0,1,.26,2.36,2.36,0,0,0,1-.21,4.66,4.66,0,0,0,.84-.5m1,1.49h-1v-.64l-.37.25a2.73,2.73,0,0,1-.46.26,3,3,0,0,1-.59.21,3.29,3.29,0,0,1-.79.08,2,2,0,0,1-1.41-.54,1.81,1.81,0,0,1-.58-1.38,1.89,1.89,0,0,1,.3-1.11,2,2,0,0,1,.86-.67A4.62,4.62,0,0,1,99,88.1c.52-.06,1.09-.1,1.7-.13v-.16a1.16,1.16,0,0,0-.13-.57.91.91,0,0,0-.35-.36,1.57,1.57,0,0,0-.53-.17,4.52,4.52,0,0,0-.65,0,4.61,4.61,0,0,0-.91.1,7.31,7.31,0,0,0-1,.3h-.05v-1c.2-.05.49-.11.88-.18a6.69,6.69,0,0,1,1.13-.1,5.4,5.4,0,0,1,1.13.11,2.2,2.2,0,0,1,.83.36,1.56,1.56,0,0,1,.53.64,2.34,2.34,0,0,1,.18,1Z" fill="#595a5c"/><path d="M107.25,90.3h0V87a4.43,4.43,0,0,0-.77-.26,3.35,3.35,0,0,0-.71-.08,1.71,1.71,0,0,0-1.35.56,2.42,2.42,0,0,0-.49,1.63,2.75,2.75,0,0,0,.36,1.54,1.37,1.37,0,0,0,1.21.52,2.56,2.56,0,0,0,.91-.17,3.28,3.28,0,0,0,.84-.46m1,1a3.1,3.1,0,0,1-.71,2.25,3,3,0,0,1-2.19.72,6.86,6.86,0,0,1-1-.07,7.94,7.94,0,0,1-.92-.19V93h.06a7.27,7.27,0,0,0,.81.24,4.47,4.47,0,0,0,1.1.14,2.61,2.61,0,0,0,.88-.13,1.24,1.24,0,0,0,.82-.85,2.46,2.46,0,0,0,.08-.67v-.55a4.07,4.07,0,0,1-.9.55,2.79,2.79,0,0,1-1.09.18,2.16,2.16,0,0,1-1.75-.78,3.35,3.35,0,0,1-.65-2.2,3.7,3.7,0,0,1,.22-1.34,3,3,0,0,1,.61-1,2.51,2.51,0,0,1,.87-.6,2.67,2.67,0,0,1,1-.21,3.14,3.14,0,0,1,.9.11,4,4,0,0,1,.76.32l.07-.26h1Z" fill="#595a5c"/><path d="M114,88.27h0a1.78,1.78,0,0,0-.41-1.24,1.59,1.59,0,0,0-1.23-.44,1.8,1.8,0,0,0-1.32.48,1.85,1.85,0,0,0-.56,1.2Zm1,.78h-4.54a2.5,2.5,0,0,0,.17,1,1.82,1.82,0,0,0,.47.68,1.9,1.9,0,0,0,.68.39,2.85,2.85,0,0,0,.87.13,3.47,3.47,0,0,0,1.27-.25,3.09,3.09,0,0,0,.91-.48h.05V91.6a9.08,9.08,0,0,1-1.07.37,4.57,4.57,0,0,1-1.15.14,3.36,3.36,0,0,1-2.4-.81,3,3,0,0,1-.86-2.31,3.27,3.27,0,0,1,.83-2.35,2.85,2.85,0,0,1,2.17-.87,2.52,2.52,0,0,1,1.92.71,2.83,2.83,0,0,1,.68,2Z" fill="#595a5c"/><path d="M123.43,90.48h0V88.8l-1.12.08a5.63,5.63,0,0,0-1,.16,1.69,1.69,0,0,0-.72.39.94.94,0,0,0-.28.72,1,1,0,0,0,.32.78,1.54,1.54,0,0,0,1,.26,2.33,2.33,0,0,0,1-.21,4.52,4.52,0,0,0,.84-.5m1,1.49h-1v-.64l-.37.25a2.81,2.81,0,0,1-.46.26A2.93,2.93,0,0,1,122,92a3.29,3.29,0,0,1-.79.08,2,2,0,0,1-1.41-.54,1.8,1.8,0,0,1-.58-1.38,1.89,1.89,0,0,1,.3-1.11,2,2,0,0,1,.86-.67,4.7,4.7,0,0,1,1.35-.33c.53-.06,1.09-.1,1.69-.13v-.16a1.16,1.16,0,0,0-.13-.57.91.91,0,0,0-.36-.36,1.54,1.54,0,0,0-.53-.17,4.51,4.51,0,0,0-.65,0,4.68,4.68,0,0,0-.91.1,7.45,7.45,0,0,0-1,.3h-.05v-1c.2-.05.5-.11.88-.18a6.71,6.71,0,0,1,1.13-.1,5.42,5.42,0,0,1,1.13.11,2.23,2.23,0,0,1,.84.36,1.58,1.58,0,0,1,.53.64,2.28,2.28,0,0,1,.19,1Z" fill="#595a5c"/><path d="M131.17,92h-1V88.53a6.08,6.08,0,0,0,0-.78,1.45,1.45,0,0,0-.18-.57.85.85,0,0,0-.4-.34,1.76,1.76,0,0,0-.67-.11,2.15,2.15,0,0,0-.89.2,4.56,4.56,0,0,0-.89.53V92h-1v-6h1v.67a4.39,4.39,0,0,1,1-.61,2.71,2.71,0,0,1,1.07-.22,1.93,1.93,0,0,1,1.52.59,2.47,2.47,0,0,1,.53,1.7Z" fill="#595a5c"/><path d="M136.67,90.48h0V87a4,4,0,0,0-.75-.25,3.54,3.54,0,0,0-.72-.07,1.64,1.64,0,0,0-1.35.59,2.6,2.6,0,0,0-.49,1.69,2.92,2.92,0,0,0,.38,1.63,1.33,1.33,0,0,0,1.2.56,2.29,2.29,0,0,0,.89-.19,3.8,3.8,0,0,0,.85-.5m1,1.49h-1v-.63a3.77,3.77,0,0,1-.93.59,2.64,2.64,0,0,1-1.05.21,2.1,2.1,0,0,1-1.75-.83,3.64,3.64,0,0,1-.65-2.31,3.84,3.84,0,0,1,.22-1.37,3.15,3.15,0,0,1,.6-1A2.53,2.53,0,0,1,134,86a2.61,2.61,0,0,1,1-.22,3.34,3.34,0,0,1,.86.1,4,4,0,0,1,.79.31V83.55h1Z" fill="#595a5c"/><polygon points="148.61 84.86 145.74 84.86 145.74 91.96 144.68 91.96 144.68 84.86 141.8 84.86 141.8 83.91 148.61 83.91 148.61 84.86" fill="#595a5c"/><path d="M152.06,88.95h0a2.77,2.77,0,0,0-.46-1.74,1.72,1.72,0,0,0-2.56,0,2.77,2.77,0,0,0-.46,1.74,2.74,2.74,0,0,0,.46,1.72,1.68,1.68,0,0,0,2.55,0,2.74,2.74,0,0,0,.46-1.73m1,0a3.4,3.4,0,0,1-.76,2.33,2.84,2.84,0,0,1-4.05,0,4,4,0,0,1,0-4.67,2.83,2.83,0,0,1,4.05,0,3.42,3.42,0,0,1,.76,2.34" fill="#595a5c"/><path d="M159.22,92h-1v-.67a5.12,5.12,0,0,1-1,.62,2.48,2.48,0,0,1-1,.21,1.9,1.9,0,0,1-1.48-.58,2.46,2.46,0,0,1-.53-1.7V85.92h1v3.44a5.91,5.91,0,0,0,0,.78,1.39,1.39,0,0,0,.18.56.88.88,0,0,0,.38.35,1.63,1.63,0,0,0,.67.11,2.17,2.17,0,0,0,.86-.21,4.07,4.07,0,0,0,.88-.53V85.92h1Z" fill="#595a5c"/><path d="M164.53,87h-.05L164,87l-.51,0a2.08,2.08,0,0,0-.9.21,4,4,0,0,0-.84.54V92h-1v-6h1v.89a4.81,4.81,0,0,1,1.06-.69,2.33,2.33,0,0,1,.94-.2h.38l.36.05Z" fill="#595a5c"/><path d="M165,92h1v-6h-1Zm-.07-7h1.15V83.86H165Z" fill="#595a5c"/><path d="M171.92,90.22a1.64,1.64,0,0,1-.68,1.36,3,3,0,0,1-1.86.53,4.41,4.41,0,0,1-1.23-.16,5.75,5.75,0,0,1-.94-.35V90.46h.05a4,4,0,0,0,1.07.58,3.28,3.28,0,0,0,1.13.21,2.11,2.11,0,0,0,1-.22.73.73,0,0,0,.38-.68.7.7,0,0,0-.21-.54,1.86,1.86,0,0,0-.79-.31l-.56-.11-.63-.14a2.12,2.12,0,0,1-1.13-.62,1.53,1.53,0,0,1-.33-1,1.61,1.61,0,0,1,.16-.7,1.7,1.7,0,0,1,.46-.59,2.3,2.3,0,0,1,.77-.4,3.48,3.48,0,0,1,1-.15,4.57,4.57,0,0,1,1.09.13,4.11,4.11,0,0,1,.92.32v1.08h-.05a3.56,3.56,0,0,0-.94-.48,3.19,3.19,0,0,0-1.09-.2,1.9,1.9,0,0,0-.94.21.75.75,0,0,0-.15,1.2,1.8,1.8,0,0,0,.74.31l.63.13.58.12a2.18,2.18,0,0,1,1.09.56,1.46,1.46,0,0,1,.39,1.06" fill="#595a5c"/><path d="M181.72,92h-1V88.53a7.08,7.08,0,0,0,0-.75,1.59,1.59,0,0,0-.15-.58.82.82,0,0,0-.36-.35,1.5,1.5,0,0,0-.67-.12,1.9,1.9,0,0,0-.85.21,5.37,5.37,0,0,0-.85.54l0,.29c0,.11,0,.22,0,.33V92h-1V88.53c0-.26,0-.52,0-.76a1.52,1.52,0,0,0-.15-.57.8.8,0,0,0-.36-.35,1.48,1.48,0,0,0-.67-.12,1.87,1.87,0,0,0-.83.2,5.22,5.22,0,0,0-.84.53V92h-1v-6h1v.67a4.67,4.67,0,0,1,.95-.61,2.36,2.36,0,0,1,1-.22,2,2,0,0,1,1,.26,1.6,1.6,0,0,1,.64.72,5,5,0,0,1,1.12-.75,2.59,2.59,0,0,1,1.08-.23,1.74,1.74,0,0,1,1.47.6,2.68,2.68,0,0,1,.47,1.69Z" fill="#595a5c"/><polygon points="189.56 91.96 186.39 91.96 186.39 91.14 187.44 91.14 187.44 84.73 186.39 84.73 186.39 83.91 189.56 83.91 189.56 84.73 188.51 84.73 188.51 91.14 189.56 91.14 189.56 91.96" fill="#595a5c"/><path d="M195.89,92h-1V88.53a6.06,6.06,0,0,0,0-.78,1.45,1.45,0,0,0-.18-.57.84.84,0,0,0-.39-.34,1.65,1.65,0,0,0-.65-.11,2.09,2.09,0,0,0-.87.2,4.46,4.46,0,0,0-.87.53V92h-1v-6h1v.67a4.19,4.19,0,0,1,1-.61,2.6,2.6,0,0,1,1-.22,1.87,1.87,0,0,1,1.49.59,2.52,2.52,0,0,1,.51,1.7Z" fill="#595a5c"/><polygon points="202.49 85.92 200.05 91.96 199.03 91.96 196.61 85.92 197.71 85.92 199.58 90.73 201.43 85.92 202.49 85.92" fill="#595a5c"/><path d="M207.33,88.27h0a1.82,1.82,0,0,0-.4-1.24,1.55,1.55,0,0,0-1.21-.44,1.75,1.75,0,0,0-1.3.48,1.86,1.86,0,0,0-.55,1.2Zm1,.78h-4.44a2.54,2.54,0,0,0,.17,1,1.79,1.79,0,0,0,.46.68,1.91,1.91,0,0,0,.67.39,2.76,2.76,0,0,0,.85.13,3.32,3.32,0,0,0,1.24-.25,3,3,0,0,0,.89-.48h.06V91.6a8.93,8.93,0,0,1-1,.37,4.43,4.43,0,0,1-1.12.14,3.22,3.22,0,0,1-2.34-.81,3.06,3.06,0,0,1-.84-2.31,3.31,3.31,0,0,1,.81-2.35,2.76,2.76,0,0,1,2.12-.87,2.44,2.44,0,0,1,1.88.71,2.87,2.87,0,0,1,.66,2Z" fill="#595a5c"/><path d="M213.71,90.22a1.64,1.64,0,0,1-.69,1.36,3,3,0,0,1-1.86.53,4.39,4.39,0,0,1-1.23-.16,5.64,5.64,0,0,1-.94-.35V90.46H209a4.13,4.13,0,0,0,1.07.58,3.29,3.29,0,0,0,1.13.21,2.12,2.12,0,0,0,1-.22.73.73,0,0,0,.37-.68.69.69,0,0,0-.2-.54,1.85,1.85,0,0,0-.79-.31l-.57-.11-.63-.14a2.13,2.13,0,0,1-1.12-.62,1.54,1.54,0,0,1-.33-1,1.67,1.67,0,0,1,.15-.7,1.74,1.74,0,0,1,.47-.59,2.26,2.26,0,0,1,.77-.4,3.48,3.48,0,0,1,1-.15,4.61,4.61,0,0,1,1.09.13,4.05,4.05,0,0,1,.92.32v1.08h-.05a3.52,3.52,0,0,0-.95-.48,3.17,3.17,0,0,0-1.09-.2,1.92,1.92,0,0,0-.94.21.75.75,0,0,0-.15,1.2,1.76,1.76,0,0,0,.73.31l.63.13.58.12a2.18,2.18,0,0,1,1.09.56,1.46,1.46,0,0,1,.39,1.06" fill="#595a5c"/><path d="M217.84,91.91a6.06,6.06,0,0,1-.62.13,4.67,4.67,0,0,1-.6,0,1.87,1.87,0,0,1-1.41-.5,2.24,2.24,0,0,1-.48-1.59V86.78H214v-.85h.68V84.19h1v1.74h2.09v.85h-2.09v2.75c0,.32,0,.57,0,.74a1.17,1.17,0,0,0,.15.5.72.72,0,0,0,.33.32,1.57,1.57,0,0,0,.63.1,1.91,1.91,0,0,0,.52-.07,2.61,2.61,0,0,0,.39-.12h.06Z" fill="#595a5c"/><path d="M227.4,92h-1V88.53c0-.26,0-.51,0-.75a1.59,1.59,0,0,0-.15-.58.83.83,0,0,0-.35-.35,1.52,1.52,0,0,0-.67-.12,1.91,1.91,0,0,0-.85.21,5.79,5.79,0,0,0-.85.54c0,.08,0,.18,0,.29s0,.22,0,.33V92h-1V88.53a7.17,7.17,0,0,0,0-.76,1.57,1.57,0,0,0-.15-.57.8.8,0,0,0-.36-.35,1.48,1.48,0,0,0-.67-.12,1.87,1.87,0,0,0-.83.2,5,5,0,0,0-.83.53V92h-1v-6h1v.67a4.56,4.56,0,0,1,.95-.61,2.34,2.34,0,0,1,1-.22,2,2,0,0,1,1,.26,1.6,1.6,0,0,1,.64.72,5,5,0,0,1,1.12-.75,2.61,2.61,0,0,1,1.09-.23,1.74,1.74,0,0,1,1.46.6A2.66,2.66,0,0,1,227.4,88Z" fill="#595a5c"/><path d="M233,88.27h0a1.8,1.8,0,0,0-.4-1.24,1.54,1.54,0,0,0-1.21-.44,1.75,1.75,0,0,0-1.3.48,1.88,1.88,0,0,0-.55,1.2Zm1,.78h-4.44a2.54,2.54,0,0,0,.17,1,1.77,1.77,0,0,0,.46.68,1.88,1.88,0,0,0,.67.39,2.74,2.74,0,0,0,.85.13,3.34,3.34,0,0,0,1.24-.25,3,3,0,0,0,.89-.48h.05V91.6a9.09,9.09,0,0,1-1,.37,4.4,4.4,0,0,1-1.12.14,3.23,3.23,0,0,1-2.34-.81,3.06,3.06,0,0,1-.84-2.31,3.33,3.33,0,0,1,.8-2.35,2.77,2.77,0,0,1,2.13-.87,2.43,2.43,0,0,1,1.88.71,2.86,2.86,0,0,1,.66,2Z" fill="#595a5c"/><path d="M240.08,92h-1V88.53a5.42,5.42,0,0,0,0-.78,1.42,1.42,0,0,0-.18-.57.82.82,0,0,0-.39-.34,1.67,1.67,0,0,0-.66-.11,2.11,2.11,0,0,0-.87.2,4.69,4.69,0,0,0-.87.53V92h-1v-6h1v.67a4.41,4.41,0,0,1,1-.61,2.6,2.6,0,0,1,1-.22,1.87,1.87,0,0,1,1.49.59,2.52,2.52,0,0,1,.51,1.7Z" fill="#595a5c"/><path d="M244.71,91.91a6.13,6.13,0,0,1-.62.13,4.7,4.7,0,0,1-.6,0,1.87,1.87,0,0,1-1.4-.5A2.24,2.24,0,0,1,241.6,90V86.78h-.69v-.85h.69V84.19h1v1.74h2.09v.85h-2.09v2.75c0,.32,0,.57,0,.74a1.26,1.26,0,0,0,.15.5.73.73,0,0,0,.33.32,1.56,1.56,0,0,0,.64.1,1.9,1.9,0,0,0,.51-.07,2.46,2.46,0,0,0,.39-.12h.06Z" fill="#595a5c"/><path d="M255.69,91.37a10.51,10.51,0,0,1-1.43.53,5.5,5.5,0,0,1-1.51.22,5.38,5.38,0,0,1-1.72-.26,3.57,3.57,0,0,1-1.33-.78,3.49,3.49,0,0,1-.86-1.31,5.12,5.12,0,0,1-.3-1.84,4.09,4.09,0,0,1,1.12-3,4.2,4.2,0,0,1,3.09-1.12,6.45,6.45,0,0,1,1.4.16,7.57,7.57,0,0,1,1.54.56v1.27h-.1c-.11-.09-.27-.2-.49-.34a4.43,4.43,0,0,0-.62-.35,4.71,4.71,0,0,0-.85-.28,4.58,4.58,0,0,0-1.07-.11,2.74,2.74,0,0,0-2.13.87,4,4,0,0,0,0,4.78,2.93,2.93,0,0,0,2.23.87,5.35,5.35,0,0,0,1-.11,4.72,4.72,0,0,0,.91-.26v-2h-2.15v-.94h3.21Z" fill="#595a5c"/><path d="M260.79,87h-.06L260.3,87l-.51,0a2.07,2.07,0,0,0-.91.21,4.16,4.16,0,0,0-.84.54V92h-1v-6h1v.89a4.91,4.91,0,0,1,1.07-.69,2.31,2.31,0,0,1,.94-.2h.38l.36.05Z" fill="#595a5c"/><path d="M265.38,88.95h0a2.74,2.74,0,0,0-.46-1.74,1.72,1.72,0,0,0-2.55,0,3.49,3.49,0,0,0,0,3.47,1.69,1.69,0,0,0,2.55,0,2.75,2.75,0,0,0,.46-1.73m1,0a3.39,3.39,0,0,1-.76,2.33,2.84,2.84,0,0,1-4.05,0,4,4,0,0,1,0-4.67,2.83,2.83,0,0,1,4.05,0,3.41,3.41,0,0,1,.76,2.34" fill="#595a5c"/><path d="M272.55,92h-1v-.67a5,5,0,0,1-1,.62,2.5,2.5,0,0,1-1,.21,1.9,1.9,0,0,1-1.48-.58,2.45,2.45,0,0,1-.53-1.7V85.92h1v3.44a6.26,6.26,0,0,0,0,.78,1.34,1.34,0,0,0,.18.56.87.87,0,0,0,.37.35,1.64,1.64,0,0,0,.68.11,2.19,2.19,0,0,0,.86-.21,4,4,0,0,0,.87-.53V85.92h1Z" fill="#595a5c"/><path d="M278.35,88.9h0a2.9,2.9,0,0,0-.37-1.63,1.29,1.29,0,0,0-1.15-.54,2.2,2.2,0,0,0-.88.19,4.15,4.15,0,0,0-.85.5v3.42a4.23,4.23,0,0,0,.75.26,3.28,3.28,0,0,0,.7.07,1.61,1.61,0,0,0,1.32-.57,2.61,2.61,0,0,0,.48-1.7m1,0a4.08,4.08,0,0,1-.21,1.34,2.91,2.91,0,0,1-.59,1,2.45,2.45,0,0,1-1.86.84,3.29,3.29,0,0,1-.85-.1,3.77,3.77,0,0,1-.78-.32v2.53h-1V85.93h1v.63A3.8,3.8,0,0,1,276,86a2.57,2.57,0,0,1,1.08-.23,2,2,0,0,1,1.69.83,3.77,3.77,0,0,1,.61,2.29" fill="#595a5c"/><path d="M290.24,91.38l-.53.24a5.39,5.39,0,0,1-.63.24,6.69,6.69,0,0,1-.71.18,4.48,4.48,0,0,1-.85.07,4.87,4.87,0,0,1-1.59-.25,3.22,3.22,0,0,1-1.24-.77,3.41,3.41,0,0,1-.81-1.31,5.24,5.24,0,0,1-.29-1.84,5.33,5.33,0,0,1,.28-1.78,3.66,3.66,0,0,1,.81-1.32,3.46,3.46,0,0,1,1.24-.8,4.54,4.54,0,0,1,1.61-.27,5.52,5.52,0,0,1,1.29.15,7,7,0,0,1,1.43.56v1.27h-.08a4.7,4.7,0,0,0-1.32-.81,3.78,3.78,0,0,0-1.4-.26,2.89,2.89,0,0,0-1.1.2,2.44,2.44,0,0,0-.87.61,2.82,2.82,0,0,0-.58,1,4.54,4.54,0,0,0-.2,1.43,4.2,4.2,0,0,0,.23,1.46,2.9,2.9,0,0,0,.59,1,2.32,2.32,0,0,0,.88.59,3,3,0,0,0,1.07.19,4,4,0,0,0,1.44-.26,4.19,4.19,0,0,0,1.26-.79h.07Z" fill="#595a5c"/><path d="M295.31,88.95h0a2.75,2.75,0,0,0-.46-1.74,1.72,1.72,0,0,0-2.55,0,3.5,3.5,0,0,0,0,3.47,1.69,1.69,0,0,0,2.55,0,2.75,2.75,0,0,0,.46-1.73m1,0a3.39,3.39,0,0,1-.76,2.33,2.84,2.84,0,0,1-4.05,0,4,4,0,0,1,0-4.67,2.83,2.83,0,0,1,4.05,0,3.41,3.41,0,0,1,.76,2.34" fill="#595a5c"/><rect x="297.73" y="90.42" width="1.29" height="1.54" fill="#595a5c"/><path d="M311,89.43a2.28,2.28,0,0,1-1,1.93,4.7,4.7,0,0,1-2.8.74,8,8,0,0,1-1.78-.18,9.27,9.27,0,0,1-1.42-.45V89.56h.23a4.93,4.93,0,0,0,1.47.79,4.82,4.82,0,0,0,1.56.28l.51,0a2.07,2.07,0,0,0,.51-.11,1.23,1.23,0,0,0,.4-.24.56.56,0,0,0,.16-.43.59.59,0,0,0-.23-.46,1.58,1.58,0,0,0-.67-.29l-1-.2a8.08,8.08,0,0,1-1-.24,3,3,0,0,1-1.49-.9,2.24,2.24,0,0,1,.57-3.24,4.59,4.59,0,0,1,2.65-.71,8.48,8.48,0,0,1,1.6.15,7.78,7.78,0,0,1,1.37.39v1.86h-.22a4.46,4.46,0,0,0-1.22-.65,4.33,4.33,0,0,0-1.47-.26,4,4,0,0,0-.53,0,2.1,2.1,0,0,0-.5.13,1,1,0,0,0-.37.25.51.51,0,0,0-.15.37.55.55,0,0,0,.25.49,2.82,2.82,0,0,0,.94.31l.87.18a9.07,9.07,0,0,1,.9.24,3,3,0,0,1,1.39.82,2,2,0,0,1,.45,1.35" fill="#595a5c"/><polygon points="317.94 91.96 312 91.96 312 83.91 317.94 83.91 317.94 85.47 314.11 85.47 314.11 86.86 317.67 86.86 317.67 88.42 314.11 88.42 314.11 90.41 317.94 90.41 317.94 91.96" fill="#595a5c"/><polygon points="327.88 91.96 325.77 91.96 325.77 86.58 324.25 90.07 322.79 90.07 321.26 86.58 321.26 91.96 319.27 91.96 319.27 83.91 321.73 83.91 323.57 87.95 325.42 83.91 327.88 83.91 327.88 91.96" fill="#595a5c"/><polygon points="335.47 91.96 329.52 91.96 329.52 83.91 335.47 83.91 335.47 85.47 331.63 85.47 331.63 86.86 335.19 86.86 335.19 88.42 331.63 88.42 331.63 90.41 335.47 90.41 335.47 91.96" fill="#595a5c"/><path d="M344.06,91.51a11.11,11.11,0,0,1-1.46.42,8.19,8.19,0,0,1-1.81.21A4.61,4.61,0,0,1,337.5,91a4.51,4.51,0,0,1,0-6.11,4.62,4.62,0,0,1,3.34-1.15,7.93,7.93,0,0,1,1.54.15,6.8,6.8,0,0,1,1.63.57v1.89h-.23l-.45-.32a6.13,6.13,0,0,0-.57-.36,3.86,3.86,0,0,0-.75-.29,3.15,3.15,0,0,0-.91-.12,3,3,0,0,0-1,.16,2.33,2.33,0,0,0-.82.5,2.21,2.21,0,0,0-.55.83,3.08,3.08,0,0,0-.2,1.15,2.72,2.72,0,0,0,.72,2,3,3,0,0,0,2.13.71h.27l.27,0V89h-1.64V87.53h3.79Z" fill="#595a5c"/><path d="M349.83,88.86h0l-1-2.88-1,2.88ZM353.1,92h-2.19l-.57-1.63h-3L346.72,92h-2.14l3-8h2.44Z" fill="#595a5c"/><path d="M75.62,56h0a1.72,1.72,0,0,1,.59,1.05,1.86,1.86,0,0,1,0,.44,2.33,2.33,0,0,1-.5,1.42c-.67.94-1.17,1.42-1.46,1.46a2.11,2.11,0,0,1-.38-.2c-.63-.44-1-.68-1-.73a3,3,0,0,0-.72-.4.9.9,0,0,1-.46-.57l1-2.1c.29-.53.58-.93.79-1.26l.25-.37a9.57,9.57,0,0,1,.88.45c.46.36.79.6,1,.8m6.58-1.3.2-2,.21-1.42a.56.56,0,0,0-.17-.53,3.13,3.13,0,0,0-.54.85l-.84,1.58a8.52,8.52,0,0,0-.72,2.87L80.27,59a6.13,6.13,0,0,1-1,3.29,9.34,9.34,0,0,1-8.21,4.53c-3.23,0-4.86-1.41-4.86-4.26a8.9,8.9,0,0,1,1-3.64L68.58,56c0-.2.13-.41.18-.69s0-.41,0-.45-.34.2-.63.65c-2.39,3.92-3.57,7.24-3.57,9.92a5.71,5.71,0,0,0,1.42,4.09,5.2,5.2,0,0,0,4,1.58,8.84,8.84,0,0,0,4.19-1c3.14-1.66,5.4-4.53,6.78-8.58.17-.49.38-1.26.63-2.35a20.21,20.21,0,0,0,.63-4.45" fill="#4eabd8"/><path d="M83.29,59.61l-.46,1.25-.28,2.55a41.08,41.08,0,0,1-1.64,7.05l.12.28c.34,0,.8-.57,1.39-1.74l1-1.95a12.8,12.8,0,0,0,1-3.68l.46-3.61.25-2.27.21-1.37a.58.58,0,0,0-.13-.32c-.12.12-.16.2-.2.24a3,3,0,0,0-.38.61Z" fill="#4eabd8"/><path d="M97.06,57.92a5.41,5.41,0,0,0-.75.85A6.5,6.5,0,0,1,95.14,60a15,15,0,0,1-1.72.89,5.36,5.36,0,0,0-1.59,1.42,11.17,11.17,0,0,0-.93,1.9,11.49,11.49,0,0,1-1,2.11,7.56,7.56,0,0,1-1.67,1.45c-.17.13-.51.32-1,.65l-1.46.93c-1.05.69-1.6,1.1-1.56,1.29a.79.79,0,0,0,.68.25c.25,0,.58,0,1-.08a8.25,8.25,0,0,0,2.43-.57,4.42,4.42,0,0,0,2-1.9c.37-.9.75-1.79,1.13-2.71a4.17,4.17,0,0,1,1.85-2.1l1.59-.77c.88-.44,1.67-1.82,2.3-4.13.13-.45.13-.69,0-.73" fill="#4eabd8"/><path d="M96.44,74.3h0a4.25,4.25,0,0,0-1-.81,2.16,2.16,0,0,1-.58-.41l-.17.21c-.46.73-.71,1.21-.84,1.42-.46.93-.75,1.58-.92,1.95l-.08.16c0,.17.3.45.87.9s1.05.76,1.35,1c.46,0,.92-.49,1.42-1.43a3.2,3.2,0,0,0,.5-1.9,2.76,2.76,0,0,0-.58-1.1m-4.32.25a4.19,4.19,0,0,0-1-.81,3,3,0,0,1-.58-.4l-.17.19c-.46.73-.71,1.22-.84,1.42-.47.93-.76,1.57-.93,1.94l-.09.16c0,.17.3.45.88.9s1,.77,1.34,1c.46,0,.92-.49,1.43-1.41a3.25,3.25,0,0,0,.5-1.91,2.68,2.68,0,0,0-.58-1.09" fill="#4eabd8"/><path d="M100,59.61l-.45,1.25-.3,2.55a40.58,40.58,0,0,1-1.64,7.05l.13.28c.34,0,.79-.57,1.38-1.74l1-1.95a12.8,12.8,0,0,0,1-3.68l.46-3.61.25-2.27.21-1.37a.63.63,0,0,0-.13-.32,2.6,2.6,0,0,0-.21.24,2.72,2.72,0,0,0-.38.61Z" fill="#4eabd8"/><path d="M88.51,43.5a15.61,15.61,0,0,1,2.18-1.13c1.51-.57,2.31-.9,2.35-.94A6.6,6.6,0,0,1,94,41a9,9,0,0,0,.75-.49,10.86,10.86,0,0,0,2.43-3.2,4.74,4.74,0,0,0,.8-1.9.22.22,0,0,0-.09-.16c-.33.37-.88.94-1.64,1.7a16.58,16.58,0,0,1-3.44,2.72c-.63.37-1.58.81-2.88,1.42a14.87,14.87,0,0,0-3.73,3.24c-1.39,1.62-2.1,3-2.1,4.21,0,.69.5,1.21,1.51,1.58a21.15,21.15,0,0,0,7.87,1l3.36-.12a165.39,165.39,0,0,0,23.09-2.55c15.21-2.75,22.84-4.77,22.84-6.07,0-.41-.41-.61-1.3-.61a13.83,13.83,0,0,0-1.84.2l-9,1.59L124.1,44.6a163,163,0,0,1-23.31,2.19l-2,0c-1.34,0-2.22,0-2.64,0a36.54,36.54,0,0,1-5.9-.41c-2.22-.36-3.36-.81-3.36-1.33s.55-.93,1.64-1.62" fill="#4eabd8"/><path d="M136.83,30.41h0a31.66,31.66,0,0,1-6,6.24c-.55.44-1.42,1.18-2.64,2.14-.7.53-2.8,2.1-6.2,4.7l-2.89,2.18c-1.18.89-1.8,1.3-1.83,1.22a9.63,9.63,0,0,1,2.29-3.49c.34-.32,1.47-1.21,3.36-2.72l5.35-4.17a83,83,0,0,0,6.92-6c.38-.37,1.06-1.1,2.1-2.19a5.45,5.45,0,0,1,1-1v.44a12.23,12.23,0,0,1-1.54,2.63M115,60.68h0a2.34,2.34,0,0,0,2.27,1.4,3.15,3.15,0,0,0,2.5-1.46c1-1.16,1.69-1.78,2.14-1.78.22,0,.46,0,.8.09a1.5,1.5,0,0,0,1-.61c.09-.09.29-.37.63-.85.71,0,1.3-.49,1.84-1.5a4.88,4.88,0,0,0,.68-2.4c0-.23,0-.36-.17-.36s-.21.21-.33.57c-.29.85-.63,1.3-1,1.3a2.29,2.29,0,0,1-.59-.05,4.15,4.15,0,0,0-.21.61,1.9,1.9,0,0,1-.76.9,1,1,0,0,1-.54.12,2.79,2.79,0,0,1-.58,0,1.53,1.53,0,0,0-.55,0,5,5,0,0,0-1.34,1,3,3,0,0,1-2,.73,2.27,2.27,0,0,1-2.31-1.41,9.16,9.16,0,0,1-.26-2.32h0a33.08,33.08,0,0,1,.45-3.92l.58-2.84a3.88,3.88,0,0,0,0-.53H117l-1.71,4.37a17.28,17.28,0,0,0-.38,2l-.42,4a5.37,5.37,0,0,1-.51,2,4.65,4.65,0,0,1-1.66,1.34,11.39,11.39,0,0,0-1.84,1.17,11,11,0,0,0-2.35,3.32,4.15,4.15,0,0,1-1.56,1.5c-1.64,1-2.76,1.62-3.39,2-.84.48-1.26.89-1.26,1.21,0,0,.13.09.37.09h.45a1.63,1.63,0,0,0,.51,0,7.89,7.89,0,0,0,3.48-.93,7.35,7.35,0,0,0,2.17-2.76,7.59,7.59,0,0,1,1-1.57,7.77,7.77,0,0,1,2-1.27,4.34,4.34,0,0,0,1.94-1.65A6.28,6.28,0,0,1,115,60.68M131.3,32a19.13,19.13,0,0,0-2.3,2.26l-.26.65c3.44-2.48,5.32-4.18,5.65-5.14-.42,0-1.46.73-3.1,2.23" fill="#4eabd8"/><path d="M116.57,31.09h0a2.68,2.68,0,0,1,.59,1.09,3.24,3.24,0,0,1-.5,1.91c-.5.93-1,1.41-1.43,1.41a7.06,7.06,0,0,1-1.34-1c-.58-.44-.89-.77-.89-.93l.09-.17c.17-.36.46-1,.92-1.94.13-.2.38-.69.84-1.42l.17-.2a2.79,2.79,0,0,0,.58.41,4.1,4.1,0,0,1,1,.81m2.19,5h0a4.09,4.09,0,0,0-1-.8,2.74,2.74,0,0,1-.59-.41l-.17.2c-.46.73-.71,1.22-.83,1.42-.46.93-.75,1.58-.92,1.95l-.09.16c0,.16.29.45.88.89s1,.77,1.34,1c.45,0,.92-.48,1.42-1.41a3.25,3.25,0,0,0,.5-1.91,2.89,2.89,0,0,0-.58-1.09m-4.32.24a4.53,4.53,0,0,0-1-.81,2.61,2.61,0,0,1-.59-.4l-.17.2c-.47.73-.71,1.21-.84,1.42-.46.93-.75,1.58-.92,1.95l-.08.16c0,.16.29.44.88.89s1,.77,1.33,1c.46,0,.92-.48,1.43-1.42a3.22,3.22,0,0,0,.51-1.9,2.87,2.87,0,0,0-.59-1.1" fill="#4eabd8"/><path d="M128.54,60.77a6.36,6.36,0,0,0-1.18-1.3l-.88-.77s0,0,0,.08a1.55,1.55,0,0,0-.33.41l-.93,2-.71,1.62c0,.08.16.24.5.49,1.21.89,1.81,1.78,1.81,2.71,0,.41-.72,1.18-2.14,2.35l-1.34,1.09a9,9,0,0,0-.87.86.21.21,0,0,0-.05.17c0,.2.13.23.43.16l1.09-.36a6.19,6.19,0,0,0,3.56-2.35,10.47,10.47,0,0,0,1.64-5.07,4.08,4.08,0,0,0-.54-2.07" fill="#4eabd8"/><path d="M161.07,30h0a31.12,31.12,0,0,1-6,6.24L152.5,38.4c-.73.53-2.82,2.11-6.21,4.69l-2.89,2.2c-1.18.88-1.79,1.29-1.85,1.21A9.82,9.82,0,0,1,143.86,43c.33-.32,1.47-1.21,3.35-2.71l5.36-4.17a83.1,83.1,0,0,0,6.92-6c.37-.36,1-1.09,2.1-2.17a5.63,5.63,0,0,1,1-1v.45A11.88,11.88,0,0,1,161.07,30m-5.53,1.58h0a21.62,21.62,0,0,0-2.3,2.27l-.25.65c3.43-2.47,5.32-4.16,5.65-5.14-.41,0-1.47.72-3.1,2.22m-14,15.64-.17-.32c-.33.65-.63,1.34-.92,2a13.51,13.51,0,0,0-1.13,4.74,28.39,28.39,0,0,1-.38,6.15c-.08.28-.5.65-1.29,1.14a18.62,18.62,0,0,0-1.8,1.17,5.85,5.85,0,0,0-1.26,1.58c-.29.69-.57,1.33-.83,1.87a5.47,5.47,0,0,1-1.8,1.81l-1.26.74c-2.26,1.34-3.39,2.07-3.39,2.26s.29.24.87.24c2.48,0,4.19-.6,5.16-1.82a11.26,11.26,0,0,0,1.33-2.59l0-.07c.08-.17.17-.32.25-.53l.13-.29a2.45,2.45,0,0,1,1-.89l1.59-.77a5.07,5.07,0,0,0,2.09-2.87,12.69,12.69,0,0,0,1-3.52c.08-.77.18-2.11.22-4a34.22,34.22,0,0,1,.5-6" fill="#4eabd8"/><path d="M145.91,63.37l.12-.85a7.16,7.16,0,0,0,.08-1,2.68,2.68,0,0,0-.58-1.66,1.89,1.89,0,0,0-1.51-.69c-.55,0-1.13.69-1.81,2a9.57,9.57,0,0,0-1,2.39,1.11,1.11,0,0,0,.46,1.06,1.58,1.58,0,0,0,1.22.44L144,65a.44.44,0,0,0,0,.24,6.9,6.9,0,0,1-2.76,3l-1.64,1.13c-1,.69-1.51,1.1-1.51,1.22l.17.08a4,4,0,0,0,1.34-.28l1.34-.44a13,13,0,0,0,2.13-.89,5.31,5.31,0,0,0,1.76-2.43l.57-1.51a9.85,9.85,0,0,0,.51-1.73" fill="#4eabd8"/><path d="M180.7,33.26h0a31.19,31.19,0,0,1-6,6.24c-.53.45-1.42,1.19-2.63,2.16-.72.52-2.81,2.1-6.21,4.69L163,48.54c-1.18.89-1.81,1.3-1.85,1.21a9.82,9.82,0,0,1,2.29-3.48c.35-.32,1.48-1.22,3.36-2.71l5.37-4.17a86.07,86.07,0,0,0,6.92-6c.37-.37,1-1.09,2.09-2.19a5.52,5.52,0,0,1,1-1v.44a11.59,11.59,0,0,1-1.55,2.63m-5.53,1.59h0a20.89,20.89,0,0,0-2.32,2.26l-.25.65c3.45-2.47,5.32-4.18,5.66-5.14-.42,0-1.47.73-3.09,2.23m-14.6,18.39c.21-1.21.34-2.06.42-2.6.13-.32.13-.52.08-.56s-.16,0-.29.09a15.91,15.91,0,0,0-2.27,7.29l-.11,2,0,.06c0,.15,0,.3,0,.44l0,.46c-.51,1.09-.93,2-1.31,2.71l-1.3,2.5a4,4,0,0,0-.5,1.7,1.76,1.76,0,0,0,.62,1.38,7.15,7.15,0,0,0,.84.53c1.05.61,1.55,1.09,1.5,1.42a6.12,6.12,0,0,1-2.76,3.44,8.09,8.09,0,0,1-4.36,1.13,4.88,4.88,0,0,1-3.22-1,3.56,3.56,0,0,1-1.29-3q0-1.65,3.35-8.88a2.72,2.72,0,0,0,.29-1.09c0-.2,0-.36-.13-.41s-.42.46-1,1.46c-1.34,2.52-2.08,3.93-2.21,4.25a18.26,18.26,0,0,0-2,7.58,5.66,5.66,0,0,0,1.34,3.93,4.85,4.85,0,0,0,3.81,1.46,7.5,7.5,0,0,0,4.44-1.54,14.16,14.16,0,0,0,5-7.65,12.59,12.59,0,0,0,.58-3,2.85,2.85,0,0,0-1.29-2.22l-.63-.49c-.34-.28-.51-.44-.51-.56a5.12,5.12,0,0,1,.76-1.54,1.37,1.37,0,0,1,.45-.56c.07.12.13.25.2.36a2.63,2.63,0,0,0,2.43,1.46A3.29,3.29,0,0,0,164.07,62a6.18,6.18,0,0,1,2.26-2.32,3.48,3.48,0,0,1,.92,0v0a.7.7,0,0,0,.26,0c.38,0,.83-.37,1.3-1.1.29-.44.55-.92.84-1.37.46-.61.84-.9,1.17-.9a1.71,1.71,0,0,1,.63.17,1.66,1.66,0,0,0,.55.16A1.32,1.32,0,0,0,173.2,56a2.61,2.61,0,0,0,.38-1.42c0-.56-.18-.84-.54-.84,0,0-.13.13-.26.37s-.29.37-.42.37a1.23,1.23,0,0,0-1-.32,1.57,1.57,0,0,0-1,.43,7.18,7.18,0,0,0-.67.78c-.85,1.41-1.43,2.14-1.8,2.14l-.7-.07,0,0c-.54-.11-1.25.36-2,1.38a2.89,2.89,0,0,1-2.31,1.18c-1.81,0-2.72-1.12-2.76-3.35l0-.18c0-.28.13-1.34.42-3.16" fill="#4eabd8"/><path d="M161.08,40a4.45,4.45,0,0,0-1-.81,2.64,2.64,0,0,1-.59-.41l-.17.2c-.46.73-.72,1.21-.84,1.42-.46.93-.75,1.58-.93,1.95l-.08.16c0,.16.29.45.88.89s1,.77,1.33,1c.47,0,.93-.49,1.43-1.42a3.28,3.28,0,0,0,.51-1.9,3,3,0,0,0-.59-1.1" fill="#4eabd8"/><path d="M165.28,68a11.88,11.88,0,0,0-1.14,3.6c0,1.05.34,1.58,1,1.58a1,1,0,0,0,.87-.53,1.94,1.94,0,0,0,.34-1.05c0-.2-.21-.49-.63-.89l-.67-.61A6.9,6.9,0,0,1,166.28,67c.29-.57.55-1.13.84-1.66-.47-.09-1,.8-1.84,2.71" fill="#4eabd8"/><path d="M181.05,54.76a2.38,2.38,0,0,0-2.1-1.22c-.34,0-.84.61-1.46,1.78a6.44,6.44,0,0,0-1,2.39c0,.81.41,1.21,1.26,1.21a2.36,2.36,0,0,0,1.09-.19c.17,0,.33.12.55.4a1.25,1.25,0,0,1,.29.69c0,.28-.46.72-1.38,1.25s-1.42.81-1.84,1a4.46,4.46,0,0,0-1.22,1.5c-.2.32-.55.93-1,1.83A8.79,8.79,0,0,1,171,68.12c-.88.48-1.48.81-1.8,1-.93.53-1.38.94-1.38,1.17s.17.28.46.28a14.82,14.82,0,0,0,2.52-.24,4.42,4.42,0,0,0,2.27-.85,5.35,5.35,0,0,0,1.38-1.95c.55-1.17.92-1.86,1-2.07a3.75,3.75,0,0,1,1.8-1.42,5.66,5.66,0,0,0,2.76-2.19,8.64,8.64,0,0,0,1.59-4.66,4.6,4.6,0,0,0-.62-2.43" fill="#4eabd8"/><path d="M175.37,45.19a4.74,4.74,0,0,0-1-.81,2.74,2.74,0,0,1-.58-.4l-.17.2c-.47.73-.71,1.21-.84,1.41-.46.93-.76,1.59-.92,1.94l-.08.16c0,.16.29.45.88.89s1,.77,1.35,1c.47,0,.92-.48,1.42-1.42a3.2,3.2,0,0,0,.51-1.9,2.82,2.82,0,0,0-.58-1.09" fill="#4eabd8"/><path d="M181.29,45c-1.27.05-2.22,6.08,6,6.53,1.39.06,3.37.06,6.09-.06,2.19-.09,4.51-.27,7.08-.58,9.54-1.1,15.7-2.9,18.41-5.37a8.15,8.15,0,0,0,2.71-4,.87.87,0,0,0-.19-.44c-.14,0-.34.18-.67.51a6,6,0,0,1-.59.55c-.8.8-2.46,1.57-4.9,2.28-14.19,4.17-32.24,3.4-34,.57" fill="#4eabd8"/><path d="M201.64,32.37h0a2.78,2.78,0,0,1,.58,1.09,3.26,3.26,0,0,1-.5,1.91c-.51.93-1,1.42-1.43,1.42a7.15,7.15,0,0,1-1.33-1c-.59-.45-.89-.78-.89-.94l.1-.16c.16-.37.45-1,.92-1.94.12-.2.37-.69.84-1.42l.17-.2a2.78,2.78,0,0,0,.59.41,4.18,4.18,0,0,1,1,.81m2.17,5h0a4.38,4.38,0,0,0-1-.8,2.89,2.89,0,0,1-.59-.41l-.17.2c-.46.73-.71,1.22-.83,1.42-.47.93-.76,1.58-.93,1.95l-.09.16c0,.17.29.45.88.9s1.05.77,1.34,1c.47,0,.92-.49,1.42-1.42a3.24,3.24,0,0,0,.51-1.9,2.77,2.77,0,0,0-.59-1.1m-4.31.24a4.35,4.35,0,0,0-1-.81,2.53,2.53,0,0,1-.59-.41l-.17.2c-.46.73-.71,1.22-.84,1.41-.46.94-.75,1.59-.93,2l-.08.16c0,.16.3.45.88.89s1.05.77,1.35,1c.45,0,.92-.49,1.41-1.42a3.27,3.27,0,0,0,.51-1.9,2.77,2.77,0,0,0-.59-1.09" fill="#4eabd8"/><path d="M185.71,59.64l-.46,1.26L185,63.45a42.69,42.69,0,0,1-1.63,7l.13.28c.32,0,.79-.56,1.37-1.74l1-1.94a12.65,12.65,0,0,0,1-3.68l.46-3.61.25-2.27.21-1.38a.6.6,0,0,0-.13-.32,2.84,2.84,0,0,0-.21.24,3.23,3.23,0,0,0-.38.61Z" fill="#4eabd8"/><path d="M204.2,71.12h0a4.49,4.49,0,0,0-1-.81,2.31,2.31,0,0,1-.59-.41l-.17.2c-.46.73-.71,1.21-.84,1.42-.46.93-.75,1.58-.92,1.94l-.08.16c0,.17.29.45.88.89s1,.77,1.34,1c.47,0,.92-.49,1.43-1.42a3.21,3.21,0,0,0,.5-1.9,2.83,2.83,0,0,0-.57-1.09m-4.32.24a4.54,4.54,0,0,0-1-.81,3,3,0,0,1-.59-.4l-.16.2c-.47.73-.72,1.21-.84,1.41-.47.94-.76,1.59-.93,2l-.08.16c0,.17.29.45.88.9s1,.77,1.34,1c.46,0,.92-.48,1.43-1.42a3.29,3.29,0,0,0,.5-1.9,2.91,2.91,0,0,0-.58-1.1" fill="#4eabd8"/><path d="M203.14,58.06a6.4,6.4,0,0,0,.82,0h.68c.16,0,.39-.2.63-.57.71-1.09,1.21-2,1.59-2.52l.5-.72a3.42,3.42,0,0,1,.88-.81l.8-1.25a9.32,9.32,0,0,1,.51-.82,4.77,4.77,0,0,1,1,1,3.5,3.5,0,0,1,1,1.78,2.45,2.45,0,0,1-.55,1.63,1.72,1.72,0,0,1-1.46.72h-1.1a2.37,2.37,0,0,0-2,1.22l-1.26,1.86a7.7,7.7,0,0,1-2.1,2.38v0a1.87,1.87,0,0,1-.88.16h-.62a3.13,3.13,0,0,0-.55,0c-2.34,0-4.57,1.34-6.62,4-.21.28-.93,1.3-2.14,3a13.77,13.77,0,0,1-2.89,3.07,26.45,26.45,0,0,1-6.54,4.13,2.87,2.87,0,0,1-.85.29.36.36,0,0,1-.25-.08c-.16-.17.3-.61,1.34-1.33,1.59-1.1,2.64-1.83,3.18-2.24a26.57,26.57,0,0,0,2.9-2.67,48,48,0,0,0,3.4-4.37c1.08-1.54,1.88-2.59,2.35-3.17a15.36,15.36,0,0,1,3.6-3.19,8.71,8.71,0,0,1,4.57-1.5Z" fill="#4eabd8"/><path d="M231.25,46.27c-1.13.15-2.56,1.05-4.32,2.63-.62.61-1.34,1.38-2.13,2.31-2,2.47-3,4.66-3,6.52a2.14,2.14,0,0,0,1.89,2.15c1,.24,1.43.53,1.43.81a4.93,4.93,0,0,1-1.72,3A7.49,7.49,0,0,1,217.81,66a5.63,5.63,0,0,1-3.15-.81,3,3,0,0,1-1.43-2.71c0-1.58,1.17-4.77,3.48-9.68a1.26,1.26,0,0,0,.09-.45c0-.24-.09-.37-.29-.37s-.39.33-.67,1l-2.18,4.54a17.62,17.62,0,0,0-2,7.49A5.42,5.42,0,0,0,213,68.78a4.58,4.58,0,0,0,3.68,1.5q4.34,0,7.17-4.14a16.27,16.27,0,0,0,1.84-4,14.15,14.15,0,0,0,.76-4.3,2.08,2.08,0,0,0-1.64-2.23l-.76-.36a1.09,1.09,0,0,1-.29-.68c0-.53.75-1.46,2.26-2.8a5.11,5.11,0,0,1,3.06-1.62,1.86,1.86,0,0,1,.58.32c.17,0,.38-.17.59-.48,0-.08.21-.41.5-1a9.49,9.49,0,0,0,.8-2.23c0-.2-.09-.37-.34-.52" fill="#4eabd8"/><path d="M231,59.61c-.17,0-.37.4-.67,1.26l-.5,1.46a21.62,21.62,0,0,1-1.09,2.87,10.59,10.59,0,0,1-2.68,3c-.84.61-1.38,1.05-1.68,1.25-.88.65-1.26,1.09-1.17,1.33a.23.23,0,0,0,.25.17,4.9,4.9,0,0,0,2-.41l1.51-.6A4.29,4.29,0,0,0,229,68.16a15.88,15.88,0,0,0,1.1-2.55l.5-2a16.71,16.71,0,0,0,.62-3.61,1.09,1.09,0,0,0-.21-.4" fill="#4eabd8"/><path d="M235,59.64l-.46,1.26-.29,2.55a41.37,41.37,0,0,1-1.64,7l.12.28c.34,0,.8-.56,1.39-1.74l1-1.94a13.5,13.5,0,0,0,1-3.68l.46-3.61.25-2.27.2-1.38a.62.62,0,0,0-.13-.32,1.82,1.82,0,0,0-.2.24,3.1,3.1,0,0,0-.38.61Z" fill="#4eabd8"/><path d="M244.45,51.29a3.87,3.87,0,0,0-1-.81,2.9,2.9,0,0,1-.58-.41l-.17.2c-.46.73-.71,1.22-.83,1.42-.46.93-.76,1.58-.93,1.94l-.08.16c0,.16.29.45.88.89s1,.77,1.34,1c.46,0,.92-.49,1.42-1.42a3.25,3.25,0,0,0,.51-1.9,2.62,2.62,0,0,0-.59-1.1" fill="#4eabd8"/><path d="M243.64,63.46A10.16,10.16,0,0,1,244,62.1c.13-.37.21-.65.29-.86s0-.36-.12-.4-.63.4-1.1,1.33l-.88,1.74c-.28.53-.54.89-.67,1.1a10.44,10.44,0,0,1-3.38,3.32c-.89.53-1.48.85-1.76,1.06-1,.57-1.42,1-1.42,1.17a2.51,2.51,0,0,0,1,0l2.3-.56c.38-.13.67-.2.8-.25a5.18,5.18,0,0,0,2.43-2.19,3.05,3.05,0,0,1,.28-.48l.09-.11a7.76,7.76,0,0,0,.76,2,2.25,2.25,0,0,0,2,.88,3.58,3.58,0,0,0,2.93-1.61,15.59,15.59,0,0,0,1.68-3,14.35,14.35,0,0,0,1.35-6V53.84a18.77,18.77,0,0,1,.29-2.23c0-.36.08-.64.13-.89a1,1,0,0,0,0-.45.19.19,0,0,0-.2-.15,14,14,0,0,0-1.46,3.27,9.27,9.27,0,0,0-.58,3.2l0,5.31a4.41,4.41,0,0,1-.63,2.47,2.53,2.53,0,0,1-2.22,1.17,2,2,0,0,1-2.21-2.18Z" fill="#4eabd8"/><path d="M270.54,33.33h0a31.24,31.24,0,0,1-5.95,6.23c-.55.44-1.42,1.17-2.64,2.15-.7.52-2.81,2.1-6.2,4.7l-2.89,2.18c-1.17.89-1.8,1.3-1.84,1.22a9.79,9.79,0,0,1,2.3-3.48c.34-.32,1.47-1.22,3.35-2.72L262,39.44a82,82,0,0,0,6.92-6c.38-.36,1-1.09,2.09-2.18a5.32,5.32,0,0,1,1-1v.44a12.07,12.07,0,0,1-1.55,2.64M265,34.91a21.24,21.24,0,0,0-2.31,2.26l-.25.65c3.44-2.47,5.32-4.17,5.66-5.14-.42,0-1.47.73-3.1,2.23" fill="#4eabd8"/><path d="M253,65.82a2.92,2.92,0,0,0-.78,1.7.23.23,0,0,0,.08.2c.12,0,.3,0,.45-.17a4.78,4.78,0,0,1,2.47-1.17,7.36,7.36,0,0,1,.8.08c.33,0,.59.08.76.08a2.37,2.37,0,0,0,.88-.13,5.59,5.59,0,0,0,3-3A6.79,6.79,0,0,0,261.6,61c0-.2,0-.33-.16-.33s-.42.37-1,1.13a2.44,2.44,0,0,1-1.85.9,3.66,3.66,0,0,1-1.21-.16,2.9,2.9,0,0,0-1.3.36c-.25.17-.51.32-.76.45A12.74,12.74,0,0,0,253,65.82" fill="#4eabd8"/><path d="M262.48,71.59h0a4.1,4.1,0,0,0-1-.81,2.63,2.63,0,0,1-.58-.41l-.17.2c-.46.73-.7,1.21-.84,1.42-.46.94-.75,1.58-.92,1.95l-.08.16c0,.16.3.45.88.89s1,.76,1.35,1c.46,0,.92-.49,1.42-1.43a3.26,3.26,0,0,0,.51-1.9,2.8,2.8,0,0,0-.6-1.09m-4.31.24a4.15,4.15,0,0,0-1-.81,2.32,2.32,0,0,1-.58-.41l-.17.2c-.46.73-.72,1.22-.84,1.42-.46.93-.76,1.58-.92,1.94l-.08.16c0,.16.29.44.87.89s1.05.78,1.34,1c.47,0,.93-.49,1.43-1.42a3.24,3.24,0,0,0,.5-1.9,2.73,2.73,0,0,0-.58-1.1" fill="#4eabd8"/><path d="M265.62,48.26l.71-4.95.16-1a1.9,1.9,0,0,0,.06-.65l-.17.09a29.23,29.23,0,0,0-1.68,3.92,73,73,0,0,0-1.22,10v.78c0,.08.05.4.09,1a2.85,2.85,0,0,0,.79,1.7,2,2,0,0,0,1.59.85,2.84,2.84,0,0,0,2.47-1.9,6.47,6.47,0,0,0,.67-2.92,1.41,1.41,0,0,0-1.17-1.46c-.38.82-.67,1.55-.94,2.15-1.16,0-1.75-.89-1.75-2.63v-.69a31.2,31.2,0,0,1,.38-4.17" fill="#4eabd8"/><path d="M291.74,42.83c0-.2-.08-.32-.2-.28a9.62,9.62,0,0,0-.92,1.26c-.72.12-1.17.2-1.34.24a2.63,2.63,0,0,0-1.14.76c-.2.24-.54.65-1,1.22-.8,1.05-1.35,1.58-1.59,1.58h-.26s-.21,0-.5,0c-3.39-.08-6.7,2.23-9.85,6.93-1.55,2.31-2.61,3.77-3.05,4.29a24.19,24.19,0,0,1-3.74,3.32A38.51,38.51,0,0,0,264.38,65a.22.22,0,0,0,.16.08,8,8,0,0,0,2.6-1.09,20.24,20.24,0,0,0,6.92-5.63c2-2.72,3-4.17,3.14-4.3a7,7,0,0,1,2.44-1.78,6.2,6.2,0,0,1,2.89-.65l1.43.09c.29,0,.92-.66,2-2.14l1.42-2a3.17,3.17,0,0,1,1.09-1.05,5.77,5.77,0,0,1,1.17-.32,1.72,1.72,0,0,0,1.1-.77,4.58,4.58,0,0,0,1-2.51" fill="#4eabd8"/><path d="M328.22,62.53a2.94,2.94,0,0,0-.42-1.26,1.91,1.91,0,0,0-1.22.33A16.47,16.47,0,0,0,325,63.3a4.85,4.85,0,0,1-.76.65,14,14,0,0,1-6,2,70.91,70.91,0,0,1-9.55.73q-8.73,0-9.8-1.83c0-.11-.17-.56-.38-1.41,0-.28-.17-.41-.29-.41s-.39.61-.47,1.78c0,.82-.08,1.58-.08,2.27,0,2,1.39,3.2,4.11,3.64a25.18,25.18,0,0,0,3.48.21H306a52.75,52.75,0,0,0,5.74-.37,36.51,36.51,0,0,0,8.79-1.82,9,9,0,0,0,3.06-2,14.72,14.72,0,0,0,1.09-1.38c.87-1.25,1.75-1.86,2.64-1.78l.5,0a2.4,2.4,0,0,0,.42-1.1" fill="#4eabd8"/><path d="M314.49,56.6h0a4.25,4.25,0,0,0-1-.81,2.48,2.48,0,0,1-.59-.4l-.16.2c-.47.73-.72,1.21-.84,1.42-.47.93-.75,1.58-.93,1.95l-.08.16c0,.16.29.45.88.89s1,.77,1.34,1c.46,0,.92-.49,1.42-1.41a3.22,3.22,0,0,0,.5-1.91,2.75,2.75,0,0,0-.59-1.09m-4.31.24a4.47,4.47,0,0,0-1-.81,3.2,3.2,0,0,1-.59-.4l-.16.2c-.46.73-.72,1.21-.84,1.41-.46.93-.75,1.59-.91,1.95l-.08.17c0,.16.29.45.87.89s1.05.77,1.33,1c.47,0,.93-.49,1.43-1.42a3.34,3.34,0,0,0,.51-1.9,3,3,0,0,0-.59-1.1" fill="#4eabd8"/><path d="M328.21,63.75c.54,0,1.2-.69,2.08-2.11a7.85,7.85,0,0,0,1.09-3,23.31,23.31,0,0,0,.29-3.24l.16-3.89c0-.28,0-.89.13-1.86,0-.77.08-1.42.08-1.91a1.54,1.54,0,0,0,0-.52l-.17.08L331,49.36l-1,2.92,0,5.5a7.3,7.3,0,0,1-.42,2.8,1.8,1.8,0,0,1-.46.68,1.87,1.87,0,0,1-.89.13l-.54-.08v2.35a1.68,1.68,0,0,0,.43.08" fill="#4eabd8"/><path d="M331.6,46.65c0,.08.67-.32,1.85-1.22l2.89-2.18c4-3,6.07-4.62,6.2-4.7,2.46-2,4.36-3.6,5.57-4.78,2.68-2.59,4.19-4.7,4.56-6.32a1.35,1.35,0,0,0,.08-.36c-.16.2-1.21,1.17-3.13,3s-2.94,2.71-3.31,3.08c-1.42,1.26-2.64,2.31-3.68,3.12l-5.37,4.17a42.84,42.84,0,0,0-3.89,3.28,9.09,9.09,0,0,0-1.76,2.92" fill="#4eabd8"/><path d="M348.4,54.14c0-.21-.09-.33-.21-.28a9.13,9.13,0,0,0-.92,1.25c-.72.12-1.17.21-1.34.25a2.67,2.67,0,0,0-1.13.76l-1,1.22c-.79,1.05-1.34,1.58-1.59,1.58h-.25a1.29,1.29,0,0,0-.51,0c-3.39-.08-6.69,2.23-9.84,6.93a51.34,51.34,0,0,1-3.07,4.29,24.3,24.3,0,0,1-3.72,3.32A39.05,39.05,0,0,0,321,76.26a.21.21,0,0,0,.17.08,8.07,8.07,0,0,0,2.6-1.09,20.33,20.33,0,0,0,6.91-5.63c2-2.71,3-4.18,3.15-4.3a7,7,0,0,1,2.43-1.78,6.16,6.16,0,0,1,2.89-.65l1.42.08c.29,0,.93-.65,2-2.15l1.42-2a3.39,3.39,0,0,1,1.08-1.05,6.25,6.25,0,0,1,1.18-.32,1.65,1.65,0,0,0,1.08-.77,4.5,4.5,0,0,0,1.06-2.51" fill="#4eabd8"/><path d="M343.39,44.74h0a3,3,0,0,1,.58,1.09,3.38,3.38,0,0,1-.5,1.9c-.51.94-1,1.42-1.42,1.42a6.84,6.84,0,0,1-1.34-1c-.59-.45-.88-.77-.88-.94l.09-.16c.16-.36.46-1,.92-1.94.12-.2.38-.69.85-1.42l.16-.2a2.56,2.56,0,0,0,.59.4,5.27,5.27,0,0,1,1,.81m2.16,5h0a4.11,4.11,0,0,0-1-.8,2.62,2.62,0,0,1-.58-.41l-.17.2c-.45.73-.71,1.22-.84,1.42-.46.92-.76,1.58-.92,1.94l-.09.17c0,.16.29.44.89.89s1,.77,1.34,1c.46,0,.92-.49,1.42-1.41a3.28,3.28,0,0,0,.51-1.91,2.84,2.84,0,0,0-.59-1.09m-4.31.25a4.29,4.29,0,0,0-1-.81,2.7,2.7,0,0,1-.59-.41l-.17.2c-.46.73-.71,1.21-.84,1.42-.46.93-.75,1.58-.92,1.95l-.08.16c0,.16.29.45.88.89s1.05.77,1.34,1c.46,0,.92-.49,1.42-1.42a3.24,3.24,0,0,0,.5-1.91,2.75,2.75,0,0,0-.59-1.08" fill="#4eabd8"/><path d="M277.11,67.19h0c0-.47-.35-.95-1.06-1.41a1.4,1.4,0,0,0-.7-.31c-.17,0-.41.29-.71.83a2.93,2.93,0,0,0-.42,1.14c0,.64.34,1,1.13,1a2.35,2.35,0,0,0,1.16-.36c.41-.25.6-.53.6-.84m2.1-3.32a8.41,8.41,0,0,1-1.11,4c-1.09,2-2.26,3-3.52,3-1.06,0-1.61-.64-1.61-1.91a7.29,7.29,0,0,1,.93-2.85l.68-1.12-.42-.22c-.18-.06.46-1.56,2-4.51.05-.17.22-.25.51-.28a2.38,2.38,0,0,1,1.28.74,4,4,0,0,1,1.3,3.12" fill="#4eabd8"/><path d="M285.44,66.14a6.33,6.33,0,0,1-2,3,16.22,16.22,0,0,1-5.14,1.73.21.21,0,0,1-.2-.1c0-.09.27-.34.8-.72s1.39-1,2.56-1.77q3-2.33,3-3.44l-1.17.1a1.88,1.88,0,0,1-1.4-.45,1.26,1.26,0,0,1-.39-1.14,11.34,11.34,0,0,1,1.1-2.7c.68-1.35,1.31-2,1.93-2a2,2,0,0,1,1.56.76,2.41,2.41,0,0,1,.62,1.48,12.8,12.8,0,0,1-.17,1.85,19.8,19.8,0,0,1-1.06,3.39" fill="#4eabd8"/><path d="M298.74,52.32c-.07,2-.13,3.47-.22,4.27a16.33,16.33,0,0,1-1.06,3.77c-.7,1.67-1.44,2.69-2.25,3.06l-1.72.83a2.44,2.44,0,0,0-1.1,1,15.17,15.17,0,0,0-.81,1.77,7.38,7.38,0,0,1-1.07,1.92c-1,1.31-2.89,2-5.53,2-.62,0-.93-.09-.93-.25s1.65-1.33,5-3.22A5.36,5.36,0,0,0,291.19,65a13.52,13.52,0,0,1,1-2,6.64,6.64,0,0,1,.84-1,14.26,14.26,0,0,1,1.93-1.3c1-.58,1.51-1,1.59-1.38a29.66,29.66,0,0,0,.42-6.54,11,11,0,0,1,.79-4,30,30,0,0,1,1.39-3.25c.12,0,.18.13.18.34a39.4,39.4,0,0,0-.54,6.46" fill="#4eabd8"/><path d="M300.77,42.86h0a8.51,8.51,0,0,0-1.84,3.07q3.83-2.76,8.94-6.65t8.4-6.87q4.84-4.89,4.88-7a96,96,0,0,1-11.41,10.06c-5.39,4.25-8.37,6.72-9,7.4m16.08-14.91c-.34,1-8.49,7.73-12.09,10.3l.27-.66c.32-.42,7.4-6.24,8.92-7.6s2.48-2,2.9-2" fill="#4eabd8"/><path d="M53.84,45h0a10.75,10.75,0,0,1-1.37,3.42,2.86,2.86,0,0,1-2.34,1.28,12.73,12.73,0,0,1-1.62,1.38,4,4,0,0,1-2.26,1,2.4,2.4,0,0,1-1.71-.61,2.55,2.55,0,0,0-1.79-.67,3.78,3.78,0,0,0-2,.49c-.6.32-.89.58-1,1H37.61a11.67,11.67,0,0,1,3.19-3.61A6.66,6.66,0,0,1,44.91,47a1.48,1.48,0,0,1,1.25.47,1.82,1.82,0,0,0,1.69.86c.77,0,1.42-.49,2-1.48a.52.52,0,0,1,.62-.31l.63,0c.55,0,1.06-.51,1.52-1.56s.87-1.54,1.19-1.54.34.53.06,1.52M40.11,59.82h0a1.67,1.67,0,0,1-.95.63A8.31,8.31,0,0,1,37.45,60a4.19,4.19,0,0,0-2.63,0c-.83.31-2.33,1.31-5.34,3.73V60.93c1.23-1.16,2-2,3.37-3.19a11.59,11.59,0,0,1,3.59-2.43,12.51,12.51,0,0,1,1.16-3.09h2.12a3.13,3.13,0,0,0-.07,1.63c.12.46.59.86,1.44,1.21.57.19.86.69.86,1.54s-.59,1.92-1.85,3.22m-17.48.39c0,1.63-1.39,3.12-4.19,4.4A10.68,10.68,0,0,1,14.72,64C13.56,63.52,13,63,13,62.3s.72-1.55,2.1-2.67a8.12,8.12,0,0,1,4.81-1.77c1.81-.07,2.72.72,2.72,2.35m6.85,3.57V60.93a26,26,0,0,1-7.54,4.34c2.63-2.87,3.92-5.56,3.92-8.11s-1.7-3.6-5.13-3.14q-3.29.56-6.57,4.33c-2.22,2.5-3.33,4.34-3.37,5.54,0,.78.58,1.45,1.75,2a4.3,4.3,0,0,1-2.21.5L8,73.65a12.24,12.24,0,0,0,6-1.94A31,31,0,0,0,19.8,67.9a33.7,33.7,0,0,0,9.69-4.12M66,14.82h0a140.45,140.45,0,0,1-15.22,9.29c-5.27,2.8-8.28,4.31-9,4.59s-1.19.3-1.22.07,2.2-1.75,6.68-4.49,12.24-7.73,23.2-14.95C72,8.18,73,7.72,73.45,8c-.07,1.16-2.58,3.47-7.47,6.87m7.38,1.59A10.31,10.31,0,0,0,76.7,11c0-.22,0-.34-.15-.34S69.73,16,52.72,25.73s-27.66,16.18-32,19.35-7.35,6-9.06,8.43S9,57.46,9,58s0,.8.22.78a18.73,18.73,0,0,0,3.2-2.94,56.52,56.52,0,0,1,7.35-6.12q4.48-3.22,29.89-18.2c17-10,19-11,23.72-15.11M5.12,61.05A6.13,6.13,0,0,0,6.26,65c.74,1,2.09,1.44,4.07,1.42L8,73.65c-4.18,0-6.27-2.34-6.27-7a37.71,37.71,0,0,1,2-10.13c1.14-3.21,2-4.79,2.78-4.74.41.07.41.7,0,1.89a29.32,29.32,0,0,0-1.42,7.36" fill="#4eabd8"/><rect x="46.83" y="63.75" width="12.12" height="1.71" fill="#4eabd8"/></g></svg>