<?xml version="1.0" encoding="utf-8"?>
<!-- Generator: Adobe Illustrator 22.0.1, SVG Export Plug-In . SVG Version: 6.00 Build 0)  -->
<svg version="1.1" id="Layer_1" xmlns="http://www.w3.org/2000/svg" xmlns:xlink="http://www.w3.org/1999/xlink" x="0px" y="0px"
	 viewBox="0 0 593.9 102" style="enable-background:new 0 0 593.9 102;" xml:space="preserve">
<style type="text/css">
	.st0{fill:#4EABD8;}
	.st1{fill:#D1B643;}
	.st2{fill:#595A5C;}
</style>
<title>semega logo</title>
<path class="st0" d="M558.1,12.3l-8-8c-4.4-4.4-11.6-4.4-16,0l-8,8l16,16L558.1,12.3z"/>
<path class="st0" d="M526.3,66.9c-8.8-8.8-8.8-23.1,0-31.8s23.1-8.8,31.8,0c8.8,8.8,8.8,23.1,0,31.8
	C549.3,75.7,535.1,75.7,526.3,66.9C526.3,66.9,526.3,66.9,526.3,66.9"/>
<path class="st1" d="M580.8,34.9V23.6c0-6.3-5.1-11.3-11.3-11.3h-11.3v22.7H580.8z"/>
<path class="st0" d="M580.9,66.9l8-8c4.4-4.4,4.4-11.6,0-16l-8-8l-16.1,16L580.9,66.9z"/>
<path class="st1" d="M558.3,89.6h11.4c6.3,0,11.3-5.1,11.3-11.4V66.9h-22.7V89.6z"/>
<path class="st0" d="M526.3,89.7l8,8c4.4,4.4,11.6,4.4,16.1,0l8-8l-16-16.1L526.3,89.7z"/>
<path class="st1" d="M503.6,67.1v11.4c0,6.3,5.1,11.3,11.3,11.3h11.3V67.1H503.6z"/>
<path class="st0" d="M503.5,35.1l-8,8c-4.4,4.4-4.4,11.6,0,16.1l8,8l16-16L503.5,35.1z"/>
<path class="st1" d="M526.1,12.4h-11.4c-6.3,0-11.3,5.1-11.3,11.4v11.3h22.7V12.4z"/>
<polygon class="st2" points="9.1,96 4.7,96 4.7,94.9 6.2,94.9 6.2,86.2 4.7,86.2 4.7,85 9.1,85 9.1,86.2 7.6,86.2 7.6,94.9 
	9.1,94.9 "/>
<path class="st2" d="M16.1,89.2L16.1,89.2h-0.7h-0.7c-0.4,0-0.9,0.1-1.3,0.3c-0.4,0.2-0.8,0.4-1.2,0.7V96H11v-8.2h1.4v1.2
	c0.5-0.4,1-0.7,1.5-0.9c0.4-0.2,0.9-0.3,1.4-0.3h0.5l0.5,0.1L16.1,89.2z"/>
<path class="st2" d="M21.7,94L21.7,94v-2.3l-1.5,0.1c-0.5,0-0.9,0.1-1.4,0.2c-0.4,0.1-0.7,0.3-1,0.5c-0.5,0.6-0.5,1.5,0,2
	c0.4,0.3,0.9,0.4,1.4,0.4c0.5,0,0.9-0.1,1.4-0.3C21,94.5,21.3,94.2,21.7,94 M23.1,96h-1.4v-0.9l-0.5,0.3c-0.2,0.1-0.4,0.3-0.6,0.4
	C20.3,96,20,96,19.8,96.1c-0.4,0.1-0.7,0.1-1.1,0.1c-0.7,0-1.4-0.2-1.9-0.7c-0.5-0.5-0.8-1.2-0.8-1.9c0-0.5,0.1-1.1,0.4-1.5
	c0.3-0.4,0.7-0.7,1.2-0.9c0.6-0.2,1.2-0.4,1.8-0.4c0.7-0.1,1.5-0.1,2.3-0.1v-0.2c0-0.3,0-0.5-0.2-0.8c-0.1-0.2-0.3-0.4-0.5-0.5
	c-0.2-0.1-0.5-0.2-0.7-0.2c-0.3,0-0.6,0-0.9,0c-0.4,0-0.8,0-1.3,0.1c-0.5,0.1-0.9,0.2-1.4,0.4h-0.1v-1.4c0.3-0.1,0.7-0.1,1.2-0.2
	c0.5-0.1,1-0.1,1.5-0.1c0.5,0,1,0,1.5,0.1c0.4,0.1,0.8,0.2,1.1,0.5c0.3,0.2,0.6,0.5,0.7,0.9c0.2,0.4,0.3,0.9,0.2,1.4L23.1,96z"/>
<path class="st2" d="M32.2,96h-1.4v-4.7c0-0.4,0-0.7,0-1.1c0-0.3-0.1-0.5-0.2-0.8c-0.1-0.2-0.3-0.4-0.5-0.5
	c-0.3-0.1-0.6-0.2-0.9-0.1c-0.4,0-0.8,0.1-1.2,0.3c-0.4,0.2-0.8,0.4-1.2,0.7V96h-1.4v-8.2h1.4v0.9c0.4-0.3,0.9-0.6,1.4-0.8
	c0.5-0.2,0.9-0.3,1.4-0.3c0.8-0.1,1.5,0.2,2.1,0.8c0.5,0.7,0.8,1.5,0.7,2.3L32.2,96z"/>
<path class="st2" d="M47.9,95.2l-0.7,0.3c-0.3,0.1-0.6,0.2-0.9,0.3c-0.3,0.1-0.7,0.2-1,0.2c-0.4,0.1-0.8,0.1-1.2,0.1
	c-0.7,0-1.5-0.1-2.2-0.3c-0.6-0.2-1.2-0.6-1.7-1c-0.5-0.5-0.9-1.1-1.1-1.8c-0.3-0.8-0.4-1.7-0.4-2.5c0-0.8,0.1-1.6,0.4-2.4
	c0.2-0.7,0.6-1.3,1.1-1.8c0.5-0.5,1.1-0.9,1.7-1.1c0.7-0.3,1.5-0.4,2.2-0.4c0.6,0,1.2,0.1,1.8,0.2c0.7,0.2,1.4,0.4,2,0.8v1.7h-0.1
	c-0.5-0.5-1.2-0.8-1.8-1.1c-0.6-0.2-1.3-0.4-2-0.4c-0.5,0-1,0.1-1.5,0.3c-0.5,0.2-0.9,0.5-1.2,0.8c-0.4,0.4-0.6,0.9-0.8,1.4
	c-0.2,0.6-0.3,1.3-0.3,1.9c0,0.7,0.1,1.4,0.3,2c0.2,0.5,0.5,1,0.8,1.4c0.3,0.4,0.8,0.6,1.2,0.8c0.5,0.2,1,0.3,1.5,0.3
	c0.7,0,1.4-0.1,2-0.4c0.7-0.2,1.2-0.6,1.8-1.1h0.1L47.9,95.2z"/>
<path class="st2" d="M56.2,96h-1.4v-0.9c-0.4,0.3-0.9,0.6-1.4,0.8c-0.5,0.2-0.9,0.3-1.4,0.3c-0.8,0-1.5-0.2-2.1-0.8
	c-0.5-0.6-0.8-1.5-0.7-2.3v-5.4h1.4v4.7c0,0.4,0,0.7,0,1.1c0,0.3,0.1,0.5,0.3,0.8c0.1,0.2,0.3,0.4,0.5,0.5c0.3,0.1,0.6,0.2,0.9,0.1
	c0.4,0,0.8-0.1,1.2-0.3c0.4-0.2,0.8-0.4,1.2-0.7v-6.1h1.4L56.2,96z"/>
<rect x="58.4" y="84.5" class="st2" width="1.4" height="11.4"/>
<path class="st2" d="M66.3,95.9c-0.3,0.1-0.6,0.1-0.9,0.2c-0.3,0-0.6,0-0.8,0c-0.7,0.1-1.4-0.2-2-0.7c-0.5-0.6-0.7-1.3-0.7-2.1v-4.4
	h-1v-1.2h1v-2.4h1.4v2.4h2.9v1.2h-2.9v3.7c0,0.4,0,0.8,0,1c0,0.2,0.1,0.5,0.2,0.7c0.1,0.2,0.3,0.3,0.4,0.4c0.3,0.1,0.6,0.2,0.9,0.1
	c0.2,0,0.5,0,0.7-0.1c0.2,0,0.4-0.1,0.5-0.2h0.1L66.3,95.9z"/>
<path class="st2" d="M74.4,96H73v-0.9c-0.4,0.3-0.9,0.6-1.4,0.8c-0.5,0.2-0.9,0.3-1.4,0.3c-0.8,0-1.5-0.2-2.1-0.8
	c-0.5-0.6-0.8-1.5-0.7-2.3v-5.4h1.4v4.7c0,0.4,0,0.7,0,1.1c0,0.3,0.1,0.5,0.3,0.8c0.1,0.2,0.3,0.4,0.5,0.5c0.3,0.1,0.6,0.2,0.9,0.1
	c0.4,0,0.8-0.1,1.2-0.3c0.4-0.2,0.8-0.4,1.2-0.7v-6.1h1.4L74.4,96z"/>
<path class="st2" d="M81.8,89.2L81.8,89.2h-0.7h-0.7c-0.4,0-0.9,0.1-1.3,0.3c-0.4,0.2-0.8,0.4-1.2,0.7V96h-1.4v-8.2h1.4v1.2
	c0.5-0.4,1-0.7,1.5-0.9c0.4-0.2,0.9-0.3,1.4-0.3h0.5l0.5,0.1L81.8,89.2z"/>
<path class="st2" d="M87.3,94L87.3,94v-2.3l-1.5,0.1c-0.5,0-0.9,0.1-1.4,0.2c-0.4,0.1-0.7,0.3-1,0.5c-0.3,0.3-0.4,0.6-0.4,1
	c0,0.4,0.1,0.8,0.4,1.1c0.4,0.3,0.9,0.4,1.4,0.4c0.4,0,0.9-0.1,1.3-0.3C86.6,94.5,86.9,94.3,87.3,94 M88.7,96h-1.4v-0.9l-0.5,0.3
	c-0.2,0.1-0.4,0.3-0.6,0.4c-0.3,0.1-0.5,0.2-0.8,0.3c-0.4,0.1-0.7,0.1-1.1,0.1c-0.7,0-1.4-0.2-1.9-0.7c-0.5-0.5-0.8-1.2-0.8-1.9
	c0-0.6,0.2-1.1,0.5-1.5c0.3-0.4,0.7-0.7,1.2-0.9c0.6-0.2,1.2-0.4,1.8-0.4c0.7-0.1,1.5-0.1,2.3-0.2v-0.2c0-0.3-0.1-0.5-0.2-0.8
	c-0.1-0.2-0.3-0.4-0.5-0.5c-0.2-0.1-0.5-0.2-0.7-0.2c-0.3,0-0.6,0-0.9,0c-0.4,0-0.8,0.1-1.2,0.1c-0.5,0.1-0.9,0.2-1.4,0.4h-0.2V88
	c0.3-0.1,0.7-0.1,1.2-0.2c0.5-0.1,1-0.1,1.5-0.1c0.5,0,1,0,1.5,0.1c0.4,0.1,0.8,0.2,1.1,0.5c0.3,0.2,0.6,0.5,0.7,0.9
	c0.2,0.4,0.3,0.9,0.2,1.4L88.7,96z"/>
<rect x="90.8" y="84.5" class="st2" width="1.4" height="11.4"/>
<polygon class="st2" points="107.9,96 106.4,96 106.4,90.6 100.8,90.6 100.8,96 99.3,96 99.3,85 100.8,85 100.8,89.3 106.4,89.3 
	106.4,85 107.9,85 "/>
<path class="st2" d="M115.8,91L115.8,91c0-0.6-0.2-1.2-0.6-1.7c-0.4-0.4-1.1-0.6-1.7-0.6c-0.7,0-1.3,0.2-1.8,0.7
	c-0.4,0.4-0.7,1-0.8,1.6L115.8,91z M117.2,92H111c0,0.5,0.1,0.9,0.2,1.4c0.1,0.4,0.4,0.7,0.6,0.9c0.3,0.2,0.6,0.4,0.9,0.5
	c0.4,0.1,0.8,0.2,1.2,0.2c0.6,0,1.2-0.1,1.7-0.3c0.4-0.1,0.9-0.4,1.2-0.7h0.1v1.5c-0.5,0.2-1,0.4-1.5,0.5c-0.5,0.1-1,0.2-1.6,0.2
	c-1.2,0.1-2.4-0.3-3.3-1.1c-0.8-0.8-1.3-2-1.2-3.1c-0.1-1.2,0.3-2.3,1.1-3.2c0.8-0.8,1.8-1.2,3-1.2c1-0.1,1.9,0.3,2.6,1
	c0.6,0.8,1,1.7,0.9,2.7L117.2,92z"/>
<path class="st2" d="M123.9,89.2L123.9,89.2h-0.7h-0.7c-0.4,0-0.9,0.1-1.3,0.3c-0.4,0.2-0.8,0.4-1.2,0.7V96h-1.4v-8.2h1.4v1.2
	c0.5-0.4,1-0.7,1.5-0.9c0.4-0.2,0.9-0.3,1.4-0.3h0.5L124,88L123.9,89.2z"/>
<path class="st2" d="M124.7,96h1.4v-8.2h-1.4V96z M124.6,86.5h1.6V85h-1.6L124.6,86.5z"/>
<path class="st2" d="M132.6,95.9c-0.3,0.1-0.6,0.1-0.9,0.2c-0.3,0-0.6,0-0.8,0c-0.7,0.1-1.4-0.2-2-0.7c-0.5-0.6-0.7-1.3-0.6-2.1
	v-4.4h-1v-1.2h1v-2.4h1.4v2.4h2.9v1.2h-2.9v3.7c0,0.4,0,0.8,0,1c0,0.2,0.1,0.5,0.2,0.7c0.1,0.2,0.3,0.3,0.4,0.4
	c0.3,0.1,0.6,0.2,0.9,0.1c0.2,0,0.5,0,0.7-0.1c0.2,0,0.4-0.1,0.5-0.2h0.1L132.6,95.9z"/>
<path class="st2" d="M138.8,94L138.8,94v-2.3l-1.5,0.1c-0.5,0-0.9,0.1-1.4,0.2c-0.4,0.1-0.7,0.3-1,0.5c-0.5,0.6-0.5,1.5,0,2
	c0.4,0.3,0.9,0.4,1.4,0.4c0.5,0,0.9-0.1,1.4-0.3C138.1,94.5,138.5,94.2,138.8,94 M140.2,96h-1.4v-0.9l-0.5,0.3
	c-0.2,0.1-0.4,0.3-0.6,0.4c-0.3,0.1-0.5,0.2-0.8,0.3c-0.4,0.1-0.7,0.1-1.1,0.1c-0.7,0-1.4-0.2-1.9-0.7c-0.5-0.5-0.8-1.2-0.8-1.9
	c0-0.5,0.1-1.1,0.4-1.5c0.3-0.4,0.7-0.7,1.2-0.9c0.6-0.2,1.2-0.4,1.8-0.4c0.7-0.1,1.5-0.1,2.3-0.2v-0.2c0-0.3-0.1-0.5-0.2-0.8
	c-0.1-0.2-0.3-0.4-0.5-0.5c-0.2-0.1-0.5-0.2-0.7-0.2c-0.3,0-0.6,0-0.9,0c-0.4,0-0.8,0-1.2,0.1c-0.5,0.1-0.9,0.2-1.4,0.4h-0.1V88
	c0.3-0.1,0.7-0.1,1.2-0.2c0.5-0.1,1-0.1,1.5-0.1c0.5,0,1,0,1.5,0.1c0.4,0.1,0.8,0.3,1.1,0.5c0.3,0.2,0.6,0.5,0.7,0.9
	c0.2,0.4,0.3,0.9,0.2,1.4L140.2,96z"/>
<path class="st2" d="M147.7,93.7L147.7,93.7v-4.5c-0.3-0.1-0.7-0.3-1-0.4c-0.3-0.1-0.6-0.1-1-0.1c-0.7,0-1.4,0.2-1.8,0.8
	c-0.5,0.6-0.7,1.4-0.7,2.2c0,0.7,0.1,1.5,0.5,2.1c0.4,0.5,1,0.8,1.6,0.7c0.4,0,0.8-0.1,1.2-0.2C147,94.2,147.4,94,147.7,93.7
	 M149.1,95.1c0.1,1.1-0.3,2.2-1,3.1c-0.8,0.7-1.9,1.1-3,1c-0.5,0-0.9,0-1.4-0.1c-0.4-0.1-0.8-0.1-1.3-0.3v-1.3h0.1
	c0.4,0.1,0.7,0.2,1.1,0.3c0.5,0.1,1,0.2,1.5,0.2c0.4,0,0.8,0,1.2-0.2c0.5-0.2,1-0.6,1.1-1.2c0.1-0.3,0.1-0.6,0.1-0.9v-0.7
	c-0.4,0.3-0.8,0.6-1.2,0.7c-0.5,0.2-1,0.3-1.5,0.2c-0.9,0-1.8-0.4-2.4-1.1c-0.6-0.9-1-1.9-0.9-3c0-0.6,0.1-1.2,0.3-1.8
	c0.2-0.5,0.5-1,0.8-1.4c0.3-0.4,0.7-0.6,1.2-0.8c0.4-0.2,0.9-0.3,1.4-0.3c0.4,0,0.8,0,1.2,0.1c0.4,0.1,0.7,0.3,1,0.4l0.1-0.4h1.4
	L149.1,95.1z"/>
<path class="st2" d="M156.9,91L156.9,91c0-0.6-0.2-1.2-0.6-1.7c-0.4-0.4-1.1-0.6-1.7-0.6c-0.7,0-1.3,0.2-1.8,0.7
	c-0.4,0.4-0.7,1-0.8,1.6H156.9z M158.3,92h-6.2c0,0.5,0.1,0.9,0.2,1.4c0.1,0.4,0.4,0.7,0.6,0.9c0.3,0.2,0.6,0.4,0.9,0.5
	c0.4,0.1,0.8,0.2,1.2,0.2c0.6,0,1.2-0.1,1.7-0.3c0.4-0.1,0.9-0.4,1.2-0.7h0.1v1.5c-0.5,0.2-1,0.4-1.5,0.5c-0.5,0.1-1,0.2-1.6,0.2
	c-1.2,0.1-2.4-0.3-3.3-1.1c-0.8-0.8-1.2-2-1.2-3.1c-0.1-1.2,0.3-2.3,1.1-3.2c0.8-0.8,1.8-1.2,3-1.2c1-0.1,1.9,0.3,2.6,1
	c0.6,0.8,1,1.7,0.9,2.7V92z"/>
<path class="st2" d="M169.7,94L169.7,94v-2.3l-1.5,0.1c-0.5,0-0.9,0.1-1.4,0.2c-0.4,0.1-0.7,0.3-1,0.5c-0.3,0.3-0.4,0.6-0.4,1
	c0,0.4,0.1,0.8,0.4,1.1c0.4,0.3,0.9,0.4,1.4,0.4c0.5,0,0.9-0.1,1.4-0.3C169.1,94.5,169.4,94.2,169.7,94 M171.2,96h-1.4v-0.9
	l-0.5,0.3c-0.2,0.1-0.4,0.3-0.6,0.4c-0.3,0.1-0.6,0.2-0.9,0.2c-0.4,0.1-0.7,0.1-1.1,0.1c-0.7,0-1.4-0.2-1.9-0.7
	c-0.5-0.5-0.8-1.2-0.8-1.9c0-0.5,0.1-1.1,0.4-1.5c0.3-0.4,0.7-0.7,1.2-0.9c0.6-0.2,1.2-0.4,1.8-0.4c0.7-0.1,1.5-0.1,2.3-0.2v-0.2
	c0-0.3-0.1-0.5-0.2-0.8c-0.1-0.2-0.3-0.4-0.5-0.5c-0.2-0.1-0.5-0.2-0.7-0.2c-0.3,0-0.6,0-0.9,0c-0.4,0-0.8,0.1-1.2,0.1
	c-0.5,0.1-0.9,0.2-1.4,0.4h-0.1V88c0.3-0.1,0.7-0.1,1.2-0.2c0.5-0.1,1-0.1,1.5-0.1c0.5,0,1,0,1.5,0.1c0.4,0.1,0.8,0.2,1.1,0.5
	c0.3,0.2,0.6,0.5,0.7,0.9c0.2,0.4,0.3,0.9,0.3,1.4L171.2,96z"/>
<path class="st2" d="M180.3,96h-1.4v-4.7c0-0.4,0-0.7,0-1.1c0-0.3-0.1-0.5-0.2-0.8c-0.1-0.2-0.3-0.4-0.5-0.5
	c-0.3-0.1-0.6-0.2-0.9-0.1c-0.4,0-0.8,0.1-1.2,0.3c-0.4,0.2-0.8,0.4-1.2,0.7V96h-1.4v-8.2h1.4v0.9c0.4-0.3,0.9-0.6,1.4-0.8
	c0.5-0.2,1-0.3,1.5-0.3c0.8-0.1,1.5,0.2,2.1,0.8c0.5,0.7,0.8,1.5,0.7,2.3L180.3,96z"/>
<path class="st2" d="M187.8,94L187.8,94v-4.7c-0.3-0.1-0.7-0.3-1-0.3c-0.3-0.1-0.7-0.1-1-0.1c-0.7,0-1.4,0.3-1.8,0.8
	c-0.5,0.7-0.7,1.5-0.7,2.3c0,0.8,0.1,1.5,0.5,2.2c0.4,0.5,1,0.8,1.6,0.8c0.4,0,0.8-0.1,1.2-0.3C187,94.5,187.4,94.2,187.8,94
	 M189.1,96h-1.4v-0.9c-0.4,0.3-0.8,0.6-1.3,0.8c-0.5,0.2-0.9,0.3-1.4,0.3c-0.9,0-1.8-0.4-2.4-1.1c-0.6-0.9-1-2-0.9-3.1
	c0-0.6,0.1-1.3,0.3-1.9c0.2-0.5,0.5-1,0.8-1.4c0.3-0.4,0.7-0.6,1.2-0.8c0.4-0.2,0.9-0.3,1.4-0.3c0.4,0,0.8,0,1.2,0.1
	c0.4,0.1,0.7,0.2,1.1,0.4v-3.6h1.4L189.1,96z"/>
<polygon class="st2" points="204,86.3 200.1,86.3 200.1,96 198.7,96 198.7,86.3 194.7,86.3 194.7,85 204,85 "/>
<path class="st2" d="M208.7,91.9L208.7,91.9c0.1-0.8-0.2-1.7-0.6-2.4c-0.9-1-2.3-1-3.3-0.2c-0.1,0.1-0.1,0.1-0.2,0.2
	c-0.5,0.7-0.7,1.5-0.6,2.4c-0.1,0.8,0.2,1.7,0.6,2.3c0.8,1,2.3,1.1,3.2,0.2c0.1-0.1,0.2-0.2,0.2-0.2
	C208.5,93.5,208.7,92.7,208.7,91.9 M210,91.9c0.1,1.1-0.3,2.3-1,3.2c-1.5,1.5-3.9,1.5-5.5,0c0,0,0,0,0,0c-1.4-1.9-1.4-4.5,0-6.4
	c1.5-1.5,3.9-1.6,5.4-0.1c0,0,0,0,0.1,0.1C209.7,89.6,210.1,90.7,210,91.9"/>
<path class="st2" d="M218.4,96h-1.4v-0.9c-0.4,0.3-0.9,0.6-1.4,0.8c-0.4,0.2-0.9,0.3-1.4,0.3c-0.8,0-1.5-0.2-2-0.8
	c-0.5-0.7-0.8-1.5-0.7-2.3v-5.4h1.4v4.7c0,0.4,0,0.7,0,1.1c0,0.3,0.1,0.5,0.2,0.8c0.1,0.2,0.3,0.4,0.5,0.5c0.3,0.1,0.6,0.2,0.9,0.1
	c0.4,0,0.8-0.1,1.2-0.3c0.4-0.2,0.8-0.4,1.2-0.7v-6.1h1.4L218.4,96z"/>
<path class="st2" d="M225.7,89.2L225.7,89.2h-0.7h-0.7c-0.4,0-0.8,0.1-1.2,0.3c-0.4,0.2-0.8,0.4-1.1,0.7V96h-1.4v-8.2h1.4v1.2
	c0.4-0.4,0.9-0.7,1.4-0.9c0.4-0.2,0.8-0.3,1.3-0.3h0.5l0.5,0.1L225.7,89.2z"/>
<path class="st2" d="M226.3,96h1.4v-8.2h-1.4V96z M226.2,86.5h1.6V85h-1.5L226.2,86.5z"/>
<path class="st2" d="M235.7,93.6c0,0.7-0.3,1.4-0.9,1.9c-0.7,0.5-1.6,0.8-2.5,0.7c-0.6,0-1.1-0.1-1.7-0.2c-0.4-0.1-0.9-0.3-1.3-0.5
	V94h0.1c0.4,0.3,0.9,0.6,1.5,0.8c0.5,0.2,1,0.3,1.5,0.3c0.5,0,0.9-0.1,1.4-0.3c0.3-0.2,0.5-0.5,0.5-0.9c0-0.3-0.1-0.5-0.3-0.7
	c-0.3-0.2-0.7-0.4-1.1-0.4l-0.8-0.1l-0.9-0.2c-0.6-0.1-1.1-0.4-1.5-0.8c-0.3-0.4-0.5-0.9-0.4-1.4c0-0.3,0.1-0.7,0.2-1
	c0.1-0.3,0.4-0.6,0.6-0.8c0.3-0.2,0.7-0.4,1-0.5c0.4-0.1,0.9-0.2,1.4-0.2c0.5,0,1,0.1,1.5,0.2c0.4,0.1,0.9,0.2,1.3,0.4v1.5h-0.1
	c-0.4-0.3-0.8-0.5-1.3-0.7c-0.5-0.2-1-0.3-1.5-0.3c-0.4,0-0.9,0.1-1.3,0.3c-0.5,0.3-0.7,0.9-0.4,1.4c0.1,0.1,0.1,0.2,0.2,0.2
	c0.3,0.2,0.6,0.4,1,0.4l0.9,0.2l0.8,0.2c0.6,0.1,1.1,0.4,1.5,0.8C235.5,92.6,235.7,93.1,235.7,93.6"/>
<path class="st2" d="M249.1,96h-1.4v-4.7c0-0.3,0-0.7,0-1c0-0.3-0.1-0.5-0.2-0.8c-0.1-0.2-0.3-0.4-0.5-0.5c-0.3-0.1-0.6-0.2-0.9-0.2
	c-0.4,0-0.8,0.1-1.2,0.3c-0.4,0.2-0.8,0.5-1.2,0.7v0.4c0,0.1,0,0.3,0,0.4V96h-1.4v-4.7c0-0.4,0-0.7,0-1c0-0.3-0.1-0.5-0.2-0.8
	c-0.1-0.2-0.3-0.4-0.5-0.5c-0.3-0.1-0.6-0.2-0.9-0.2c-0.4,0-0.8,0.1-1.1,0.3c-0.4,0.2-0.8,0.4-1.1,0.7V96h-1.4v-8.2h1.4v0.9
	c0.4-0.3,0.8-0.6,1.3-0.8c0.4-0.2,0.9-0.3,1.4-0.3c0.5,0,0.9,0.1,1.4,0.4c0.4,0.2,0.7,0.6,0.9,1c0.5-0.4,1-0.8,1.5-1
	c0.5-0.2,1-0.3,1.5-0.3c0.8-0.1,1.5,0.2,2,0.8c0.5,0.7,0.7,1.5,0.6,2.3V96z"/>
<polygon class="st2" points="259.7,96 255.4,96 255.4,94.9 256.8,94.9 256.8,86.2 255.4,86.2 255.4,85 259.7,85 259.7,86.2 
	258.3,86.2 258.3,94.9 259.7,94.9 "/>
<path class="st2" d="M268.3,96H267v-4.7c0-0.4,0-0.7,0-1.1c0-0.3-0.1-0.5-0.2-0.8c-0.1-0.2-0.3-0.4-0.5-0.5
	c-0.3-0.1-0.6-0.2-0.9-0.1c-0.4,0-0.8,0.1-1.2,0.3c-0.4,0.2-0.8,0.4-1.2,0.7V96h-1.4v-8.2h1.4v0.9c0.4-0.3,0.9-0.6,1.4-0.8
	c0.4-0.2,0.9-0.3,1.4-0.3c0.8-0.1,1.5,0.2,2,0.8c0.5,0.7,0.8,1.5,0.7,2.3L268.3,96z"/>
<polygon class="st2" points="277.3,87.8 274,96 272.6,96 269.3,87.8 270.8,87.8 273.4,94.3 275.9,87.8 "/>
<path class="st2" d="M283.9,91L283.9,91c0-0.6-0.2-1.2-0.5-1.7c-0.4-0.4-1-0.6-1.6-0.6c-0.7,0-1.3,0.2-1.8,0.7
	c-0.4,0.4-0.7,1-0.7,1.6H283.9z M285.3,92h-6c0,0.5,0.1,0.9,0.2,1.4c0.1,0.4,0.3,0.7,0.6,0.9c0.3,0.2,0.6,0.4,0.9,0.5
	c0.4,0.1,0.8,0.2,1.2,0.2c0.6,0,1.2-0.1,1.7-0.3c0.4-0.1,0.8-0.4,1.2-0.7h0.1v1.5c-0.4,0.2-0.9,0.4-1.4,0.5c-0.5,0.1-1,0.2-1.5,0.2
	c-1.2,0.1-2.3-0.3-3.2-1.1c-0.8-0.8-1.2-2-1.1-3.1c-0.1-1.2,0.3-2.3,1.1-3.2c0.7-0.8,1.8-1.2,2.9-1.2c1-0.1,1.9,0.3,2.6,1
	c0.6,0.8,1,1.7,0.9,2.7L285.3,92z"/>
<path class="st2" d="M292.6,93.6c0,0.7-0.3,1.4-0.9,1.9c-0.7,0.5-1.6,0.8-2.5,0.7c-0.6,0-1.1-0.1-1.7-0.2c-0.4-0.1-0.9-0.3-1.3-0.5
	V94h0c0.4,0.3,0.9,0.6,1.5,0.8c0.5,0.2,1,0.3,1.5,0.3c0.5,0,0.9-0.1,1.4-0.3c0.3-0.2,0.5-0.5,0.5-0.9c0-0.3-0.1-0.5-0.3-0.7
	c-0.3-0.2-0.7-0.4-1.1-0.4l-0.8-0.1l-0.9-0.2c-0.6-0.1-1.1-0.4-1.5-0.8c-0.3-0.4-0.5-0.9-0.4-1.4c0-0.3,0.1-0.7,0.2-1
	c0.2-0.3,0.4-0.6,0.6-0.8c0.3-0.2,0.7-0.4,1-0.5c0.4-0.1,0.9-0.2,1.4-0.2c0.5,0,1,0.1,1.5,0.2c0.4,0.1,0.9,0.2,1.3,0.4v1.5H292
	c-0.4-0.3-0.8-0.5-1.3-0.7c-0.5-0.2-1-0.3-1.5-0.3c-0.4,0-0.9,0.1-1.3,0.3c-0.5,0.3-0.7,0.9-0.4,1.4c0.1,0.1,0.1,0.2,0.2,0.2
	c0.3,0.2,0.6,0.4,1,0.4l0.9,0.2l0.8,0.2c0.6,0.1,1.1,0.4,1.5,0.8c0.4,0.4,0.6,0.9,0.5,1.4"/>
<path class="st2" d="M298.2,95.9c-0.3,0.1-0.6,0.1-0.8,0.2c-0.3,0-0.5,0-0.8,0c-0.7,0.1-1.4-0.2-1.9-0.7c-0.5-0.6-0.7-1.4-0.7-2.2
	v-4.3h-1v-1.2h0.9v-2.4h1.4v2.4h2.8v1.2h-2.8v3.7c0,0.4,0,0.8,0,1c0,0.2,0.1,0.5,0.2,0.7c0.1,0.2,0.3,0.3,0.4,0.4
	c0.3,0.1,0.6,0.1,0.9,0.1c0.2,0,0.5,0,0.7-0.1c0.2,0,0.4-0.1,0.5-0.2h0.1L298.2,95.9z"/>
<path class="st2" d="M311.2,96h-1.4v-4.7c0-0.4,0-0.7,0-1c0-0.3-0.1-0.5-0.2-0.8c-0.1-0.2-0.3-0.4-0.5-0.5c-0.3-0.1-0.6-0.2-0.9-0.2
	c-0.4,0-0.8,0.1-1.2,0.3c-0.4,0.2-0.8,0.5-1.2,0.7c0,0.1,0,0.2,0,0.4c0,0.1,0,0.3,0,0.4V96h-1.4v-4.7c0-0.3,0-0.7,0-1
	c0-0.3-0.1-0.5-0.2-0.8c-0.1-0.2-0.3-0.4-0.5-0.5c-0.3-0.1-0.6-0.2-0.9-0.2c-0.4,0-0.8,0.1-1.1,0.3c-0.4,0.2-0.8,0.4-1.1,0.7V96
	h-1.4v-8.2h1.4v0.9c0.4-0.3,0.8-0.6,1.3-0.8c0.4-0.2,0.9-0.3,1.4-0.3c0.5,0,0.9,0.1,1.4,0.4c0.4,0.2,0.7,0.6,0.9,1
	c0.5-0.4,1-0.8,1.5-1c0.5-0.2,1-0.3,1.5-0.3c0.8-0.1,1.5,0.2,2,0.8c0.4,0.6,0.6,1.4,0.6,2.1V96z"/>
<path class="st2" d="M318.8,91L318.8,91c0-0.6-0.2-1.2-0.5-1.7c-0.4-0.4-1-0.6-1.6-0.6c-0.7,0-1.3,0.2-1.8,0.7
	c-0.4,0.4-0.7,1-0.7,1.6H318.8z M320.2,92h-6c0,0.5,0.1,0.9,0.2,1.4c0.1,0.4,0.3,0.7,0.6,0.9c0.3,0.2,0.6,0.4,0.9,0.5
	c0.4,0.1,0.8,0.2,1.2,0.2c0.6,0,1.2-0.1,1.7-0.3c0.4-0.1,0.8-0.4,1.2-0.7h0.1v1.5c-0.4,0.2-0.9,0.4-1.4,0.5c-0.5,0.1-1,0.2-1.5,0.2
	c-1.2,0.1-2.3-0.3-3.2-1.1c-0.8-0.8-1.2-2-1.1-3.1c-0.1-1.2,0.3-2.3,1.1-3.2c0.7-0.8,1.8-1.2,2.9-1.2c1-0.1,1.9,0.3,2.6,1
	c0.6,0.8,1,1.7,0.9,2.7L320.2,92z"/>
<path class="st2" d="M328.5,96h-1.4v-4.7c0-0.4,0-0.7,0-1.1c0-0.3-0.1-0.5-0.2-0.8c-0.1-0.2-0.3-0.4-0.5-0.5
	c-0.3-0.1-0.6-0.2-0.9-0.1c-0.4,0-0.8,0.1-1.2,0.3c-0.4,0.2-0.8,0.4-1.2,0.7V96h-1.4v-8.2h1.4v0.9c0.4-0.3,0.9-0.6,1.4-0.8
	c0.4-0.2,0.9-0.3,1.4-0.3c0.8-0.1,1.5,0.2,2,0.8c0.5,0.7,0.8,1.5,0.7,2.3L328.5,96z"/>
<path class="st2" d="M334.8,95.9c-0.3,0.1-0.6,0.1-0.8,0.2c-0.3,0-0.5,0-0.8,0c-0.7,0-1.4-0.2-1.9-0.7c-0.5-0.6-0.7-1.3-0.7-2.1
	v-4.4h-0.9v-1.2h0.9v-2.4h1.4v2.4h2.8v1.2h-2.8v3.7c0,0.4,0,0.8,0,1c0,0.2,0.1,0.5,0.2,0.7c0.1,0.2,0.3,0.3,0.4,0.4
	c0.3,0.1,0.6,0.2,0.9,0.1c0.2,0,0.5,0,0.7-0.1c0.2,0,0.4-0.1,0.5-0.2h0.1L334.8,95.9z"/>
<path class="st2" d="M349.7,95.2c-0.6,0.3-1.3,0.5-1.9,0.7c-0.7,0.2-1.4,0.3-2.1,0.3c-0.8,0-1.6-0.1-2.3-0.4
	c-0.7-0.2-1.3-0.6-1.8-1.1c-0.5-0.5-0.9-1.1-1.2-1.8c-0.3-0.8-0.4-1.7-0.4-2.5c-0.1-1.5,0.5-3,1.5-4.1c1.1-1.1,2.7-1.6,4.2-1.5
	c0.6,0,1.3,0.1,1.9,0.2c0.7,0.2,1.4,0.4,2.1,0.8v1.7h-0.1c-0.1-0.1-0.4-0.3-0.7-0.5c-0.3-0.2-0.6-0.3-0.8-0.5
	c-0.4-0.2-0.8-0.3-1.2-0.4c-0.5-0.1-1-0.2-1.5-0.1c-1.1,0-2.2,0.4-2.9,1.2c-1.4,1.9-1.4,4.6,0,6.5c0.8,0.8,1.9,1.2,3,1.2
	c0.5,0,0.9-0.1,1.4-0.1c0.4-0.1,0.8-0.2,1.2-0.4v-2.7h-2.9v-1.3h4.4L349.7,95.2z"/>
<path class="st2" d="M356.7,89.2L356.7,89.2H356h-0.7c-0.4,0-0.9,0.1-1.2,0.3c-0.4,0.2-0.8,0.4-1.1,0.7V96h-1.4v-8.2h1.4v1.2
	c0.4-0.4,0.9-0.7,1.5-0.9c0.4-0.2,0.8-0.3,1.3-0.3h0.5l0.5,0.1L356.7,89.2z"/>
<path class="st2" d="M362.9,91.9L362.9,91.9c0.1-0.8-0.2-1.7-0.6-2.4c-0.9-1-2.3-1-3.3-0.2c-0.1,0.1-0.1,0.1-0.2,0.2
	c-0.8,1.5-0.8,3.3,0,4.7c0.8,1,2.3,1.1,3.2,0.2c0.1-0.1,0.2-0.1,0.2-0.2C362.7,93.6,363,92.7,362.9,91.9 M364.3,91.9
	c0.1,1.1-0.3,2.3-1,3.2c-1.5,1.5-3.9,1.5-5.5,0c0,0,0,0,0,0c-1.4-1.9-1.4-4.5,0-6.4c1.5-1.5,3.9-1.6,5.4-0.1c0,0,0,0,0.1,0.1
	C364,89.6,364.3,90.7,364.3,91.9"/>
<path class="st2" d="M372.7,96h-1.4v-0.9c-0.4,0.3-0.9,0.6-1.4,0.8c-0.4,0.2-0.9,0.3-1.4,0.3c-0.8,0-1.5-0.2-2-0.8
	c-0.5-0.7-0.8-1.5-0.7-2.3v-5.4h1.4v4.7c0,0.4,0,0.7,0,1.1c0,0.3,0.1,0.5,0.2,0.8c0.1,0.2,0.3,0.4,0.5,0.5c0.3,0.1,0.6,0.2,0.9,0.1
	c0.4,0,0.8-0.1,1.2-0.3c0.4-0.2,0.8-0.4,1.2-0.7v-6.1h1.4L372.7,96z"/>
<path class="st2" d="M380.5,91.8L380.5,91.8c0.1-0.8-0.1-1.5-0.5-2.2c-0.4-0.5-1-0.8-1.6-0.7c-0.4,0-0.8,0.1-1.2,0.3
	c-0.4,0.2-0.8,0.4-1.2,0.7v4.7c0.3,0.1,0.7,0.3,1,0.4c0.3,0.1,0.6,0.1,1,0.1c0.7,0,1.4-0.2,1.8-0.8
	C380.4,93.5,380.6,92.7,380.5,91.8 M381.9,91.8c0,0.6-0.1,1.2-0.3,1.8c-0.2,0.5-0.4,1-0.8,1.4c-0.6,0.7-1.6,1.1-2.5,1.1
	c-0.4,0-0.8,0-1.2-0.1c-0.4-0.1-0.7-0.3-1.1-0.4V99h-1.4V87.8h1.4v0.9c0.4-0.3,0.8-0.6,1.3-0.8c0.5-0.2,1-0.3,1.5-0.3
	c0.9,0,1.8,0.4,2.3,1.1C381.7,89.6,382,90.7,381.9,91.8"/>
<path class="st2" d="M396.7,95.2l-0.7,0.3c-0.3,0.1-0.6,0.2-0.9,0.3c-0.3,0.1-0.6,0.2-1,0.2c-0.4,0.1-0.8,0.1-1.2,0.1
	c-0.7,0-1.5-0.1-2.2-0.3c-0.6-0.2-1.2-0.6-1.7-1c-0.5-0.5-0.9-1.1-1.1-1.8c-0.3-0.8-0.4-1.7-0.4-2.5c0-0.8,0.1-1.6,0.4-2.4
	c0.2-0.7,0.6-1.3,1.1-1.8c0.5-0.5,1.1-0.9,1.7-1.1c0.7-0.3,1.4-0.4,2.2-0.4c0.6,0,1.2,0.1,1.8,0.2c0.7,0.2,1.3,0.4,1.9,0.8v1.7h-0.1
	c-0.5-0.5-1.1-0.8-1.8-1.1c-0.6-0.2-1.3-0.4-1.9-0.4c-0.5,0-1,0.1-1.5,0.3c-0.5,0.2-0.9,0.5-1.2,0.8c-0.4,0.4-0.6,0.9-0.8,1.4
	c-0.2,0.6-0.3,1.3-0.3,1.9c0,0.7,0.1,1.3,0.3,2c0.2,0.5,0.4,1,0.8,1.4c0.3,0.4,0.7,0.6,1.2,0.8c0.5,0.2,1,0.3,1.5,0.3
	c0.7,0,1.3-0.1,2-0.4c0.6-0.3,1.2-0.6,1.7-1.1h0.1L396.7,95.2z"/>
<path class="st2" d="M403.6,91.9L403.6,91.9c0.1-0.8-0.2-1.7-0.6-2.4c-0.9-1-2.3-1-3.3-0.2c-0.1,0.1-0.1,0.1-0.2,0.2
	c-0.8,1.5-0.8,3.3,0,4.7c0.8,1,2.3,1.1,3.2,0.2c0.1-0.1,0.2-0.1,0.2-0.2C403.5,93.6,403.7,92.7,403.6,91.9 M405,91.9
	c0.1,1.1-0.3,2.3-1,3.2c-1.5,1.5-3.9,1.5-5.5,0c0,0,0,0,0,0c-1.4-1.9-1.4-4.5,0-6.4c1.5-1.5,3.9-1.6,5.4-0.1c0,0,0,0,0.1,0.1
	C404.7,89.6,405.1,90.7,405,91.9"/>
<rect x="406.9" y="93.9" class="st2" width="1.8" height="2.1"/>
<path class="st2" d="M425,92.6c0,1-0.5,2-1.4,2.6c-1.1,0.7-2.5,1.1-3.8,1c-0.8,0-1.6-0.1-2.4-0.2c-0.7-0.2-1.3-0.4-1.9-0.6v-2.6h0.3
	c0.6,0.5,1.3,0.8,2,1.1c0.7,0.2,1.4,0.4,2.1,0.4h0.7c0.2,0,0.5-0.1,0.7-0.1c0.2-0.1,0.4-0.2,0.5-0.3c0.2-0.2,0.2-0.4,0.2-0.6
	c0-0.2-0.1-0.5-0.3-0.6c-0.3-0.2-0.6-0.3-0.9-0.4l-1.4-0.3c-0.5-0.1-0.9-0.2-1.4-0.3c-0.8-0.2-1.5-0.6-2-1.2c-1-1.3-0.8-3.3,0.6-4.3
	c0.1,0,0.1-0.1,0.2-0.1c1.1-0.7,2.3-1,3.6-1c0.7,0,1.5,0.1,2.2,0.2c0.6,0.1,1.3,0.3,1.9,0.5v2.5h-0.3c-0.5-0.4-1.1-0.7-1.7-0.9
	c-0.6-0.2-1.3-0.4-2-0.4c-0.2,0-0.5,0-0.7,0c-0.2,0-0.5,0.1-0.7,0.2c-0.2,0.1-0.4,0.2-0.5,0.3c-0.1,0.1-0.2,0.3-0.2,0.5
	c0,0.3,0.1,0.5,0.3,0.7c0.4,0.2,0.8,0.4,1.3,0.4l1.2,0.2c0.4,0.1,0.8,0.2,1.2,0.3c0.7,0.2,1.4,0.6,1.9,1.1
	C424.8,91.2,425,91.9,425,92.6"/>
<polygon class="st2" points="434.4,96 426.3,96 426.3,85 434.4,85 434.4,87.2 429.2,87.2 429.2,89.1 434.1,89.1 434.1,91.2 
	429.2,91.2 429.2,93.9 434.4,93.9 "/>
<polygon class="st2" points="447.9,96 445.1,96 445.1,88.7 443,93.4 441,93.4 438.9,88.7 438.9,96 436.2,96 436.2,85 439.6,85 
	442.1,90.5 444.6,85 447.9,85 "/>
<polygon class="st2" points="458.3,96 450.2,96 450.2,85 458.3,85 458.3,87.2 453,87.2 453,89.1 457.9,89.1 457.9,91.2 453,91.2 
	453,93.9 458.3,93.9 "/>
<path class="st2" d="M470,95.4c-0.6,0.2-1.3,0.4-2,0.6c-0.8,0.2-1.6,0.3-2.5,0.3c-1.6,0.1-3.2-0.5-4.5-1.6c-2.2-2.3-2.2-6,0-8.3
	c1.2-1.1,2.9-1.7,4.5-1.6c0.7,0,1.4,0.1,2.1,0.2c0.8,0.2,1.5,0.4,2.2,0.8v2.6h-0.3l-0.6-0.4c-0.2-0.2-0.5-0.3-0.8-0.5
	c-0.3-0.2-0.7-0.3-1-0.4c-0.4-0.1-0.8-0.2-1.2-0.2c-0.5,0-0.9,0.1-1.4,0.2c-0.4,0.1-0.8,0.4-1.1,0.7c-0.3,0.3-0.6,0.7-0.7,1.1
	c-0.2,0.5-0.3,1-0.3,1.6c-0.1,1,0.3,2,1,2.7c0.8,0.7,1.8,1,2.9,1h0.4h0.4V92h-2.2v-2h5.2L470,95.4z"/>
<path class="st2" d="M477.8,91.8L477.8,91.8l-1.4-3.9l-1.4,3.9H477.8z M482.3,96h-3l-0.8-2.2h-4.1l-0.8,2.2h-2.9l4.1-10.9h3.3
	L482.3,96z"/>
<path class="st0" d="M92.4,48.5L92.4,48.5c0.5,0.4,0.8,0.9,0.8,1.5c0,0.2,0,0.4,0,0.6c0,0.7-0.3,1.5-0.7,2c-1,1.4-1.7,2-2.1,2.1
	c-0.2-0.1-0.4-0.2-0.5-0.3c-0.9-0.6-1.4-1-1.4-1c-0.3-0.2-0.7-0.4-1-0.6c-0.3-0.2-0.6-0.5-0.7-0.8l1.4-3c0.4-0.8,0.8-1.3,1.1-1.8
	l0.4-0.5c0.4,0.2,0.9,0.4,1.3,0.6C91.6,47.9,92,48.2,92.4,48.5 M101.8,46.6l0.3-2.9l0.3-2c0.1-0.3,0-0.6-0.2-0.8
	c-0.3,0.4-0.6,0.8-0.8,1.2l-1.2,2.3c-0.6,1.3-0.9,2.7-1,4.1l-0.1,4.3c0,1.7-0.5,3.3-1.4,4.7c-2.5,4.1-7,6.6-11.8,6.5
	c-4.6,0-7-2-7-6.1c0.1-1.8,0.6-3.6,1.4-5.2l2-4.2c0-0.3,0.2-0.6,0.3-1c0.1-0.4,0-0.6,0-0.6c0-0.1-0.5,0.3-0.9,0.9
	c-3.4,5.6-5.1,10.4-5.1,14.3c-0.1,2.2,0.6,4.3,2,5.9c1.5,1.6,3.6,2.4,5.8,2.3c2.1,0,4.2-0.5,6-1.4c4.5-2.4,7.8-6.5,9.8-12.3
	c0.2-0.7,0.5-1.8,0.9-3.4C101.5,51,101.8,48.8,101.8,46.6"/>
<path class="st0" d="M103.4,53.7l-0.7,1.8l-0.4,3.7c-0.5,3.4-1.3,6.8-2.4,10.1l0.2,0.4c0.5,0,1.2-0.8,2-2.5l1.4-2.8
	c0.7-1.7,1.2-3.5,1.4-5.3l0.7-5.2l0.4-3.3l0.3-2c0-0.2-0.1-0.3-0.2-0.5c-0.2,0.2-0.2,0.3-0.3,0.3c-0.2,0.3-0.4,0.6-0.5,0.9
	L103.4,53.7z"/>
<path class="st0" d="M123.2,51.3c-0.4,0.4-0.8,0.8-1.1,1.2c-0.5,0.7-1,1.3-1.7,1.8c-0.8,0.5-1.6,0.9-2.5,1.3c-0.9,0.5-1.7,1.2-2.3,2
	c-0.5,0.9-1,1.8-1.3,2.7c-0.4,1.1-0.9,2.1-1.4,3c-0.7,0.8-1.5,1.5-2.4,2.1c-0.2,0.2-0.7,0.5-1.4,0.9l-2.1,1.3
	c-1.5,1-2.3,1.6-2.2,1.9c0.2,0.3,0.6,0.4,1,0.4c0.4,0,0.8,0,1.4-0.1c1.2-0.1,2.4-0.4,3.5-0.8c1.2-0.6,2.2-1.5,2.9-2.7
	c0.5-1.3,1.1-2.6,1.6-3.9c0.5-1.3,1.5-2.3,2.7-3l2.3-1.1c1.3-0.6,2.4-2.6,3.3-5.9c0.2-0.6,0.2-1,0-1"/>
<path class="st0" d="M122.3,74.8L122.3,74.8c-0.4-0.5-0.9-0.9-1.4-1.2c-0.3-0.1-0.6-0.3-0.8-0.6l-0.2,0.3c-0.7,1-1,1.7-1.2,2
	c-0.7,1.3-1.1,2.3-1.3,2.8l-0.1,0.2c0,0.2,0.4,0.6,1.3,1.3s1.5,1.1,1.9,1.4c0.7,0,1.3-0.7,2-2.1c0.5-0.8,0.8-1.8,0.7-2.7
	C122.9,75.8,122.7,75.3,122.3,74.8 M116,75.2c-0.4-0.5-0.9-0.9-1.4-1.2c-0.3-0.2-0.6-0.4-0.8-0.6l-0.2,0.3c-0.7,1-1,1.8-1.2,2
	c-0.7,1.3-1.1,2.3-1.3,2.8l-0.1,0.2c0,0.2,0.4,0.6,1.3,1.3c0.8,0.6,1.4,1.1,1.9,1.4c0.7,0,1.3-0.7,2.1-2c0.5-0.8,0.8-1.8,0.7-2.7
	C116.7,76.1,116.4,75.6,116,75.2"/>
<path class="st0" d="M127.4,53.7l-0.6,1.8l-0.4,3.7c-0.5,3.4-1.3,6.8-2.4,10.1l0.2,0.4c0.5,0,1.1-0.8,2-2.5l1.4-2.8
	c0.7-1.7,1.2-3.5,1.4-5.3l0.7-5.2l0.4-3.3l0.3-2c0-0.2-0.1-0.3-0.2-0.5c-0.1,0.1-0.2,0.2-0.3,0.3c-0.2,0.3-0.4,0.6-0.5,0.9
	L127.4,53.7z"/>
<path class="st0" d="M110.9,30.5c1-0.6,2-1.2,3.1-1.6c2.2-0.8,3.3-1.3,3.4-1.4c0.4-0.2,0.9-0.4,1.4-0.6c0.4-0.2,0.7-0.5,1.1-0.7
	c1.4-1.3,2.6-2.9,3.5-4.6c0.6-0.8,1-1.7,1.2-2.7c0-0.1-0.1-0.2-0.1-0.2c-0.5,0.5-1.3,1.4-2.4,2.4c-1.5,1.5-3.1,2.8-4.9,3.9
	c-0.9,0.5-2.3,1.2-4.1,2c-2,1.2-3.8,2.8-5.4,4.7c-2,2.3-3,4.3-3,6.1c0,1,0.7,1.7,2.2,2.3c3.6,1.2,7.5,1.7,11.3,1.4l4.8-0.2
	c11.1-0.4,22.2-1.7,33.2-3.7c21.9-4,32.8-6.9,32.8-8.7c0-0.6-0.6-0.9-1.9-0.9c-0.9,0-1.8,0.1-2.6,0.3l-12.9,2.3l-9.4,1.5
	C151,34,139.8,35,128.6,35.3h-2.9c-1.9,0-3.2,0-3.8,0c-2.8,0-5.7-0.2-8.5-0.6c-3.2-0.5-4.8-1.2-4.8-1.9s0.8-1.3,2.4-2.3"/>
<path class="st0" d="M180.4,11.7L180.4,11.7c-2.5,3.4-5.4,6.4-8.6,9c-0.8,0.6-2,1.7-3.8,3.1c-1,0.8-4,3-8.9,6.8l-4.2,3.1
	c-1.7,1.3-2.6,1.9-2.6,1.8c0.7-1.9,1.8-3.6,3.3-5c0.5-0.5,2.1-1.7,4.8-3.9l7.7-6c3.5-2.7,6.8-5.6,10-8.6c0.5-0.5,1.5-1.6,3-3.1
	c0.4-0.5,0.9-1,1.4-1.4v0.6c-0.6,1.3-1.3,2.6-2.2,3.8 M149,55.2L149,55.2c0.6,1.3,1.9,2.1,3.3,2c1.5-0.1,2.8-0.9,3.6-2.1
	c1.4-1.7,2.4-2.6,3.1-2.6c0.3,0,0.7,0,1.2,0.1c0.6-0.1,1.1-0.4,1.4-0.9c0.1-0.1,0.4-0.5,0.9-1.2c1,0,1.9-0.7,2.6-2.2
	c0.6-1,1-2.2,1-3.5c0-0.3,0-0.5-0.2-0.5s-0.3,0.3-0.5,0.8c-0.4,1.2-0.9,1.9-1.4,1.9c-0.3,0-0.6,0-0.8-0.1c-0.1,0.3-0.2,0.6-0.3,0.9
	c-0.2,0.5-0.6,1-1.1,1.3c-0.2,0.1-0.5,0.2-0.8,0.2c-0.3,0-0.6,0-0.8,0c-0.3,0-0.5,0-0.8,0c-0.7,0.4-1.4,0.9-1.9,1.4
	c-0.8,0.7-1.8,1.1-2.9,1c-1.4,0.1-2.8-0.7-3.3-2c-0.3-1.1-0.4-2.2-0.4-3.3l0,0c0.1-1.9,0.3-3.8,0.6-5.6l0.8-4.1c0-0.3,0-0.5,0-0.8
	h-0.4l-2.5,6.3c-0.2,0.9-0.4,1.9-0.5,2.9l-0.6,5.8c-0.1,1-0.3,2-0.7,2.9c-0.6,0.8-1.5,1.5-2.4,1.9c-0.9,0.5-1.8,1-2.6,1.7
	c-1.4,1.4-2.6,3-3.4,4.8c-0.5,0.9-1.3,1.6-2.2,2.2c-2.4,1.4-4,2.3-4.9,2.9c-1.2,0.7-1.8,1.3-1.8,1.7c0,0,0.2,0.1,0.5,0.1h0.6
	c0.2,0,0.5,0,0.7,0c1.7-0.1,3.5-0.5,5-1.3c1.3-1.1,2.4-2.4,3.1-4c0.4-0.8,0.9-1.6,1.4-2.3c0.9-0.8,1.8-1.4,2.9-1.8
	c1.1-0.5,2.1-1.3,2.8-2.4C147.8,56.6,148.3,55.9,149,55.2 M172.4,14c-1.2,1-2.3,2.1-3.3,3.3l-0.4,0.9c4.9-3.6,7.7-6,8.1-7.4
	C176.3,10.8,174.8,11.8,172.4,14"/>
<path class="st0" d="M151.3,12.7L151.3,12.7c0.4,0.4,0.7,1,0.8,1.6c0.1,1-0.2,1.9-0.7,2.7c-0.7,1.3-1.4,2-2.1,2
	c-0.7-0.4-1.3-0.9-1.9-1.4c-0.8-0.6-1.3-1.1-1.3-1.3l0.1-0.2c0.2-0.5,0.7-1.4,1.3-2.8c0.2-0.3,0.5-1,1.2-2l0.2-0.3
	c0.3,0.2,0.5,0.4,0.8,0.6C150.4,11.8,150.9,12.2,151.3,12.7 M154.4,19.8L154.4,19.8c-0.4-0.5-0.9-0.8-1.4-1.2
	c-0.3-0.2-0.6-0.4-0.8-0.6l-0.2,0.3c-0.7,1-1,1.8-1.2,2c-0.7,1.3-1.1,2.3-1.3,2.8l-0.1,0.2c0,0.2,0.4,0.6,1.3,1.3s1.4,1.1,1.9,1.4
	c0.6,0,1.3-0.7,2-2c0.5-0.8,0.8-1.8,0.7-2.7C155.1,20.8,154.8,20.3,154.4,19.8 M148.2,20.2c-0.4-0.5-0.9-0.8-1.4-1.2
	c-0.3-0.2-0.6-0.3-0.8-0.6l-0.2,0.3c-0.7,1-1,1.7-1.2,2c-0.7,1.3-1.1,2.3-1.3,2.8l-0.1,0.2c0,0.2,0.4,0.6,1.3,1.3
	c0.8,0.6,1.4,1.1,1.9,1.4c0.7,0,1.3-0.7,2.1-2c0.5-0.8,0.8-1.8,0.7-2.7C148.8,21.2,148.5,20.6,148.2,20.2"/>
<path class="st0" d="M168.5,55.4c-0.5-0.7-1-1.3-1.7-1.9l-1.3-1.1c0,0,0,0,0,0.1c-0.2,0.2-0.4,0.4-0.5,0.6l-1.3,2.9l-1,2.3
	c0,0.1,0.2,0.3,0.7,0.7c1.7,1.3,2.6,2.6,2.6,3.9c0,0.6-1,1.7-3.1,3.4l-1.9,1.6c-0.4,0.4-0.9,0.8-1.3,1.2c-0.1,0.1-0.1,0.2-0.1,0.2
	c0,0.3,0.2,0.3,0.6,0.2l1.6-0.5c2.1-0.5,3.9-1.7,5.1-3.4c1.4-2.2,2.2-4.7,2.4-7.3C169.3,57.3,169.1,56.3,168.5,55.4"/>
<path class="st0" d="M215.3,11.1L215.3,11.1c-2.4,3.4-5.3,6.4-8.6,9l-3.7,3.1c-1,0.8-4.1,3-8.9,6.7l-4.2,3.2
	c-1.7,1.3-2.6,1.9-2.7,1.7c0.7-1.9,1.9-3.6,3.3-5c0.5-0.5,2.1-1.7,4.8-3.9l7.7-6c3.5-2.7,6.8-5.6,10-8.6c0.5-0.5,1.4-1.6,3-3.1
	c0.4-0.5,0.9-1,1.4-1.4v0.6C216.9,8.7,216.1,10,215.3,11.1 M207.3,13.4L207.3,13.4c-1.2,1-2.3,2.1-3.3,3.3l-0.4,0.9
	c4.9-3.6,7.7-6,8.1-7.4C211.2,10.2,209.6,11.2,207.3,13.4 M187.2,35.9l-0.2-0.5c-0.5,0.9-0.9,1.9-1.3,2.9c-1,2.2-1.5,4.5-1.6,6.8
	c0.1,3,0,5.9-0.5,8.8c-0.1,0.4-0.7,0.9-1.9,1.6c-0.9,0.5-1.8,1.1-2.6,1.7c-0.7,0.6-1.3,1.4-1.8,2.3c-0.4,1-0.8,1.9-1.2,2.7
	c-0.6,1.1-1.5,2-2.6,2.6l-1.8,1.1c-3.3,1.9-4.9,3-4.9,3.3c0,0.3,0.4,0.3,1.3,0.3c3.6,0,6-0.9,7.4-2.6c0.8-1.2,1.4-2.4,1.9-3.7v-0.1
	c0.1-0.2,0.2-0.5,0.4-0.8l0.2-0.4c0.4-0.6,0.8-1,1.4-1.3l2.3-1.1c1.5-1,2.5-2.4,3-4.1c0.7-1.6,1.2-3.3,1.4-5.1
	c0.1-1.1,0.3-3,0.3-5.8c0-2.9,0.2-5.8,0.7-8.6"/>
<path class="st0" d="M193.4,59.1l0.2-1.2c0.1-0.5,0.1-1,0.1-1.4c0-0.9-0.3-1.7-0.8-2.4c-0.5-0.6-1.3-1-2.2-1c-0.8,0-1.6,1-2.6,2.9
	c-0.6,1.1-1.1,2.2-1.4,3.4c-0.1,0.6,0.2,1.2,0.7,1.5c0.5,0.5,1.1,0.7,1.8,0.6l1.6-0.1c0,0.1,0,0.2,0,0.3c-0.9,1.8-2.2,3.3-4,4.3
	l-2.4,1.6c-1.4,1-2.2,1.6-2.2,1.8l0.2,0.1c0.7,0,1.3-0.2,1.9-0.4l1.9-0.6c1.1-0.3,2.1-0.8,3.1-1.3c1.2-0.9,2-2.1,2.5-3.5l0.8-2.2
	C193,60.8,193.3,60,193.4,59.1"/>
<path class="st0" d="M243.5,15.8L243.5,15.8c-2.4,3.4-5.3,6.4-8.6,9c-0.8,0.6-2,1.7-3.8,3.1c-1,0.7-4,3-8.9,6.7l-4.1,3.1
	c-1.7,1.3-2.6,1.9-2.7,1.7c0.7-1.9,1.9-3.6,3.3-5c0.5-0.5,2.1-1.8,4.8-3.9l7.7-6c3.5-2.7,6.8-5.6,10-8.6c0.5-0.5,1.4-1.6,3-3.1
	c0.4-0.5,0.9-1,1.4-1.4V12c-0.6,1.4-1.3,2.6-2.2,3.8 M235.4,18.1L235.4,18.1c-1.2,1-2.3,2.1-3.3,3.3l-0.4,0.9c5-3.6,7.7-6,8.1-7.4
	C239.3,14.9,237.8,15.9,235.4,18.1 M214.4,44.5c0.3-1.7,0.5-3,0.6-3.7c0.2-0.5,0.2-0.7,0.1-0.8c-0.1-0.1-0.2,0-0.4,0.1
	c-1.9,3.2-3,6.8-3.3,10.5l-0.2,2.9v0.1c0,0.2,0,0.4,0,0.6v0.7c-0.7,1.6-1.3,2.9-1.9,3.9l-1.9,3.6c-0.4,0.8-0.7,1.6-0.7,2.4
	c0,0.8,0.3,1.5,0.9,2c0.4,0.3,0.8,0.5,1.2,0.8c1.5,0.9,2.2,1.6,2.2,2c-0.7,2.1-2.1,3.8-4,4.9c-1.9,1.1-4.1,1.7-6.3,1.6
	c-1.7,0.1-3.3-0.4-4.6-1.4c-1.3-1.1-2-2.7-1.9-4.3c0-1.6,1.6-5.8,4.8-12.8c0.2-0.5,0.4-1,0.4-1.6c0-0.3,0-0.5-0.2-0.6
	c-0.2-0.1-0.6,0.7-1.4,2.1c-1.9,3.6-3,5.7-3.2,6.1c-1.7,3.4-2.7,7.1-2.9,10.9c-0.1,2.1,0.6,4.1,1.9,5.7c1.4,1.5,3.4,2.2,5.5,2.1
	c2.3,0,4.5-0.8,6.4-2.2c3.5-2.8,6.1-6.6,7.2-11c0.5-1.4,0.7-2.8,0.8-4.3c-0.1-1.3-0.8-2.5-1.9-3.2l-0.9-0.7
	c-0.5-0.4-0.7-0.6-0.7-0.8c0.2-0.8,0.6-1.5,1.1-2.2c0.1-0.3,0.4-0.6,0.6-0.8c0.1,0.2,0.2,0.4,0.3,0.5c0.7,1.3,2,2.1,3.5,2.1
	c1.6-0.1,3.1-1.1,3.8-2.6c0.8-1.4,1.9-2.5,3.3-3.3c0.4-0.1,0.9-0.1,1.3,0l0,0c0.1,0,0.3,0,0.4,0c0.5,0,1.2-0.5,1.9-1.6
	c0.4-0.6,0.8-1.3,1.2-2c0.7-0.9,1.2-1.3,1.7-1.3c0.3,0,0.6,0.1,0.9,0.2c0.2,0.1,0.5,0.2,0.8,0.2c0.7,0,1.4-0.3,1.7-0.9
	c0.4-0.6,0.6-1.3,0.5-2c0-0.8-0.3-1.2-0.8-1.2c0,0-0.2,0.2-0.4,0.5c-0.2,0.3-0.4,0.5-0.6,0.5c-0.4-0.4-0.9-0.5-1.4-0.5
	c-0.5,0-1,0.2-1.4,0.6c-0.3,0.4-0.7,0.7-1,1.1c-1.2,2-2.1,3.1-2.6,3.1l-1-0.1l0,0c-0.8-0.2-1.8,0.5-2.9,2c-0.8,1.1-2,1.7-3.3,1.7
	c-2.6,0-3.9-1.6-4-4.8v-0.3C213.9,48.8,214.1,47.2,214.4,44.5"/>
<path class="st0" d="M215.3,25.5c-0.4-0.5-0.9-0.8-1.4-1.2c-0.3-0.2-0.6-0.4-0.8-0.6l-0.2,0.3c-0.7,1-1,1.7-1.2,2
	c-0.7,1.3-1.1,2.3-1.3,2.8l-0.1,0.2c0,0.2,0.4,0.6,1.3,1.3c0.8,0.6,1.4,1.1,1.9,1.4c0.7,0,1.3-0.7,2.1-2c0.5-0.8,0.8-1.8,0.7-2.7
	C215.9,26.5,215.6,25.9,215.3,25.5"/>
<path class="st0" d="M221.3,65.8c-0.8,1.6-1.4,3.4-1.6,5.2c0,1.5,0.5,2.3,1.4,2.3c0.5,0,1-0.3,1.3-0.8c0.3-0.4,0.5-1,0.5-1.5
	c0-0.3-0.3-0.7-0.9-1.3l-1-0.9c0.2-1.6,0.8-3.1,1.8-4.5c0.4-0.8,0.8-1.6,1.2-2.4C223.3,61.8,222.5,63.1,221.3,65.8"/>
<path class="st0" d="M244,46.7c-0.6-1.1-1.8-1.8-3-1.8c-0.5,0-1.2,0.9-2.1,2.6c-0.7,1-1.2,2.2-1.4,3.4c0,1.2,0.6,1.7,1.8,1.7
	c0.5,0,1.1-0.1,1.6-0.3c0.2,0,0.5,0.2,0.8,0.6c0.2,0.3,0.4,0.6,0.4,1c0,0.4-0.7,1-2,1.8c-1.3,0.8-2,1.2-2.6,1.4
	c-0.7,0.6-1.3,1.3-1.8,2.2c-0.3,0.5-0.8,1.3-1.4,2.6c-1.2,1.7-2.8,3-4.7,3.9c-1.3,0.7-2.1,1.2-2.6,1.4c-1.3,0.8-2,1.4-2,1.7
	s0.2,0.4,0.7,0.4c1.2,0,2.4-0.1,3.6-0.3c1.2-0.1,2.3-0.5,3.3-1.2c0.9-0.8,1.5-1.7,2-2.8c0.8-1.7,1.3-2.7,1.4-3
	c0.6-0.9,1.5-1.6,2.6-2c1.6-0.6,3-1.7,4-3.1c1.4-2,2.2-4.3,2.3-6.7c0-1.2-0.3-2.4-0.9-3.5"/>
<path class="st0" d="M235.8,33c-0.4-0.5-0.9-0.8-1.4-1.2c-0.3-0.2-0.6-0.3-0.8-0.6l-0.2,0.3c-0.7,1-1,1.7-1.2,2
	c-0.7,1.3-1.1,2.3-1.3,2.8l-0.1,0.2c0,0.2,0.4,0.6,1.3,1.3c0.8,0.6,1.4,1.1,1.9,1.4c0.7,0,1.3-0.7,2-2c0.5-0.8,0.8-1.8,0.7-2.7
	C236.5,33.9,236.2,33.4,235.8,33"/>
<path class="st0" d="M244.3,32.7c-1.8,0.1-3.2,8.7,8.6,9.4c2,0.1,4.8,0.1,8.8-0.1c3.1-0.1,6.5-0.4,10.2-0.8
	c13.7-1.6,22.6-4.2,26.5-7.7c1.9-1.5,3.2-3.5,3.9-5.8c0-0.2-0.1-0.5-0.3-0.6c-0.2,0-0.5,0.3-1,0.7c-0.3,0.3-0.5,0.5-0.8,0.8
	c-1.2,1.2-3.5,2.3-7,3.3C272.7,37.8,246.8,36.7,244.3,32.7"/>
<path class="st0" d="M273.6,14.5L273.6,14.5c0.4,0.5,0.7,1,0.8,1.6c0,1-0.2,1.9-0.7,2.7c-0.7,1.3-1.4,2-2.1,2
	c-0.7-0.4-1.3-0.9-1.9-1.4c-0.8-0.6-1.3-1.1-1.3-1.4l0.1-0.2c0.2-0.5,0.6-1.4,1.3-2.8c0.2-0.3,0.5-1,1.2-2l0.2-0.3
	c0.3,0.2,0.5,0.4,0.8,0.6C272.8,13.6,273.3,14,273.6,14.5 M276.8,21.7L276.8,21.7c-0.4-0.5-0.9-0.8-1.4-1.2
	c-0.3-0.2-0.6-0.4-0.8-0.6l-0.2,0.3c-0.7,1-1,1.8-1.2,2c-0.7,1.3-1.1,2.3-1.3,2.8l-0.1,0.2c0,0.2,0.4,0.6,1.3,1.3
	c0.8,0.6,1.5,1.1,1.9,1.4c0.7,0,1.3-0.7,2-2c0.5-0.8,0.8-1.8,0.7-2.7C277.4,22.7,277.1,22.1,276.8,21.7 M270.5,22
	c-0.4-0.5-0.9-0.9-1.4-1.2c-0.3-0.2-0.6-0.4-0.8-0.6l-0.2,0.3c-0.7,1-1,1.8-1.2,2c-0.7,1.4-1.1,2.3-1.3,2.9l-0.1,0.2
	c0,0.2,0.4,0.6,1.3,1.3s1.5,1.1,1.9,1.4c0.6,0,1.3-0.7,2-2c0.5-0.8,0.8-1.8,0.7-2.7C271.1,23.1,270.8,22.5,270.5,22"/>
<path class="st0" d="M250.7,53.7l-0.7,1.8l-0.4,3.7c-0.5,3.4-1.3,6.8-2.3,10.1l0.2,0.4c0.5,0,1.1-0.8,2-2.5l1.4-2.8
	c0.7-1.7,1.2-3.5,1.4-5.3l0.7-5.2l0.4-3.3l0.3-2c0-0.2-0.1-0.3-0.2-0.5c-0.1,0.1-0.2,0.2-0.3,0.3c-0.2,0.3-0.4,0.6-0.5,0.9
	L250.7,53.7z"/>
<path class="st0" d="M277.3,70.2L277.3,70.2c-0.4-0.5-0.9-0.8-1.4-1.2c-0.3-0.2-0.6-0.4-0.8-0.6l-0.2,0.3c-0.7,1-1,1.7-1.2,2
	c-0.7,1.3-1.1,2.3-1.3,2.8l-0.1,0.2c0,0.2,0.4,0.6,1.3,1.3c0.8,0.6,1.4,1.1,1.9,1.4c0.7,0,1.3-0.7,2.1-2c0.5-0.8,0.8-1.8,0.7-2.7
	C277.9,71.2,277.6,70.7,277.3,70.2 M271,70.6c-0.4-0.5-0.9-0.8-1.4-1.2c-0.3-0.2-0.6-0.4-0.8-0.6l-0.2,0.3c-0.7,1-1,1.7-1.2,2
	c-0.7,1.4-1.1,2.3-1.3,2.9l-0.1,0.2c0,0.2,0.4,0.6,1.3,1.3c0.8,0.6,1.4,1.1,1.9,1.4c0.7,0,1.3-0.7,2.1-2c0.5-0.8,0.8-1.8,0.7-2.7
	C271.7,71.6,271.4,71.1,271,70.6"/>
<path class="st0" d="M275.8,51.5c0.4,0,0.8,0,1.2,0h1c0.2,0,0.6-0.3,0.9-0.8c1-1.6,1.7-2.9,2.3-3.6l0.7-1c0.4-0.5,0.8-0.9,1.3-1.2
	l1.2-1.8c0.2-0.4,0.5-0.8,0.7-1.2c0.5,0.4,1,0.9,1.4,1.4c0.7,0.7,1.2,1.6,1.4,2.6c0,0.9-0.3,1.7-0.8,2.3c-0.5,0.7-1.3,1.1-2.1,1
	h-1.6c-1.2,0-2.3,0.7-2.9,1.8l-1.8,2.7c-0.8,1.3-1.8,2.5-3,3.4l0,0c-0.4,0.2-0.8,0.3-1.3,0.2h-0.9c-0.3,0-0.5,0-0.8,0
	c-3.4,0-6.6,1.9-9.5,5.8c-0.3,0.4-1.3,1.9-3.1,4.3c-1.2,1.7-2.6,3.2-4.2,4.4c-2.8,2.4-6,4.4-9.4,5.9c-0.4,0.2-0.8,0.3-1.2,0.4
	c-0.1,0-0.3,0-0.4-0.1c-0.2-0.2,0.4-0.9,1.9-1.9c2.3-1.6,3.8-2.6,4.6-3.2c1.5-1.2,2.9-2.5,4.2-3.8c1.7-2,3.4-4.1,4.9-6.3
	c1.6-2.2,2.7-3.7,3.4-4.6c1.5-1.8,3.2-3.3,5.2-4.6C271,52.3,273.3,51.6,275.8,51.5L275.8,51.5z"/>
<path class="st0" d="M316.2,34.5c-1.6,0.2-3.7,1.5-6.2,3.8c-0.9,0.9-1.9,2-3.1,3.3c-2.9,3.6-4.3,6.7-4.3,9.4c0,1.6,1.2,2.9,2.7,3.1
	c1.4,0.3,2.1,0.8,2.1,1.2c-0.3,1.7-1.2,3.2-2.5,4.3c-2.1,2.2-5,3.4-8,3.3c-1.6,0.1-3.2-0.3-4.5-1.2c-1.3-0.8-2.1-2.3-2.1-3.9
	c0-2.3,1.7-6.9,5-13.9c0.1-0.2,0.1-0.4,0.1-0.6c0-0.3-0.1-0.5-0.4-0.5s-0.6,0.5-1,1.4l-3.1,6.5c-1.7,3.3-2.7,7-2.9,10.8
	c-0.1,2,0.6,3.9,1.9,5.4c1.3,1.5,3.3,2.3,5.3,2.2c4.2,0,7.6-2,10.3-6c1.1-1.8,2-3.7,2.6-5.8c0.7-2,1.1-4.1,1.1-6.2
	c0.1-1.5-0.9-2.9-2.4-3.2l-1.1-0.5c-0.2-0.3-0.4-0.6-0.4-1c0-0.8,1.1-2.1,3.3-4c1.2-1.3,2.7-2.1,4.4-2.3c0.3,0.1,0.6,0.3,0.8,0.5
	c0.2,0,0.5-0.2,0.8-0.7c0-0.1,0.3-0.6,0.7-1.4c0.5-1,0.9-2.1,1.2-3.2C316.6,34.9,316.5,34.7,316.2,34.5"/>
<path class="st0" d="M315.8,53.7c-0.2,0-0.5,0.6-1,1.8l-0.7,2.1c-0.4,1.4-0.9,2.8-1.6,4.1c-1,1.7-2.3,3.1-3.9,4.3
	c-1.2,0.9-2,1.5-2.4,1.8c-1.3,0.9-1.8,1.6-1.7,1.9c0,0.2,0.2,0.3,0.4,0.2c1,0,2-0.2,2.9-0.6l2.2-0.9c1.2-0.5,2.2-1.4,2.9-2.6
	c0.6-1.2,1.2-2.4,1.6-3.7l0.7-2.9c0.5-1.7,0.8-3.4,0.9-5.2C316.1,54,316,53.8,315.8,53.7"/>
<path class="st0" d="M321.6,53.7l-0.7,1.8l-0.4,3.7c-0.5,3.4-1.3,6.8-2.4,10.1l0.2,0.4c0.5,0,1.2-0.8,2-2.5l1.4-2.8
	c0.7-1.7,1.2-3.5,1.4-5.3l0.7-5.2l0.4-3.3l0.3-2c0-0.2-0.1-0.3-0.2-0.5c-0.1,0.1-0.2,0.2-0.3,0.3c-0.2,0.3-0.4,0.6-0.5,0.9
	L321.6,53.7z"/>
<path class="st0" d="M335.2,41.7c-0.4-0.5-0.9-0.9-1.4-1.2c-0.3-0.2-0.6-0.4-0.8-0.6l-0.2,0.3c-0.7,1-1,1.8-1.2,2
	c-0.7,1.3-1.1,2.3-1.3,2.8l-0.1,0.2c0,0.2,0.4,0.6,1.3,1.3c0.8,0.6,1.4,1.1,1.9,1.4c0.7,0,1.3-0.7,2-2c0.5-0.8,0.8-1.8,0.7-2.7
	C335.8,42.7,335.5,42.1,335.2,41.7"/>
<path class="st0" d="M334,59.2c0.1-0.7,0.3-1.3,0.5-2c0.2-0.5,0.3-0.9,0.4-1.2c0.1-0.3,0-0.5-0.2-0.6c-0.2-0.1-0.9,0.6-1.6,1.9
	l-1.3,2.5c-0.4,0.8-0.8,1.3-1,1.6c-1.2,1.9-2.9,3.6-4.9,4.8c-1.3,0.8-2.1,1.2-2.5,1.5c-1.4,0.8-2,1.4-2,1.7c0.5,0.1,1,0.1,1.4,0
	l3.3-0.8c0.5-0.2,1-0.3,1.2-0.4c1.5-0.6,2.7-1.7,3.5-3.1c0.1-0.2,0.2-0.5,0.4-0.7l0.1-0.2c0.2,1,0.6,2,1.1,2.9
	c0.7,0.9,1.8,1.4,2.9,1.3c1.7,0,3.3-0.9,4.2-2.3c1-1.3,1.8-2.8,2.4-4.3c1.3-2.7,1.9-5.6,1.9-8.6v-7.8c0.1-1.1,0.2-2.1,0.4-3.2
	c0-0.5,0.1-0.9,0.2-1.3c0-0.2,0-0.4,0-0.6c0-0.1-0.2-0.2-0.3-0.2c-0.9,1.5-1.6,3.1-2.1,4.7c-0.5,1.5-0.8,3-0.8,4.6V57
	c0.1,1.2-0.3,2.5-0.9,3.6c-0.7,1.1-1.9,1.7-3.2,1.7c-1.6,0.2-3-1-3.2-2.5c0-0.2,0-0.4,0-0.6L334,59.2z"/>
<path class="st0" d="M372.7,15.9L372.7,15.9c-2.4,3.4-5.3,6.4-8.6,9c-0.8,0.6-2,1.7-3.8,3.1c-1,0.7-4,3-8.9,6.8l-4.2,3.1
	c-1.7,1.3-2.6,1.9-2.6,1.8c0.7-1.9,1.9-3.6,3.3-5c0.5-0.5,2.1-1.8,4.8-3.9l7.7-6c3.5-2.7,6.8-5.6,10-8.6c0.5-0.5,1.4-1.6,3-3.1
	c0.4-0.5,0.9-1,1.4-1.4v0.6c-0.6,1.4-1.3,2.6-2.2,3.8 M364.7,18.2c-1.2,1-2.3,2.1-3.3,3.3l-0.4,0.9c4.9-3.6,7.7-6,8.1-7.4
	C368.6,15,367.1,16,364.7,18.2"/>
<path class="st0" d="M347.5,62.6c-0.6,0.7-1,1.5-1.1,2.4c0,0.1,0,0.2,0.1,0.3c0.2,0,0.4,0,0.6-0.2c1-0.9,2.2-1.5,3.6-1.7
	c0.4,0,0.8,0.1,1.2,0.1c0.5,0,0.8,0.1,1.1,0.1c0.4,0,0.9,0,1.3-0.2c1.9-0.8,3.5-2.4,4.3-4.3c0.7-1.1,1.1-2.2,1.4-3.5
	c0-0.3,0-0.5-0.2-0.5s-0.6,0.5-1.4,1.6c-0.7,0.8-1.6,1.3-2.7,1.3c-0.6,0-1.2-0.1-1.7-0.2c-0.7,0-1.3,0.2-1.9,0.5
	c-0.4,0.2-0.7,0.5-1.1,0.6C349.5,60.1,348.4,61.3,347.5,62.6"/>
<path class="st0" d="M361.1,70.9L361.1,70.9c-0.4-0.5-0.9-0.9-1.4-1.2c-0.3-0.2-0.6-0.4-0.8-0.6l-0.2,0.3c-0.7,1-1,1.7-1.2,2
	c-0.7,1.4-1.1,2.3-1.3,2.8l-0.1,0.2c0,0.2,0.4,0.6,1.3,1.3c0.8,0.6,1.4,1.1,1.9,1.4c0.7,0,1.3-0.7,2-2.1c0.5-0.8,0.8-1.8,0.7-2.7
	C361.7,71.9,361.5,71.3,361.1,70.9 M354.9,71.2c-0.4-0.5-0.9-0.9-1.4-1.2c-0.3-0.2-0.6-0.4-0.8-0.6l-0.2,0.3c-0.7,1-1,1.8-1.2,2
	c-0.7,1.3-1.1,2.3-1.3,2.8l-0.1,0.2c0,0.2,0.4,0.6,1.3,1.3c0.8,0.6,1.5,1.1,1.9,1.4c0.7,0,1.3-0.7,2.1-2c0.5-0.8,0.8-1.8,0.7-2.7
	C355.5,72.2,355.2,71.7,354.9,71.2"/>
<path class="st0" d="M365.6,37.4l1-7.1l0.2-1.4c0.1-0.3,0.1-0.6,0.1-0.9l-0.2,0.1c-0.9,1.8-1.7,3.7-2.4,5.6
	c-0.9,4.7-1.5,9.6-1.8,14.4v1.1c0,0.1,0.1,0.6,0.1,1.4c0.1,0.9,0.5,1.8,1.1,2.4c0.5,0.7,1.4,1.2,2.3,1.2c1.6-0.1,3-1.2,3.6-2.7
	c0.6-1.3,1-2.7,1-4.2c0.1-1-0.7-1.9-1.7-2.1c-0.5,1.2-1,2.2-1.4,3.1c-1.7,0-2.5-1.3-2.5-3.8v-1c0-2,0.2-4,0.5-6"/>
<path class="st0" d="M403.2,29.6c0-0.3-0.1-0.5-0.3-0.4c-0.5,0.6-0.9,1.2-1.3,1.8c-1,0.2-1.7,0.3-1.9,0.3c-0.6,0.2-1.2,0.6-1.6,1.1
	c-0.3,0.3-0.8,0.9-1.4,1.8c-1.2,1.5-1.9,2.3-2.3,2.3h-0.4c0,0-0.3,0-0.7,0c-4.9-0.1-9.6,3.2-14.2,10c-2.2,3.3-3.8,5.4-4.4,6.2
	c-1.6,1.8-3.4,3.4-5.4,4.8c-1.9,1.3-3.7,2.6-5.4,4.1c0.1,0.1,0.1,0.1,0.2,0.1c1.3-0.3,2.6-0.8,3.7-1.6c3.9-1.9,7.3-4.7,10-8.1
	c2.9-3.9,4.3-6,4.5-6.2c1-1.1,2.2-2,3.5-2.6c1.3-0.6,2.7-1,4.2-0.9l2.1,0.1c0.4,0,1.3-0.9,2.9-3.1l2-2.9c0.4-0.6,0.9-1.1,1.6-1.5
	c0.5-0.2,1.1-0.4,1.7-0.5c0.7-0.1,1.2-0.5,1.6-1.1c0.8-1,1.3-2.3,1.4-3.6"/>
<path class="st0" d="M455.6,57.9c-0.1-0.6-0.3-1.3-0.6-1.8c-0.6,0-1.2,0.1-1.8,0.5c-0.8,0.8-1.6,1.6-2.3,2.4
	c-0.3,0.3-0.7,0.7-1.1,0.9c-2.6,1.6-5.6,2.6-8.6,2.9c-4.5,0.7-9.1,1-13.7,1c-8.4,0-13.1-0.9-14.1-2.6c0-0.2-0.2-0.8-0.5-2
	c0-0.4-0.2-0.6-0.4-0.6c-0.2,0-0.6,0.9-0.7,2.6c0,1.2-0.1,2.3-0.1,3.3c0,2.9,2,4.6,5.9,5.2c1.7,0.2,3.3,0.3,5,0.3h1.1
	c2.8,0,5.5-0.2,8.3-0.5c4.3-0.3,8.6-1.2,12.6-2.6c1.6-0.6,3.1-1.6,4.4-2.9c0.6-0.6,1.1-1.3,1.6-2c1.3-1.8,2.5-2.7,3.8-2.6h0.7
	C455.4,58.9,455.6,58.4,455.6,57.9"/>
<path class="st0" d="M435.9,49.4L435.9,49.4c-0.4-0.5-0.9-0.9-1.4-1.2c-0.3-0.1-0.6-0.3-0.8-0.6l-0.2,0.3c-0.7,1-1,1.7-1.2,2
	c-0.7,1.3-1.1,2.3-1.3,2.8l-0.1,0.2c0,0.2,0.4,0.6,1.3,1.3c0.8,0.6,1.4,1.1,1.9,1.4c0.7,0,1.3-0.7,2-2c0.5-0.8,0.8-1.8,0.7-2.7
	C436.5,50.4,436.2,49.8,435.9,49.4 M429.6,49.7c-0.4-0.5-0.9-0.8-1.4-1.2c-0.3-0.2-0.6-0.4-0.8-0.6l-0.2,0.3c-0.7,1-1,1.7-1.2,2
	c-0.7,1.3-1.1,2.3-1.3,2.8l-0.1,0.2c0,0.2,0.4,0.6,1.3,1.3c0.8,0.6,1.5,1.1,1.9,1.4c0.7,0,1.3-0.7,2.1-2c0.5-0.8,0.8-1.8,0.7-2.7
	C430.3,50.7,430,50.2,429.6,49.7"/>
<path class="st0" d="M455.6,59.6c0.8,0,1.7-1,3-3c0.8-1.3,1.3-2.8,1.6-4.3c0.2-1.5,0.4-3.1,0.4-4.7l0.2-5.6c0-0.4,0-1.3,0.2-2.7
	c0-1.1,0.1-2,0.1-2.7c0-0.2,0-0.5,0-0.7l-0.2,0.1l-1.3,3l-1.4,4.2v7.9c0.1,1.4-0.1,2.7-0.6,4c-0.1,0.4-0.4,0.7-0.7,1
	c-0.4,0.2-0.8,0.2-1.3,0.2l-0.8-0.1v3.4c0.2,0.1,0.4,0.1,0.6,0.1"/>
<path class="st0" d="M460.5,35.1c0,0.1,1-0.5,2.7-1.8l4.2-3.1c5.8-4.3,8.7-6.6,8.9-6.8c3.5-2.9,6.3-5.2,8-6.9c3.9-3.7,6-6.8,6.6-9.1
	c0.1-0.2,0.1-0.3,0.1-0.5c-0.2,0.3-1.7,1.7-4.5,4.3c-2.8,2.6-4.2,3.9-4.8,4.4c-2,1.8-3.8,3.3-5.3,4.5l-7.7,6c-2,1.5-3.8,3-5.6,4.7
	C461.9,32.1,461.1,33.5,460.5,35.1"/>
<path class="st0" d="M484.7,45.8c0-0.3-0.1-0.5-0.3-0.4c-0.5,0.6-0.9,1.2-1.3,1.8c-1,0.2-1.7,0.3-1.9,0.4c-0.6,0.2-1.2,0.6-1.6,1.1
	l-1.4,1.8c-1.1,1.5-1.9,2.3-2.3,2.3h-0.4c-0.2,0-0.5,0-0.7,0c-4.9-0.1-9.6,3.2-14.2,10c-1.4,2.1-2.8,4.2-4.4,6.2
	c-1.6,1.8-3.4,3.4-5.3,4.8c-1.9,1.2-3.7,2.6-5.5,4c0.1,0.1,0.1,0.1,0.2,0.1c1.3-0.3,2.6-0.8,3.7-1.6c3.9-1.9,7.3-4.7,9.9-8.1
	c2.9-3.9,4.3-6,4.5-6.2c1-1.1,2.2-2,3.5-2.6c1.3-0.6,2.7-1,4.2-0.9l2,0.1c0.4,0,1.3-0.9,2.9-3.1l2-2.9c0.4-0.6,0.9-1.1,1.6-1.5
	c0.5-0.2,1.1-0.4,1.7-0.5c0.6-0.1,1.2-0.5,1.6-1.1C484,48.5,484.5,47.2,484.7,45.8"/>
<path class="st0" d="M477.5,32.3L477.5,32.3c0.4,0.5,0.7,1,0.8,1.6c0,1-0.2,1.9-0.7,2.7c-0.7,1.4-1.4,2-2,2
	c-0.7-0.4-1.3-0.9-1.9-1.4c-0.8-0.6-1.3-1.1-1.3-1.4l0.1-0.2c0.2-0.5,0.7-1.4,1.3-2.8c0.2-0.3,0.5-1,1.2-2l0.2-0.3
	c0.3,0.2,0.5,0.4,0.8,0.6C476.6,31.4,477.1,31.8,477.5,32.3 M480.6,39.4L480.6,39.4c-0.4-0.5-0.9-0.8-1.4-1.2
	c-0.3-0.2-0.6-0.4-0.8-0.6l-0.2,0.3c-0.6,1-1,1.8-1.2,2c-0.7,1.3-1.1,2.3-1.3,2.8l-0.1,0.2c0,0.2,0.4,0.6,1.3,1.3
	c0.9,0.6,1.4,1.1,1.9,1.4c0.7,0,1.3-0.7,2-2c0.5-0.8,0.8-1.8,0.7-2.7C481.3,40.4,481,39.9,480.6,39.4 M474.4,39.8
	c-0.4-0.5-0.9-0.9-1.4-1.2c-0.3-0.2-0.6-0.4-0.8-0.6l-0.2,0.3c-0.7,1-1,1.7-1.2,2c-0.7,1.3-1.1,2.3-1.3,2.8l-0.1,0.2
	c0,0.2,0.4,0.6,1.3,1.3c0.8,0.6,1.5,1.1,1.9,1.4c0.7,0,1.3-0.7,2-2c0.5-0.8,0.8-1.8,0.7-2.7C475,40.8,474.7,40.2,474.4,39.8"/>
<path class="st0" d="M382.1,64.6L382.1,64.6c0-0.7-0.5-1.4-1.5-2c-0.3-0.2-0.6-0.4-1-0.4c-0.2,0-0.6,0.4-1,1.2
	c-0.3,0.5-0.5,1.1-0.6,1.6c0,0.9,0.5,1.4,1.6,1.4c0.6,0,1.2-0.2,1.7-0.5C381.9,65.5,382.1,65.1,382.1,64.6 M385.2,59.9
	c0,2-0.6,4-1.6,5.8c-1.6,2.9-3.3,4.3-5.1,4.3c-1.5,0-2.3-0.9-2.3-2.7c0.2-1.4,0.6-2.8,1.3-4.1l1-1.6l-0.6-0.3
	c-0.3-0.1,0.7-2.2,2.9-6.5c0.1-0.2,0.3-0.4,0.7-0.4c0.7,0.2,1.4,0.5,1.8,1.1C384.6,56.5,385.3,58.1,385.2,59.9"/>
<path class="st0" d="M394.1,63.1c-0.5,1.7-1.5,3.2-2.9,4.3c-2.3,1.2-4.8,2.1-7.4,2.5c-0.1,0-0.2,0-0.3-0.1c0-0.1,0.4-0.5,1.2-1
	s2-1.4,3.7-2.5c2.9-2.2,4.3-3.9,4.3-4.9l-1.7,0.1c-0.7,0.1-1.5-0.2-2-0.6c-0.5-0.4-0.7-1-0.6-1.6c0.4-1.4,0.9-2.7,1.6-3.9
	c1-1.9,1.9-2.9,2.8-2.9c0.9,0,1.7,0.4,2.2,1.1c0.5,0.6,0.8,1.3,0.9,2.1c0,0.9-0.1,1.8-0.2,2.7C395.3,59.9,394.8,61.5,394.1,63.1"/>
<path class="st0" d="M413.2,43.2c-0.1,2.9-0.2,5-0.3,6.1c-0.3,1.9-0.8,3.7-1.5,5.4c-1,2.4-2.1,3.9-3.2,4.4l-2.5,1.2
	c-0.7,0.3-1.2,0.8-1.6,1.4c-0.4,0.8-0.8,1.7-1.2,2.5c-0.4,1-0.9,1.9-1.5,2.8c-1.4,1.9-4.2,2.9-8,2.9c-0.9,0-1.3-0.1-1.3-0.4
	s2.4-1.9,7.2-4.6c1.4-0.8,2.4-2.1,3.1-3.6c0.4-1,0.9-2,1.4-2.9c0.4-0.5,0.8-1,1.2-1.4c0.9-0.7,1.8-1.3,2.8-1.9
	c1.4-0.8,2.2-1.4,2.3-2c0.5-3.1,0.8-6.3,0.6-9.4c0-2,0.4-3.9,1.1-5.8c0.6-1.6,1.2-3.2,2-4.7c0.2,0,0.3,0.2,0.3,0.5
	C413.6,37,413.3,40.1,413.2,43.2"/>
<path class="st0" d="M416.2,29.6L416.2,29.6c-1.2,1.3-2.1,2.8-2.6,4.4c3.7-2.6,8-5.8,12.9-9.6c4.9-3.7,8.9-7,12.1-9.9
	c4.6-4.7,7-8,7-10.1c-5.1,5.2-10.6,10.1-16.4,14.5C421.3,25.1,417,28.6,416.2,29.6 M439.2,8.2C438.8,9.6,427,19.3,421.9,23l0.4-0.9
	c0.5-0.6,10.6-9,12.8-10.9S438.6,8.2,439.2,8.2"/>
<path class="st0" d="M69.2,42.7L69.2,42.7c-0.3,1.4-0.8,2.7-1.6,3.9c-0.6,0.9-1.6,1.5-2.7,1.5c-0.6,0.6-1.2,1.1-1.9,1.6
	c-0.7,0.6-1.6,1.1-2.6,1.2c-0.7,0-1.4-0.2-2-0.7c-0.6-0.5-1.3-0.8-2.1-0.8c-0.8,0-1.6,0.2-2.3,0.6c-0.7,0.4-1,0.7-1.2,1.2h-2.5
	c0.9-1.6,2.2-3,3.7-4.2c1.3-1.2,3-1.9,4.7-1.9c0.5-0.1,1.1,0.1,1.4,0.5c0.4,0.7,1.2,1.1,1.9,1c0.9,0,1.6-0.6,2.3-1.7
	c0.1-0.3,0.4-0.4,0.7-0.4h0.7c0.6,0,1.2-0.6,1.8-1.8s1-1.8,1.4-1.8S69.6,41.6,69.2,42.7 M53.4,59.8L53.4,59.8
	c-0.3,0.4-0.7,0.6-1.1,0.7c-0.7-0.1-1.3-0.3-2-0.5c-1-0.3-2-0.3-3,0c-1,0.4-2.7,1.5-6.2,4.3v-3.2c1.4-1.3,2.3-2.3,3.9-3.7
	c1.2-1.2,2.6-2.1,4.1-2.8c0.3-1.2,0.7-2.4,1.3-3.6h2.4c-0.2,0.6-0.2,1.3-0.1,1.9c0.1,0.5,0.7,1,1.7,1.4c0.7,0.2,1,0.8,1,1.8
	C55.5,57.1,54.8,58.3,53.4,59.8 M33.3,60.3c0,1.9-1.6,3.6-4.8,5.1c-1.5,0-2.9-0.2-4.3-0.7c-1.3-0.6-2-1.2-2-2c0-0.8,0.8-1.8,2.4-3.1
	c1.6-1.3,3.5-2,5.5-2C32.2,57.5,33.3,58.4,33.3,60.3 M41.2,64.4v-3.3c-2.6,2.1-5.5,3.8-8.7,5c3-3.3,4.5-6.4,4.5-9.3
	c0-2.9-2-4.1-5.9-3.6c-2.5,0.4-5,2.1-7.6,5c-2.6,2.9-3.8,5-3.9,6.4c0,0.9,0.7,1.7,2,2.3c-0.8,0.4-1.7,0.6-2.5,0.6l-2.7,8.4
	c2.5-0.1,4.8-0.9,6.9-2.2c2.4-1.2,4.6-2.7,6.7-4.4C33.9,68.1,37.7,66.5,41.2,64.4 M83.2,8L83.2,8c-5.6,3.9-11.5,7.5-17.5,10.7
	c-6.1,3.2-9.5,5-10.4,5.3c-0.8,0.3-1.4,0.3-1.4,0.1c0-0.3,2.5-2,7.7-5.2S75.7,10,88.3,1.7c1.8-1.3,2.9-1.9,3.5-1.5
	C91.7,1.5,88.8,4.1,83.2,8 M91.7,9.9C93.6,8.2,95,6,95.5,3.6c0-0.3,0-0.4-0.2-0.4c-0.2,0-7.9,6.2-27.4,17.4S36.1,39.2,31.1,42.8
	c-5,3.7-8.5,6.9-10.4,9.7s-3.1,4.5-3.1,5.2c0,0.6,0,0.9,0.3,0.9c1.4-1,2.6-2.1,3.7-3.4c2.6-2.6,5.4-4.9,8.5-7
	c3.4-2.5,14.9-9.5,34.4-21C84,15.7,86.3,14.6,91.7,9.9 M13.1,61.2c-0.1,1.6,0.4,3.2,1.3,4.5c0.9,1.2,2.4,1.7,4.7,1.6l-2.7,8.3
	c-4.8,0-7.2-2.7-7.2-8.1c0.2-4,1-7.9,2.3-11.7c1.3-3.7,2.3-5.5,3.2-5.5c0.5,0.1,0.5,0.8,0,2.2C13.8,55.5,13.2,58.3,13.1,61.2"/>
<rect x="59.3" y="59" class="st0" width="14" height="2"/>
</svg>
