<svg xmlns="http://www.w3.org/2000/svg" viewBox="0 0 236.11 48.29"><defs><style>.cls-1{fill:#4fadda;}.cls-2{fill:#d1b645;}.cls-3{fill:#e7e8e9;}</style></defs><title>Asset 2</title><g id="Layer_2" data-name="Layer 2"><g id="Layer_1-2" data-name="Layer 1"><path class="cls-1" d="M196.78,18.85,203.84,26l-7.06,7.13-3.71-3.75a4.82,4.82,0,0,1,0-6.78Z"/><path class="cls-1" d="M231,18.85,224,26,231,33.12l3.71-3.75a4.82,4.82,0,0,0,0-6.78Z"/><path class="cls-1" d="M221,8.78,214,15.91l-7.06-7.13L210.63,5a4.71,4.71,0,0,1,6.71,0Z"/><path class="cls-1" d="M221,43.15,214,36l-7.06,7.13,3.71,3.75a4.71,4.71,0,0,0,6.71,0Z"/><path class="cls-2" d="M226,33.06h5a0,0,0,0,1,0,0V43.15a0,0,0,0,1,0,0h-10a0,0,0,0,1,0,0V38A5,5,0,0,1,226,33.06Z" transform="translate(452.1 76.22) rotate(180)"/><path class="cls-2" d="M196.84,33.06h10a0,0,0,0,1,0,0V43.15a0,0,0,0,1,0,0h-5a5,5,0,0,1-5-5V33.06A0,0,0,0,1,196.84,33.06Z"/><path class="cls-2" d="M221.06,8.7h10a0,0,0,0,1,0,0V18.79a0,0,0,0,1,0,0h-5a5,5,0,0,1-5-5V8.7A0,0,0,0,1,221.06,8.7Z" transform="translate(452.1 27.49) rotate(180)"/><path class="cls-2" d="M201.8,8.7h5a0,0,0,0,1,0,0V18.79a0,0,0,0,1,0,0h-10a0,0,0,0,1,0,0V13.66A5,5,0,0,1,201.8,8.7Z"/><ellipse class="cls-1" cx="213.9" cy="25.96" rx="10.34" ry="10.44"/><path class="cls-3" d="M19.09,24.75c1.33,0,2.09.75,2,2.21a6.1,6.1,0,0,1-1.36,3.14c-.09.12-.28.24-.12.41s.28,0,.42-.06a16.69,16.69,0,0,0,4.81-3.72,5.61,5.61,0,0,1,1.22-1c.62-.36.64-1.08,1-1.63a5.55,5.55,0,0,1,3.55-3,1,1,0,0,1,1,.27,1,1,0,0,0,1.55-.06,1.5,1.5,0,0,1,.9-.55.94.94,0,0,0,.73-.65c.1-.24.2-.48.31-.72a.3.3,0,0,1,.35-.17c.14,0,.18.15.22.26a.82.82,0,0,1,0,.18A4,4,0,0,1,34,22.51a6.33,6.33,0,0,0-1.47.93,1.42,1.42,0,0,1-2,.05,1.57,1.57,0,0,0-2.18.36.87.87,0,0,0,.16,1.27c1.2,1,1.23,1.23.25,2.47-.63.81-.78.89-1.73.58a2.68,2.68,0,0,0-2.68.81,15.92,15.92,0,0,1-6,3.21,2.29,2.29,0,0,0-.78.45,15.63,15.63,0,0,1-4,2.4,3.68,3.68,0,0,1-3.77-.28,3.45,3.45,0,0,1-1.13-2.3,4.6,4.6,0,0,1,0-1.55,21.89,21.89,0,0,1,1.75-6.65,1.41,1.41,0,0,1,.14-.26.56.56,0,0,1,.73-.25c.3.15.15.42.07.64a16.91,16.91,0,0,0-.91,3.78,3.11,3.11,0,0,0,.59,2.5,3.07,3.07,0,0,0,2.42.7c.33-.13.38-.37.13-.6a1,1,0,0,1-.15-1.31,9.5,9.5,0,0,1,4.65-4.58,1.12,1.12,0,0,1,.29-.09Zm-2.16,5.82a3.42,3.42,0,0,0,2.32-1.7,1.25,1.25,0,0,0-1.13-1.94,4.15,4.15,0,0,0-3.54,2c-.24.36-.13.62.19.87A4.82,4.82,0,0,0,16.93,30.57Z"/><path class="cls-3" d="M47.29,2.08a6,6,0,0,1-1.61,2.67,32.44,32.44,0,0,1-5.33,3.89c-4.42,2.71-8.87,5.38-13.28,8.11-3.1,1.92-6.24,3.76-9.18,5.92A24.25,24.25,0,0,0,13,27.13c-.18.23-.4.32-.62.16s-.18-.49,0-.7c.68-1,1.33-2,2.09-2.86a26.7,26.7,0,0,1,6-5c2.5-1.64,5-3.22,7.57-4.78s4.8-3,7.23-4.39C38,7.89,40.73,6.19,43.4,4.39c.86-.58,1.71-1.19,2.57-1.78.34-.23.51-.69,1-.76C47.12,1.82,47.33,1.72,47.29,2.08Z"/><path class="cls-3" d="M56.64,16.42l.35-.35.13-.13h0l.12-.12h0l.12-.12h0c.17,0,.25-.3.46-.13a5.08,5.08,0,0,1-3.29,2.92,5.91,5.91,0,0,0-1.87,1.17c-.35.34-.3,1,.1,1,.77.11,1.5.49,2.26.52,1.39.06,2.79.07,4.18.08,2.75,0,5.44-.51,8.17-.56.63,0,1.34-.15,1.54-1h0l.11-.13h0a.59.59,0,0,0,.16-.06c1.51-1.22,3-2.53,4.56-3.65.14-.1.26-.19.21-.38h0l.14-.12a0,0,0,0,1,.06,0,.12.12,0,0,0,.15-.13l.23-.22A.14.14,0,0,0,74.7,15a.05.05,0,0,1,.07,0c.08,0,.14,0,.14-.1v0c.08,0,.12,0,.11-.1v0a1.24,1.24,0,0,0,1-1l.82-.82a.38.38,0,0,0,.47-.38h0c.16,0,.16-.09.14-.2h0a.11.11,0,0,0,.11-.13h0c.24,0,.3-.33.56-.29s0,.28-.07.38A18.48,18.48,0,0,1,75.56,15c-1.86,1.57-3.77,3.07-5.71,4.54-.19.15-.49.3-.39.61s.45.25.68.21c1.47-.25,3-.46,4.39-.83,1.14-.29,2.31-.31,3.45-.67.72-.23,1.57-.21,2.34-.43.22-.06.51-.23.61.11s-.24.41-.48.49c-.67.24-1.37.41-2.06.6-1.22.34-2.43.68-3.68.9-1.88.33-3.7.93-5.62,1.1-.22,0-.5,0-.63.15-.45.44-1,.25-1.5.28-1.45.09-2.85.47-4.32.54-2.43.13-4.84.51-7.29.43a8.93,8.93,0,0,1-3.42-.46c-.69-.3-.94-.77-.57-1.44a2.2,2.2,0,0,0,.44-1v0a11.83,11.83,0,0,0,1.46-1.56h0l.13-.11h0l2-1c.38-.2.83-.32,1-.78h0l.13-.12h0Z"/><path class="cls-3" d="M105.09,23.72a5.86,5.86,0,0,1-3.55-1,2.29,2.29,0,0,1-.89-2.23c.05-.41.31-.51.64-.3a7.54,7.54,0,0,0,4,1c1.32,0,2.64.1,4,.05a39.58,39.58,0,0,0,7.84-1.07,9.44,9.44,0,0,0,3.69-1.35,1.44,1.44,0,0,0,.49-.52c.1-.21.25-.33.48-.2a.38.38,0,0,1,.13.53,7,7,0,0,1-.73,1.09,7.16,7.16,0,0,1-3.06,2,34.8,34.8,0,0,1-8,1.63C108.44,23.61,106.78,23.6,105.09,23.72Z"/><path class="cls-3" d="M177.68,26a6.43,6.43,0,0,1,.24-3,11.46,11.46,0,0,1,.61-1.43c0-.09.09-.2.21-.17s.17.15.19.27a4.75,4.75,0,0,1-.13,1.25c-.16,1.41-.23,2.83-.26,4.26A4.18,4.18,0,0,1,177.12,30a.6.6,0,0,1-.56.17,1.54,1.54,0,0,0-1.56.79,7.29,7.29,0,0,1-1,1.17,6.39,6.39,0,0,1-2.77,1.23,31.07,31.07,0,0,1-6.14.66,12.75,12.75,0,0,1-2.09-.16,2.23,2.23,0,0,1-2-2.34,5.86,5.86,0,0,0-.08-1.07.51.51,0,0,1,.26-.62c.3-.11.37.18.45.37a1.87,1.87,0,0,0,1.58,1.19,20.35,20.35,0,0,0,6.28.11c.57-.08,1.16-.1,1.73-.17,1.75-.19,3.4-.59,4.51-2.14a.91.91,0,0,1,.94-.4.68.68,0,0,0,.86-.61A10.06,10.06,0,0,0,177.68,26Z"/><path class="cls-3" d="M109.3,43.18a1.58,1.58,0,0,1,1.47-1.52,1.11,1.11,0,0,1,1.08.49c.25.4.5.47.87,0a1.48,1.48,0,0,1,2-.24.3.3,0,0,0,.46-.09,1.17,1.17,0,0,0,.26-.72c0-.28.22-.38.44-.4s.3.15.36.34a1.41,1.41,0,0,0,1.41.8c.48-.13,1,.06,1.45-.2a.64.64,0,0,1,.71.22c.25.26.45.2.73,0a1.16,1.16,0,0,1,1.87.77c0,.17,0,.39.27.4s.25-.19.3-.33a1.37,1.37,0,0,1,.61-.78,1.38,1.38,0,0,1,2.21.64c.07.14.09.36.29.33s.2-.27.19-.44c0-.46,0-.83.62-.6.23.08.47-.08.7-.14a1.23,1.23,0,0,1,1.65,1.13,14.91,14.91,0,0,0,.1,2,.4.4,0,0,1-.43.52c-.3,0-.59-.08-.6-.45a7.29,7.29,0,0,1,.06-1.44c.09-.48-.22-1-.55-1a.76.76,0,0,0-.64.87c0,.46,0,.92,0,1.38s-.07.56-.43.6-.55-.22-.61-.53a7.37,7.37,0,0,1,0-.9c0-.15,0-.34-.15-.42s-.26.07-.36.16a1.4,1.4,0,0,1-1.26.2c-.26,0-.57-.11-.63.24s.25.47.54.51a1.61,1.61,0,0,0,.88-.11.38.38,0,0,1,.57.32c0,.28,0,.52-.37.56-1.21.12-1.88.18-2.49-1.08-.05-.1-.08-.24-.24-.21s-.15.17-.15.29,0,.36,0,.54a.46.46,0,0,1-.92,0c0-.56,0-1.12,0-1.68,0-.34,0-.73-.47-.75a.88.88,0,0,0-.74.87,8.75,8.75,0,0,1,.07,1.38c0,.31,0,.64-.46.63s-.47-.3-.46-.63c0-.48,0-1,0-1.44s-.07-.83-.58-.79-.67.44-.6.88a10.24,10.24,0,0,1,.06,1.38c0,.55-.2.73-.7.52-.25-.1-.46.14-.66,0a.52.52,0,0,0-.24-.53c.78.14.71-.38.68-.87,0-.26,0-.52,0-.78,0-.75,0-.74-.7-.6a.55.55,0,0,0-.5.62c0,.46,0,.92,0,1.37-.51-.82-.19-2.18.65-2.41-.4-.12-.77-.19-.86-.61a.14.14,0,0,0-.24-.07c-.2.24-.55.54-.37.82a3.1,3.1,0,0,1,.28,1.8c0,1.07.07,1.14,1.1,1.33-.51.16-.94.14-1.21-.44s-.46-.48-.74,0a1.61,1.61,0,0,1-2.19.3c-.33-.33-.5-.36-.76,0a.26.26,0,0,1-.32.09c.23-.42,0-.49-.36-.46-.2,0-.45.28-.6-.07a4.86,4.86,0,0,1,2.32-.1c-.08.19-.26.48.09.52a1.83,1.83,0,0,0,1.5-.18c.42-.34.31-.77.19-1.2.23-.07.39.37.57.16a1.2,1.2,0,0,0,.07-1,.4.4,0,0,0-.58-.33.73.73,0,0,1-.8-.24c.14-.1.47.08.45-.23s-.3-.25-.51-.26a1.16,1.16,0,0,0-1.25,1.33c-.12,0-.3,0-.33,0-.48.78-1.21.69-2,.6-.43-.05-.51.2-.46.55-.37,0-.37-.27-.2-.5a1,1,0,0,0,.21-.71,3.22,3.22,0,0,0,1.12.05c.16,0,.33-.08.37-.26s-.09-.3-.21-.4c-.5-.44-1.11-.15-1.28.61C109.76,43.14,109.52,43,109.3,43.18Zm15.79.06c.06.18.12.39.35.26s.22-.53.17-.81-.28-.26-.49-.12a1.39,1.39,0,0,0-.85-.21.55.55,0,0,0-.48.53c0,.29.25.32.47.34S124.81,43.24,125.09,43.24Zm-2.83.31c0-.24,0-.48,0-.72a1.13,1.13,0,0,0-1-1c-.13,0-.26,0-.3.16s.1.18.21.2c.33.05.46.3.55.57a3.5,3.5,0,0,1,.05,1.83c0,.21,0,.45.25.45s.31-.24.25-.44A3.84,3.84,0,0,1,122.26,43.56Zm-2.51,1.19c0,.14,0,.45.3.43s.25-.32.24-.54a3.83,3.83,0,0,1,.11-1.94.21.21,0,0,0-.08-.31.58.58,0,0,0-.47,0c-.14,0-.14.19-.11.3A5.9,5.9,0,0,1,119.75,44.74Zm-2-.07c0,.13,0,.41.29.39s.24-.26.23-.47a3.6,3.6,0,0,1,.09-1.83c.09-.19.17-.37,0-.56a.21.21,0,0,0-.27-.06.52.52,0,0,0-.27.49A12.8,12.8,0,0,1,117.71,44.67Zm6.79.57c.36,0,.58,0,.79,0a.24.24,0,0,0,.21-.31c0-.2-.2-.19-.33-.12a1.19,1.19,0,0,1-1.51-.3c-.07-.07-.16-.14-.26,0s0,.19,0,.26C123.76,45.05,124.1,45.35,124.5,45.24Zm2.68-2.78c0-.16-.15-.17-.27-.17s-.3.11-.28.31a.2.2,0,0,0,.25.19A.41.41,0,0,0,127.18,42.47Zm-7.94-.58c-.12,0-.22.08-.2.19s.22.21.37.24.22,0,.18-.16A.38.38,0,0,0,119.23,41.88Z"/><path class="cls-3" d="M93.09,27.12a.53.53,0,0,1,.62-.43,1.08,1.08,0,0,0,1-.56c.15-.23.35-.44.49-.68.42-.73,1.22-.52,1.83-.77.09,0,.2.06.23.16a1.28,1.28,0,0,1-.15,1.1c-.17.27-.42.59-.77.46-.79-.3-1.11.23-1.4.74a1.65,1.65,0,0,1-1.5,1c-.58,0-.81.61-1.08,1a4.15,4.15,0,0,1-.84.93,1.21,1.21,0,0,1-1.6-.25c-.16-.15-.34-.48-.57-.21a.63.63,0,0,0,0,.92c.14.14.32.24.46.38a2.27,2.27,0,0,1,.31,2.47A9.35,9.35,0,0,1,88.17,37a5,5,0,0,1-2.86,1.65,2.76,2.76,0,0,1-2.76-1.6,4.25,4.25,0,0,1-.22-2.46,14.33,14.33,0,0,1,1.53-4.32c.25-.47.52-.93.73-1.42.07-.17.12-.37.36-.32a.42.42,0,0,1,.33.45.81.81,0,0,1-.12.51,15.55,15.55,0,0,0-.94,2c-.29.62-.42,1.28-.68,1.9a1.87,1.87,0,0,0,1.32,2.66,3.61,3.61,0,0,0,4-1.66c.35-.64.31-.83-.3-1.2-1-.63-1.17-1.11-.61-2.17A25.26,25.26,0,0,1,89,28.71a1.73,1.73,0,0,0,.14-1,10.63,10.63,0,0,1,1-4.64,7.93,7.93,0,0,1,2.46-3c1-.71,1.88-1.49,2.82-2.24a2,2,0,0,1,.86-.53c0,.22-.22.34-.36.46-.66.54-1.36,1-2,1.61a16.08,16.08,0,0,0-2.43,2.11c-.11.14-.33.28-.18.45s.3-.07.42-.17c.78-.62,1.53-1.27,2.32-1.88a48.53,48.53,0,0,0,5.4-4.63A11.35,11.35,0,0,0,101,13.26c-.37-.07-.43.28-.67.26a3.85,3.85,0,0,1,.94-1.23c.12-.12.29-.22.43-.1a.36.36,0,0,1,0,.5,20.65,20.65,0,0,1-3,3.73c-2.22,2.08-4.76,3.77-7,5.77a1.34,1.34,0,0,1-.3.2.87.87,0,0,0-.56,1.08c.12.66-.28,1.27-.38,1.93a6.17,6.17,0,0,0-.07,1.19,1.34,1.34,0,0,0,.81,1.24,1.41,1.41,0,0,0,1.41-.25c.15-.1.28-.22.43-.33l0,0c-.31.56-1.22,1.14-1.62,1a2,2,0,0,1-1.34-2,4.93,4.93,0,0,0,.12-2,.31.31,0,0,0-.27.27,10,10,0,0,0-.4,2.83,1.81,1.81,0,0,1-.14,1,.51.51,0,0,0,.29.81,1.65,1.65,0,0,1,.41.35,1,1,0,0,0,1.58,0,5.51,5.51,0,0,0,.59-.68c.48-.63.92-1.33,1.89-1.25.22,0,.36-.16.45-.35a1.67,1.67,0,0,1,1.81-1.23c.44,0,.66-.43.58-.82s-.35.05-.53,0-.16,0-.24,0a1,1,0,0,0-.93.51c-.39.52-.71,1.19-1.55,1.13-.22,0-.4.17-.58.29ZM82.65,35c0,.35,0,.58,0,.8a2.39,2.39,0,0,0,.49,1.8,3.51,3.51,0,0,0,3.52.4,6.79,6.79,0,0,0,2.53-2.88,12.66,12.66,0,0,0,.73-2.4A1.53,1.53,0,0,0,89.44,31c-.21-.2-.49-.3-.56-.66s-.31-.15-.39,0a15.77,15.77,0,0,0-.64,1.53.6.6,0,0,0,.26.68,5,5,0,0,0,.62.46.87.87,0,0,1,.44,1.2,2.56,2.56,0,0,1-.49.81,3.82,3.82,0,0,1-3.27,1.4,2.34,2.34,0,0,1-2-3.53,11.25,11.25,0,0,1,.7-1.64c.08-.11.11-.36-.07-.42s-.23.15-.29.29-.14.42-.23.62A5.81,5.81,0,0,0,82.65,35Zm1.61-4.64c.22-.08.33-.2.29-.41,0,0-.1-.09-.13-.08C84.22,29.93,84.2,30.1,84.26,30.34Zm4.67-.55c0-.07.09-.12.09-.16s0-.15-.14-.12-.06.1-.06.15S88.88,29.73,88.93,29.79Z"/><path class="cls-3" d="M3.88,12.6c0-.32.1-.55.46-.58s.55,0,.69.25a.69.69,0,0,1-.12.84,1.07,1.07,0,0,0-.46,1.38c0,.12-.06.31-.15.44A1.69,1.69,0,0,0,4,16c0,.2-.11.51.2.55s.48-.2.58-.44,0-.59.41-.61.67,0,.83.4.29.12.42,0,.26-.29.46-.19a.46.46,0,0,1,.2.52,1,1,0,0,1-.3.7.81.81,0,0,0-.29.75c0,.34,0,.72.34.89a1.27,1.27,0,0,0,1.26-.09A3.67,3.67,0,0,0,8.61,18c.22-.21.2-.4,0-.61A1,1,0,0,1,8.38,16a5.66,5.66,0,0,0,1.07-1.84c.12-.42.57-.43.9-.17s.43.26.65,0c.08-.1.17-.26.34-.18a.47.47,0,0,1,.25.45,2.24,2.24,0,0,1-.29,1.21,1.27,1.27,0,0,0-.17.87.47.47,0,0,0,.4.4c.25,0,.36-.11.42-.33a1,1,0,0,1,.94-.78,1.11,1.11,0,0,0,.68-.34,4,4,0,0,1,1.67-.62c.27-.09.37.17.2.37s-.5.8-1.06.79c-.23,0-.44.11-.35.36.22.63-.24.86-.63,1A6.39,6.39,0,0,0,12,18c-.83.65-1.51,0-1.68-.81a2.59,2.59,0,0,1,0-1.42c.05-.15.1-.38-.11-.48s-.34.06-.47.18a1.68,1.68,0,0,1-.31.28c-.44.22-.39.42-.1.77a1.72,1.72,0,0,1-.08,1.84,7.7,7.7,0,0,1-.79,1,1.68,1.68,0,0,1-1.91.44A1.89,1.89,0,0,1,5.77,18c.1-.7.1-.7-.54-.48,0-.22.37-.39.14-.58a.83.83,0,0,0-.84-.13c-.52.2-.71,0-.75-.53a2,2,0,0,0-.12-1,2.86,2.86,0,0,0-.13,2c.19.68.68.76,1.58.35a.74.74,0,0,1-.79.58.93.93,0,0,1-.92-.73c-.19-1.08-.47-2.22.39-3.19.09-.1.22-.22.09-.36a.31.31,0,0,0-.44,0c-.49.45-1.15.76-1,1.66a8.43,8.43,0,0,1-.38,3.19.92.92,0,0,1-.14.25c-.25-.08-.16-.27-.17-.41a15.28,15.28,0,0,1,.16-3.4,2.38,2.38,0,0,1,1.41-2.09c-.11.39-.62.52-.69,1.08a2.9,2.9,0,0,1,1.17-.63,3,3,0,0,0,.87-.51.46.46,0,0,0,.09-.73.44.44,0,0,0-.68.06Zm4.9,5.82c-1,.57-1.83.86-2.65-.08.09.75.38,1.17.8,1.24C7.64,19.7,8.28,19.34,8.78,18.42Zm2.05-1.72c-.06,0-.14.08-.14.12a.67.67,0,0,0,.09.63c.2.21.37.53.73.41a1.38,1.38,0,0,0,.8-.48.14.14,0,0,0-.09-.19C11.76,17,11.22,17.1,10.83,16.7ZM10,14.12a.71.71,0,0,0-.51.61c0,.27.23.28.43.26s.39-.24.36-.5S10.26,14.12,10,14.12Z"/><path class="cls-3" d="M183.16,40.78l1,.09a.9.9,0,0,1,.72.65.46.46,0,0,1,0,.46c-.14.18-.3,0-.44,0s-.45-.18-.68-.25a1.28,1.28,0,0,0-1.79.7,1.49,1.49,0,0,0,.91,2.09c.32.11.62.08.75-.27s-.12-.49-.39-.57-.55-.22-.49-.57.39-.34.67-.34h.42c1,0,1,0,1,1a1.93,1.93,0,0,0,0,.24c0,.25-.06.59.3.62s.37-.3.45-.55c.34-1,.69-2,1-3,.12-.37.44-.29.71-.3s.62-.07.82.33c.35.7.49,1.48.8,2.19a8.57,8.57,0,0,0,.5,1.22c.14.23.25.51,0,.72a.63.63,0,0,1-.78,0,1.46,1.46,0,0,1-.36-.39,1.09,1.09,0,0,0-1.88.07.81.81,0,0,1-1.23.28.65.65,0,0,0-.75,0,2.81,2.81,0,0,1-3.44-.84,2.37,2.37,0,0,1,0-2.46C181.32,41.07,182,40.78,183.16,40.78Zm4.07,1.46c-.41.18-.36.56-.4.87s.16.52.5.5.52-.11.44-.42S187.66,42.41,187.23,42.24Z"/><path class="cls-3" d="M51.8,20.15a2.2,2.2,0,0,1-.44,1c-.36.68-.11,1.15.57,1.44a8.93,8.93,0,0,0,3.42.46c2.45.08,4.86-.31,7.29-.43,1.47-.08,2.87-.46,4.32-.54.51,0,1,.16,1.5-.28.13-.13.41-.13.63-.15,1.91-.17,3.74-.77,5.62-1.1,1.25-.22,2.46-.56,3.68-.9.69-.19,1.38-.36,2.06-.6.24-.08.58-.14.48-.49s-.39-.18-.61-.11c-.77.22-1.61.21-2.34.43-1.14.36-2.31.38-3.45.67-1.44.37-2.93.58-4.39.83-.23,0-.57.12-.68-.21s.2-.47.39-.61c1.93-1.47,3.85-3,5.71-4.54a18.48,18.48,0,0,0,2.49-2.75c.07-.09.19-.22.07-.38s-.32.29-.56.29a4.94,4.94,0,0,1,1.19-1.48c.11-.11.24-.17.37-.07s.1.27,0,.42a16.83,16.83,0,0,1-2.26,3,50,50,0,0,1-4.77,4.11c-.61.49-1.24.95-1.85,1.42-.11.08-.27.16-.21.32s.24.07.36,0c2.11-.55,4.29-.68,6.42-1.14,1.16-.25,2.34-.48,3.52-.66.27,0,.69-.24.84.19s-.12.74-.54.92a28.39,28.39,0,0,1-3.13,1c-1,.32-2.09.49-3.14.74a36.66,36.66,0,0,1-3.64.69c-.78.11-1.49.45-2.28.51a.3.3,0,0,0-.25.24,9.21,9.21,0,0,0-.47,3.6,1.18,1.18,0,0,0,1.84.89,4.7,4.7,0,0,1,2.1-.89.39.39,0,0,1-.39.32A2.5,2.5,0,0,0,69.9,27a1.45,1.45,0,0,1-1.62.24,1.57,1.57,0,0,1-.79-1.57,11.87,11.87,0,0,1,.08-1.37c.05-.31.23-.85-.14-.93s-.26.55-.3.87c-.14,1-.17,2.1-.36,3.15a1.28,1.28,0,0,1-.44.82L64.1,30c.19-.66.77-1,1.28-1.28a2.27,2.27,0,0,0,1.28-2.08c0-1.13.32-2.21.38-3.33a1,1,0,0,1,.28-.52.33.33,0,0,0,0-.39c-.09-.14-.24-.11-.38-.08a52.69,52.69,0,0,1-9,1,38.86,38.86,0,0,1-4.5,0,8.44,8.44,0,0,1-2.17-.66c-.38-.14-.5-1-.22-1.53A2.8,2.8,0,0,1,51.8,20.15Z"/><path class="cls-3" d="M111.39,29.27c-1.63,0-2.6,1-3.48,2.09-.52.66-.92,1.42-1.46,2.06a12.84,12.84,0,0,1-3.52,2.88c-.39.22-.71.61-1.21.61-.11,0-.25.11-.31,0a.52.52,0,0,1,0-.34.87.87,0,0,1,.45-.38,15.81,15.81,0,0,0,5.4-5.44c1.1-1.65,2.37-3.15,4.44-3.65a1,1,0,0,1,.41-.08c.88.2,1.35-.29,1.72-1s1.13-1.39,1.5-2.24c.15-.36.52-.24.74,0a5.18,5.18,0,0,1,.6.9c.3.59-.15,1.59-.78,1.53-1.54-.15-2,1-2.65,2C112.8,28.87,112.33,29.51,111.39,29.27Z"/><path class="cls-3" d="M50.54,41.24c-.19-.27,0-.42.21-.49s.35.09.39.28,0,.59.28.6c.46,0,.83.41,1.33.22A3,3,0,0,1,54,41.67a1.31,1.31,0,0,1,1.28,1.05c0,.15,0,.35.22.38s.3-.16.38-.32a2,2,0,0,1,2.68-1,.39.39,0,0,1,.22.39c0,.22,0,.44,0,.66s0,.29.2.33.23-.12.3-.23.12-.43.36-.53l-.12,2.08-.15-.1c-.18-.12-.1-.57-.46-.42s-.15.43-.14.66c.06.84-.05,1.56-.94,1.94a1.88,1.88,0,0,1-1.51,0A.5.5,0,0,1,56,46c.1-.33.38-.24.6-.19a1.54,1.54,0,0,0,.94,0c.19-.07.38-.2.31-.44s-.29-.18-.49-.11a1.22,1.22,0,0,1-1.43-.67c-.06-.12-.1-.27-.17-.38s-.15-.26-.32-.2-.16.22-.16.36a2.47,2.47,0,0,0,.06.35c.08.41-.11.65-.5.64-.74,0-1.52.34-2.22-.17-.31-.23-.49.36-.81.12a.36.36,0,0,0-.12-.56.6.6,0,0,0,.59-.68.7.7,0,0,1,.62-.73c0,.14-.1.21-.17.3a.91.91,0,0,0-.09,1.11,1,1,0,0,0,1.18.48,1.53,1.53,0,0,1,.59-.06c.55,0,.71-.23.65-.73A3.74,3.74,0,0,1,55,43.39a1.19,1.19,0,0,0-1.47-1.52c-.18,0-.48,0-.41.31s.3.07.47.07.7-.25.82.29a1.64,1.64,0,0,0-1.1,0,1,1,0,0,1-.64.06,1.59,1.59,0,0,0-1.54.23c-.1-.52.34-.56.69-.75a.82.82,0,0,1-.81-.69C50.91,41,50.72,41.15,50.54,41.24Zm7.52,2.17c0-.34.07-.85-.48-1s-.93.34-1,.89c-.12.71.15,1.28.64,1.35S58.06,44.32,58.06,43.41Z"/><path class="cls-3" d="M176.09,43c0,.56,0,1.12,0,1.68s-.2.61-.61.62-.58-.23-.55-.61.09-.76.1-1.14c0-.21,0-.49-.27-.52s-.3.21-.36.4l-.07.23c-.08.27-.16.55-.52.57s-.49-.22-.62-.48-.17-.36-.26-.54-.13-.21-.28-.17-.17.16-.18.28a5.35,5.35,0,0,0,.1,1.19c.08.4,0,.73-.49.77s-.61-.23-.6-.67c0-1.08,0-2.16,0-3.24,0-.26,0-.59.32-.6s.87-.23,1.12.28a5,5,0,0,1,.49,1.22c.09.43.32.41.58.13a2.74,2.74,0,0,0,.48-1,1.07,1.07,0,0,1,1.3-.64c.26.08.31.27.31.51C176.09,41.89,176.09,42.47,176.09,43Z"/><path class="cls-3" d="M136.12,24.54l.14-.4a.23.23,0,0,0,.07-.26l.06-.34c.23-.13.42-.16.43.2s0,.51,0,.77l0,.48a7.71,7.71,0,0,0-.09,2.3A8.06,8.06,0,0,1,136,31l-.21.49a.64.64,0,0,0-.28.46,1.78,1.78,0,0,1-.64.86l-.78.47a1.53,1.53,0,0,1-.73,0c-.07-.12-.2-.11-.31-.12a1.09,1.09,0,0,1-.4-.49c-.06-.28-.16-.58-.45-.65s-.35.27-.5.44-.14.14-.2.22c-.53.69-1.44.63-2.1,1.06h-.26c-.11-.11-.26-.19-.21-.38a1.07,1.07,0,0,1,.49-.29.23.23,0,0,0,.23-.16,5.92,5.92,0,0,0,2.86-2.85.23.23,0,0,0,.14-.24l.25-.74c.66-.48.38.18.47.39l0,.34a.44.44,0,0,0,0,.61l.36.36c.39.33.79.52,1.24.08a2,2,0,0,0,.84-1,.24.24,0,0,0,.1-.28l.05-4.2Z"/><path class="cls-3" d="M101.3,26.68A3.9,3.9,0,0,1,99,30.27a2.46,2.46,0,0,0-1.23,1.43,3.09,3.09,0,0,1-3.14,2.13c-.2,0-.43,0-.52-.21s.12-.4.31-.51.49-.27.75-.38a5,5,0,0,0,2.63-2.52,3.08,3.08,0,0,1,1.5-1.49,2.08,2.08,0,0,0,.36-.22c.23-.18.55-.34.4-.71s-.44-.24-.72-.21c-.6.07-1-.4-.76-1a6.49,6.49,0,0,1,.92-1.68.68.68,0,0,1,1.1,0A2,2,0,0,1,101.3,26.68Z"/><path class="cls-3" d="M150.06,25.44l-.08.13a.24.24,0,0,0-.16.24l-.07.13a.24.24,0,0,0-.17.23l-.18.25a1.52,1.52,0,0,0-.21.2,8,8,0,0,1-1.88,2.05,1.27,1.27,0,0,0-.51.58L145.6,30a1.16,1.16,0,0,0-.72.41l-.12.07c-.13,0-.34.09-.37,0s.17-.26.17-.44c.26-.49.79-.67,1.19-1a13.87,13.87,0,0,0,3.58-4A9.69,9.69,0,0,1,152.26,22a4,4,0,0,1,1.86-.6,1.61,1.61,0,0,0,1.36-.73,5.92,5.92,0,0,1,.75-.77.24.24,0,0,0,.25-.17l.21-.09a.5.5,0,0,0,.51-.29l.16-.17c.15,0,.28-.19.43,0s0,.33,0,.49-.35.33-.35.59l-.06.12-.41.24-.21,0a.51.51,0,0,0-.53.26l-.18.19a.62.62,0,0,0-.42.47l-.42.61a.23.23,0,0,0-.18.25l-.07.11a.23.23,0,0,0-.18.24l-.07.12a.38.38,0,0,0-.29.36l-.07.12a2.78,2.78,0,0,1-1.28.13,2.56,2.56,0,0,0-1.79.64l-.13.07A2.13,2.13,0,0,0,150.06,25.44Z"/><path class="cls-3" d="M49,28.08v-.19c.22-.19.14-.45.13-.68a8,8,0,0,1,.39-2.65c.06-.19.08-.52.36-.45s.13.35.08.53a4.13,4.13,0,0,0-.09.71,11.7,11.7,0,0,1-1.36,5.14c-1,1.71-2.2,3.14-4.38,3.26-1.05.06-2.29-.13-2.76-1.37a6.62,6.62,0,0,1-.28-2.28c0-.26,0-.68.31-.7s.19.41.28.64.08.35.15.52a2.09,2.09,0,0,0,1.63,1.27,4.68,4.68,0,0,0,4-1.08A3.65,3.65,0,0,0,49,28.08Z"/><path class="cls-3" d="M80.72,22.06c-.37,1.81-.17,3.71-.55,5.52a3.38,3.38,0,0,1-1.94,2.71,2,2,0,0,0-1.08,1.14,3.58,3.58,0,0,1-1.69,2.09,4.42,4.42,0,0,1-1.69.28.37.37,0,0,1-.41-.28c0-.23.17-.29.32-.38l1.78-1A2.59,2.59,0,0,0,76.59,31a4.82,4.82,0,0,1,2-2.36,1.67,1.67,0,0,0,.8-1.52,21.24,21.24,0,0,1,.33-4,9.86,9.86,0,0,0,.5-1.6.18.18,0,0,1,.21-.17.26.26,0,0,1,.27.19A5.27,5.27,0,0,1,80.72,22.06Z"/><path class="cls-3" d="M154.62,40.74a2.33,2.33,0,0,1,1.11.19.5.5,0,0,1,.24.67c-.12.29-.39.15-.56,0a1.42,1.42,0,0,0-1.68-.1,2.05,2.05,0,0,0-.61,2.08,1.42,1.42,0,0,0,2.2.94c.11-.05.24-.16.33-.13.78.23.65-.34.65-.74a1.68,1.68,0,0,1,.65-1.63,1.13,1.13,0,0,1,1.48-.08,1.93,1.93,0,0,1,.35,3.1,1.53,1.53,0,0,1-2,0l-.32-.36c-.2-.22-.44-.32-.52,0-.13.54-.5.59-.95.64a2.11,2.11,0,0,1-2.55-1.5,2.41,2.41,0,0,1,.91-2.83C153.71,40.77,153.84,40.74,154.62,40.74Zm2.29,2.91c0,.33,0,.73.35,1,.62.39,1.27,0,1.39-.83.09-.62-.4-1.46-.85-1.47S156.91,42.83,156.91,43.65Z"/><path class="cls-3" d="M29.34,10.72l.2-.07a.64.64,0,0,0,.64-.41l.18-.09a.15.15,0,0,0,.16-.11l.14-.09a.57.57,0,0,0,.49-.31l.19-.08.15-.12.21-.13.16-.1a.1.1,0,0,1,.07,0l.16-.11h0a2,2,0,0,0,1.09-.72h0c.22,0,.42-.08.5-.32l.22-.15a1.27,1.27,0,0,0,.86-.56.19.19,0,0,1,.1,0,.23.23,0,0,0,.26-.18.19.19,0,0,1,.1-.06,6.71,6.71,0,0,0,2.07-1.39.2.2,0,0,1,.1-.05,4.45,4.45,0,0,0,1.7-1.16l.23-.16a7.48,7.48,0,0,0,1.77-1.08c.36-.23.8-.38,1-.8a.17.17,0,0,1,.09-.06,1.54,1.54,0,0,0,1-.67.18.18,0,0,1,.09,0,.36.36,0,0,0,.39-.3l.18-.08L44,1.14h0c.38-.06.58-.41.9-.55.12-.05.24-.21.37-.07s0,.27-.07.38a3.21,3.21,0,0,1-.74.78c-1.12,1-2.31,1.83-3.51,2.7S38.34,6.18,37,7s-2.81,1.65-4.23,2.45q-1.46.83-2.94,1.61c-.16.08-.38.24-.55.09S29.32,10.87,29.34,10.72Z"/><path class="cls-3" d="M49.76,43.68c0,.4,0,.8,0,1.2s0,.49-.37.51-.47-.22-.48-.49c0-.52.05-1,0-1.56,0-.32.07-.76-.42-.79a.94.94,0,0,0-1,.89c0,.46,0,.92,0,1.38,0,.3-.11.51-.43.55a.52.52,0,0,1-.59-.39,3.42,3.42,0,0,1-.06-1c0-.25-.09-.5-.39-.33a2.61,2.61,0,0,1-1.58.22c-.21,0-.49,0-.53.25s.18.44.43.5a2,2,0,0,0,1,0c.26-.07.61-.15.67.26s-.21.58-.58.58c-.83,0-1.72.2-2.2-.79a2.23,2.23,0,0,1,.12-2.24,1.48,1.48,0,0,1,1.42-.73,1.44,1.44,0,0,1,1.29,1c.06.15.06.42.29.38s.17-.29.17-.45c0-.73,0-.71.77-.63.53.06,1-.25,1.58-.19s.77.25.77.77,0,.76,0,1.14Zm-5.11-.45c.36,0,.73.08.74-.36s-.28-.5-.62-.52-.78.14-.78.56S44.44,43.19,44.66,43.23Zm4.9.61a5.47,5.47,0,0,0-.1-1.26c0-.12-.06-.26-.21-.25s-.19.14-.17.27a6.56,6.56,0,0,1,0,2.15.25.25,0,0,0,.2.32c.21,0,.26-.16.26-.33S49.55,44.14,49.55,43.84Zm-4.69,1.39h.56c.18,0,.33-.08.29-.29s-.22-.18-.37-.12a1.07,1.07,0,0,1-1.43-.36c-.08-.11-.19-.28-.33-.16s0,.3.07.41A1.31,1.31,0,0,0,44.86,45.23Zm2.3-2.32c.2-.07.44-.13.45-.39s-.19-.21-.34-.22-.36,0-.37.27S47,42.88,47.16,42.91Z"/><path class="cls-3" d="M145.15,18.43c-.24,1.59-.49,3.14-.7,4.7a12.14,12.14,0,0,0,0,1.68,1.24,1.24,0,0,0,.13.52.49.49,0,0,0,.53.32c.24,0,.3-.25.32-.45s.07-.53.44-.5a.56.56,0,0,1,.57.51A3,3,0,0,1,145.23,28a.72.72,0,0,1-.89,0,1.92,1.92,0,0,1-1-1.69,22.9,22.9,0,0,1,.35-4c.19-1,.24-1.93.51-2.88A1.28,1.28,0,0,1,145.15,18.43Z"/><path class="cls-3" d="M49,28.08a3.65,3.65,0,0,1-1.51,2.67,4.68,4.68,0,0,1-4,1.08,2.09,2.09,0,0,1-1.63-1.27c-.08-.16-.09-.35-.15-.52s0-.65-.28-.64-.32.43-.31.7a6.62,6.62,0,0,0,.28,2.28c.47,1.24,1.71,1.43,2.76,1.37,2.18-.11,3.38-1.55,4.38-3.26a11.7,11.7,0,0,0,1.36-5.14,4.13,4.13,0,0,1,.09-.71c0-.18.13-.48-.08-.53s-.3.26-.36.45a8,8,0,0,0-.39,2.65c0,.23.09.49-.13.68a7.76,7.76,0,0,1,.57-4.1.58.58,0,0,1,.18-.24c.21-.16.35-.57.66-.38s.08.51,0,.79a4.94,4.94,0,0,0-.24,2,11.84,11.84,0,0,1-.62,3,7.53,7.53,0,0,1-2.9,4.21,4.11,4.11,0,0,1-4,.77A2.59,2.59,0,0,1,41,31.66a9.06,9.06,0,0,1,1.28-5.33c.13-.22.17-.49.29-.72a.44.44,0,0,1,.52-.22c.27.06.17.28.16.45,0,.73-.57,1.25-.82,1.89a3.59,3.59,0,0,0-.15,3c.39.81,1.87,1.1,3,.84a4.71,4.71,0,0,0,3.6-3.18A2.47,2.47,0,0,1,49,28.08Z"/><path class="cls-3" d="M71.25,43.52c.24-.1.22-.32.27-.51a1.62,1.62,0,0,1,1.61-1.34c.42,0,.58-.19.56-.59s.09-.61.48-.6.49.29.49.62c0,1.24,0,2.48,0,3.73,0,.3-.1.51-.43.54s-.92.1-1.37.11c-.66,0-1-.42-1.26-.95-.08-.15,0-.49-.32-.4s-.12.34-.13.53.12.74-.44.72c-.38,0-.61-.19-.61-.59a4.14,4.14,0,0,1,.06-1.08,1.31,1.31,0,0,0,0-.3c0-.57-.24-1-.61-.92a1,1,0,0,0-.68,1A7.71,7.71,0,0,1,69,44.8c0,.36-.12.57-.51.59s-.45-.25-.44-.55c0-.86,0-1.72,0-2.59,0-.37.14-.55.51-.41a1,1,0,0,0,.7-.05,1.23,1.23,0,0,1,1.8,1A1.88,1.88,0,0,0,71.25,43.52Zm1-.56c0-.55.61-.55.78-.93-.27-.16-.43,0-.61.11a1.89,1.89,0,0,0-.71,2A1.2,1.2,0,0,0,73,45.23c.22,0,.43-.09.64-.13s.54,0,.67-.28a.33.33,0,0,0-.09-.39c-.27-.22-.38.25-.63.15a2.75,2.75,0,0,0,.22-1.4.86.86,0,0,0-.48-.78c-.3-.13-.53.08-.75.26Zm-3.06-.62c-.93-.34-.95-.33-.95.54,0,.54,0,1.08,0,1.61,0,.21-.13.57.23.55s.2-.37.21-.58C68.67,43.72,68.4,42.93,69.18,42.35Zm1.51.88c.1-.93-.43-1.52-1.08-1.35a.43.43,0,0,0-.24.16c0,.07,0,.15.11.16C70.07,42.23,70.34,42.68,70.69,43.22Z"/><path class="cls-3" d="M122.61,30.26l.23-.23.12-.13h0c.29-.09.33-.39.49-.57s.12-.24.26-.19.11.24.07.36c-.17.4-.33.81-.54,1.2A4.4,4.4,0,0,1,120,33.36a4.67,4.67,0,0,1-2.21-.3l-.35-.34-.12-.15a.09.09,0,0,1,0-.07,2.1,2.1,0,0,0-.52-1.14,4.83,4.83,0,0,1,0-1.29.23.23,0,0,0,.17-.23,17,17,0,0,1,.38-1.87c0-.14.06-.3.25-.26s.1.19.11.3a1.61,1.61,0,0,1-.18.81,2,2,0,0,0,1.75,2.55,8.41,8.41,0,0,0,1.56,0A2.16,2.16,0,0,0,122.61,30.26Z"/><path class="cls-3" d="M155.43,28.94a6.38,6.38,0,0,1-1.54,3.86,4.7,4.7,0,0,1-2.19,1c-.18,0-.49.15-.58-.12s.14-.42.36-.54a7.12,7.12,0,0,0,2.15-1.61c.15-.18.4-.33.31-.6s-.39-.2-.62-.23a.8.8,0,0,1-.71-.92,8.27,8.27,0,0,1,1-2c.18-.28.45-.68.86-.51a1.49,1.49,0,0,1,1,1.08A3.25,3.25,0,0,1,155.43,28.94Z"/><path class="cls-3" d="M178.86,20.84c-.16,0-.25,0-.29-.14s0-.27.11-.38a11,11,0,0,1,2.07-2.08,76.86,76.86,0,0,0,7-6c.41-.43.81-.88,1.23-1.31.13-.14.3-.36.5-.19s0,.32-.12.46a15.37,15.37,0,0,1-3.45,4c-2.11,1.93-4.45,3.59-6.66,5.4C179.08,20.68,178.95,20.77,178.86,20.84Z"/><path class="cls-3" d="M169.21,40.81h1.08c.29,0,.54.06.51.42a.47.47,0,0,1-.56.48c-.3,0-.6-.06-.9-.06s-.55.09-.56.41.28.4.55.4l.72,0c.33,0,.62.07.62.48s-.33.44-.65.44-.48,0-.72,0-.59.15-.58.53a.51.51,0,0,0,.58.54c.32,0,.64,0,1,0a.46.46,0,0,1,.54.5c0,.35-.17.51-.52.5L168,45.27c-.29,0-.53-.1-.46-.46a32.52,32.52,0,0,0,.05-3.41c0-.46.17-.61.6-.58s.68,0,1,0Z"/><path class="cls-3" d="M161.58,20.66a.71.71,0,0,1,.28.76,24.9,24.9,0,0,0-.42,4.84,7.1,7.1,0,0,1-1.16,3.18,1.74,1.74,0,0,1-.92.66,2.65,2.65,0,0,0-1.45,1.66,3.23,3.23,0,0,1-1.41,1.73,4.54,4.54,0,0,1-1.92.36.26.26,0,0,1-.31-.22c0-.19.12-.29.25-.37l1.68-.94a3.23,3.23,0,0,0,1.51-1.58,4.08,4.08,0,0,1,1.82-2.16c1-.52,1.06-1.43,1.09-2.37a17.89,17.89,0,0,1,.27-3.65A14,14,0,0,0,161.58,20.66Z"/><path class="cls-3" d="M178.56,40.82h1.2c.25,0,.42.1.43.39a.42.42,0,0,1-.42.48c-.28,0-.56,0-.84,0s-.79-.08-.81.38.45.41.78.41.4,0,.6,0a.44.44,0,0,1,.46.51c0,.32-.21.41-.48.41s-.6,0-.9,0-.56.16-.56.5a.52.52,0,0,0,.58.55c.34,0,.68,0,1,0a.49.49,0,0,1,.57.54c0,.39-.27.45-.58.45h-2.17a.47.47,0,0,1-.52-.57,24.85,24.85,0,0,0,0-3.48c0-.34.16-.46.48-.46h1.14Z"/><path class="cls-3" d="M165.37,40.79c.41,0,.67.05.93.05.42,0,.56.27.6.62s-.19.59-.58.4a2,2,0,0,0-1.27-.28c-.23,0-.5.11-.51.42s.24.34.45.41l.93.25a1.3,1.3,0,0,1,1.1,1.17,1.5,1.5,0,0,1-1.08,1.44,4.2,4.2,0,0,1-2.2,0,.75.75,0,0,1-.42-.94c.21-.35.48-.15.73,0a2.07,2.07,0,0,0,1.45.22c.21-.05.38-.16.38-.4s-.16-.34-.37-.4c-.41-.11-.82-.19-1.22-.33a1.09,1.09,0,0,1-.9-1.3,1.44,1.44,0,0,1,1.1-1.19A7.12,7.12,0,0,1,165.37,40.79Z"/><path class="cls-3" d="M64.1,30l2.24-1.78a1.28,1.28,0,0,0,.44-.82c.19-1,.21-2.1.36-3.15,0-.32,0-.92.3-.87s.19.62.14.93a11.87,11.87,0,0,0-.08,1.37,1.57,1.57,0,0,0,.79,1.57A1.45,1.45,0,0,0,69.9,27a2.5,2.5,0,0,1,1.38-.66.39.39,0,0,0,.39-.32h0c.4-.12.54-.7,1.1-.64A2.56,2.56,0,0,1,71,27.14a4.3,4.3,0,0,0-1.83,1.26c-.79.79-1.06.83-1.91.16-.37-.29-.57-.18-.76.15a2.38,2.38,0,0,1-.79.87,5.36,5.36,0,0,0-2.12,2.09,2.7,2.7,0,0,1-2.29,1.69c-.19,0-.43.17-.52-.07s.17-.28.32-.38.39-.13.45-.36h0a1.92,1.92,0,0,0,1.33-.84h0l.12-.12h0l.12-.12h0l.12-.13h0A.31.31,0,0,0,63.5,31h0a.14.14,0,0,0,.1-.16.07.07,0,0,1,0-.07.34.34,0,0,0,.23-.38h0A.31.31,0,0,0,64.1,30Z"/><path class="cls-3" d="M148.32,32.58a1.57,1.57,0,0,1,.36-1.2.85.85,0,0,0,.19-.49,7.87,7.87,0,0,1,1-2.6c.17-.44.55-.25.8-.06a2.11,2.11,0,0,1,.95,1.59A4.42,4.42,0,0,1,150,33.64a1.07,1.07,0,0,1-1.17.22C148.22,33.61,148.32,33.12,148.32,32.58Zm2.07-.83a.65.65,0,0,0-.68-.61.77.77,0,0,0-.7.77c0,.31.11.61.5.63A1,1,0,0,0,150.39,31.76Z"/><path class="cls-3" d="M177.77,33.55a.17.17,0,0,1-.06.09,3.7,3.7,0,0,0-1.14,1.13l-.12.1c-.83.32-1.43,1.08-2.48,1.39.31-.46.74-.56.9-.91l.45-.38.15-.1h0a.33.33,0,0,0,.34-.27h0l.13-.12,1-1,.12-.13h0a.32.32,0,0,0,.26-.35l.1-.13a.32.32,0,0,0,.26-.36h0a.34.34,0,0,0,.25-.36h0a3.32,3.32,0,0,0,1-1.46.16.16,0,0,1,.05-.09A21.8,21.8,0,0,0,181,28.4a.17.17,0,0,1,.09,0,4.85,4.85,0,0,1,2.48-.63.83.83,0,0,0,.9-.7.17.17,0,0,1,.05-.09.53.53,0,0,0,.38-.27,3.24,3.24,0,0,1,1.59-1.21c.11-.06.22-.13.32,0s0,.22,0,.33a1.52,1.52,0,0,1-.89.85,2.39,2.39,0,0,0-1.29,1,13.28,13.28,0,0,0-.86,1.23,1.36,1.36,0,0,1-1.38.74,2.49,2.49,0,0,0-1.62.27A9.94,9.94,0,0,0,177.77,33.55Z"/><path class="cls-3" d="M83.18,29.23c-.38,1.1-.49,2.48-1.51,3.49-.61.61-1.48.67-2.18,1.09a.43.43,0,0,1-.57-.21c-.11-.26.18-.31.34-.41a8.14,8.14,0,0,0,2.1-1.58c.44-.51.38-.75-.28-.86a.68.68,0,0,1-.63-.85,4,4,0,0,1,1-2,.75.75,0,0,1,1.27.1C83.15,28.59,83.19,28.67,83.18,29.23Z"/><path class="cls-3" d="M27.27,45.3c-.09.13-.19.06-.25,0-.31-.37-.57-.5-.9,0a.45.45,0,0,1-.68.05c.15-.11.46-.05.44-.32s-.25-.23-.42-.29-.32-.07-.36-.27c.27.07.54.14.81.23s.48,0,.47-.36c0-.52,0-1,0-1.56,0-.18,0-.36-.26-.41a.84.84,0,0,0-.94.74c0,.3.15.64-.13.91,0-.71-.4-1.52.56-2-.32-.12-.55-.24-.62-.56,0-.12,0-.32-.23-.31s-.18.22-.23.37c-.25.71.14,1.42,0,2.13a1.6,1.6,0,0,0,.71,1.65,1,1,0,0,1-.89-1c0-.42,0-.84,0-1.26a1.4,1.4,0,0,0-.07-.53c-.07-.16-.14-.43-.38-.39s-.16.29-.16.46c0,.72,0,1.44,0,2.16,0,.27,0,.55-.37.55s-.49-.22-.49-.55c0-1.26,0-2.52,0-3.78,0-.3.08-.59.46-.57s.39.29.39.57,0,.36,0,.54,0,.36.19.39.27-.15.33-.3.14-.46.2-.69a.31.31,0,0,1,.31-.24c.15,0,.29.07.3.24,0,.8.62.76,1.15.81a3.38,3.38,0,0,0,.36,0c.7,0,.78.07.79.79q0,.69,0,1.38c0,.4.15.68.57.69s.66-.24.67-.67,0-1.08,0-1.62c0-.36.13-.6.51-.59s.43.29.43.6c0,.68,0,1.36,0,2,0,1-.21,1.14-1.23.86a.66.66,0,0,1,.61-.16c.34.09.43-.1.43-.39,0-.74,0-1.48,0-2.23,0-.16,0-.37-.22-.35s-.2.22-.2.38c0,.46,0,.92,0,1.38a.93.93,0,0,1-1,.94.94.94,0,0,1-.89-1c0-.46,0-.92,0-1.38,0-.14,0-.3-.21-.32s-.23.14-.23.29C26.6,43.45,26.36,44.52,27.27,45.3Zm-4.2-2.37h0c0,.6,0,1.2,0,1.8,0,.18,0,.41.25.39s.2-.22.2-.39q0-1.77,0-3.55c0-.16,0-.36-.22-.36s-.23.2-.23.36C23.07,41.78,23.07,42.36,23.07,42.94Z"/><path class="cls-3" d="M136,40.74a2.21,2.21,0,0,1,1.24.25c.2.15.47.38.31.63s-.49.19-.71,0a2,2,0,0,0-1.07-.3c-.8-.13-1.5.82-1.48,1.67,0,1.09.51,1.71,1.46,1.73a3,3,0,0,0,.6,0c.28,0,.51-.19.47-.52a.51.51,0,0,0-.5-.51c-.33,0-.66,0-.58-.45s.42-.42.76-.38c.91.11,1,.25,1,1.32,0,.83-.28,1.14-1.09,1.19a2.41,2.41,0,0,1-2-.42,2.54,2.54,0,0,1,.25-3.95A2.17,2.17,0,0,1,136,40.74Z"/><path class="cls-3" d="M139.47,20.76l-1.7,1.45c-.24.06-.49.16-.48-.25a4.19,4.19,0,0,1,1.12-1.3c.92-.77,1.79-1.59,2.78-2.28a.23.23,0,0,0,.23-.18l.86-.66a.35.35,0,0,0,.32-.27l.8-.69a10.2,10.2,0,0,0,3-2.82l.89-1c.18,0,.25-.26.48-.18.12.27-.24.4-.19.64l-.19.35a.37.37,0,0,0-.29.37,2,2,0,0,1-.45.62l-.13.14a17.76,17.76,0,0,1-3,3l-.41.35a.22.22,0,0,0-.22.17l-.38.31a.23.23,0,0,0-.22.16l-1,.8a.23.23,0,0,0-.21.16l-.28.2a.22.22,0,0,0-.21.16l-.13.08c-.28,0-.42.26-.58.45l0,0A.38.38,0,0,0,139.47,20.76Z"/><path class="cls-3" d="M9.3,43.92c0,1.74.08,1.38-1.38,1.5l-.36,0a1.22,1.22,0,0,1-1.31-1.07A1.26,1.26,0,0,1,7.37,43.1c.3-.06.84.13.79-.37s-.56-.2-.88-.23c-.58-.06-1.08.26-1.64.27s-.62.3-.58.75,0,.92,0,1.38c0,.26-.05.49-.39.49a.43.43,0,0,1-.46-.45,18.4,18.4,0,0,1,.08-2.88c0-.25.21-.37.43-.22a.74.74,0,0,0,1,0l.06,0c.79.2,1.57-.18,2.35-.08A1.25,1.25,0,0,1,9.3,43C9.31,43.32,9.3,43.62,9.3,43.92Zm-2.13.69A2.07,2.07,0,0,0,8,44.7c.33-.1.6-.3.51-.67s-.39-.4-.72-.31l-.4.09c0-.21,0-.49-.34-.35a1,1,0,0,0-.56,1.15.92.92,0,0,0,1.32.48C7.71,44.81,7.26,45,7.17,44.61Zm-2.76-.84c0,.33,0,.53,0,.72s-.07.57.25.58.2-.35.23-.56c.08-.63-.27-1.32.3-1.87a.19.19,0,0,0-.06-.3c-.15-.09-.27-.26-.47-.22s-.15.17-.16.29A10.18,10.18,0,0,0,4.41,43.77Zm1.65-1.52a.57.57,0,0,0,0-.11l-.13,0s0,.09,0,.09A.49.49,0,0,0,6.06,42.25Z"/><path class="cls-3" d="M162,20.29c-.28-.07-.18-.27-.09-.41a4.66,4.66,0,0,1,1-1.19c2.54-2.13,5.16-4.18,7.63-6.4.64-.58,1.2-1.23,1.8-1.85.15-.16.27-.51.54-.3s0,.42-.14.62A24.52,24.52,0,0,1,167.57,16l-5,4A1.44,1.44,0,0,1,162,20.29Z"/><path class="cls-3" d="M97.17,44c0-.24,0-.48,0-.72s0-.73-.48-.74a.86.86,0,0,0-.67.91,11.93,11.93,0,0,1,.06,1.38.48.48,0,0,1-.53.58c-.36,0-.47-.25-.46-.57,0-.5,0-1,0-1.5s.05-.78-.44-.84c-.31,0-.81.66-.73,1A6.5,6.5,0,0,1,94,44.74c0,.37-.13.66-.54.64s-.43-.38-.38-.68c.14-.82-.13-1.63.05-2.45.07-.31.12-.49.49-.37a.73.73,0,0,0,.59,0,1.09,1.09,0,0,1,1.29.13.46.46,0,0,0,.6,0,1.2,1.2,0,0,1,2,.89c.1.65,0,1.32.11,2,.06.37-.24.47-.54.49a.43.43,0,0,1-.52-.44c0-.32,0-.64,0-1Zm-2.37-2.1c-.13,0-.26,0-.3.15s.11.18.22.21c.52.14.65.56.7,1a8.15,8.15,0,0,1,0,1c0,.27-.27.71.15.74s.16-.45.18-.7c0-.55-.31-1.15.24-1.63a.18.18,0,0,0-.05-.26C95.56,42.21,95.18,42,94.8,41.87Zm-1.12,2.59a3.57,3.57,0,0,0-.06-1.09c0-.36.24-.57.4-.83s0-.27-.16-.31-.38-.11-.46.12a1.62,1.62,0,0,0-.11.58c0,.47.06.95.07,1.42,0,.25-.28.67.11.69S93.65,44.58,93.68,44.46Z"/><path class="cls-3" d="M113.29,35a2.55,2.55,0,0,1-.75,1.27c-.21.23-.49.12-.71-.06a5,5,0,0,1-.47-.46c-.28-.29-.45-.22-.63.12-.45.8-.65.83-1.35.24l-.5-.43c-.13-.12-.22-.29-.08-.42.38-.39.45-.93.75-1.35s.61-.49,1,0a2.14,2.14,0,0,1,.21.36c.08.16.16.35.38.33s.32-.2.44-.36,0-.87.62-.75A1.7,1.7,0,0,1,113.29,35Z"/><path class="cls-3" d="M74.25,29.63a4.14,4.14,0,0,1-2.77,4.09.64.64,0,0,1-.29,0c-.17,0-.41.06-.49-.14s.15-.29.28-.4A11.62,11.62,0,0,0,72.52,32c.58-.65.58-1,0-1.68a1.8,1.8,0,0,0-.25-.26.75.75,0,0,1-.23-1.13,7.48,7.48,0,0,0,.49-1.16c.14-.35.36-.45.64-.19A2.55,2.55,0,0,1,74.25,29.63Z"/><path class="cls-3" d="M68.91,19.79c-.21.81-.92.95-1.54,1-2.73.05-5.43.57-8.17.56-1.39,0-2.79,0-4.18-.08-.76,0-1.48-.41-2.26-.52-.4-.05-.45-.7-.1-1a5.91,5.91,0,0,1,1.87-1.17,5.08,5.08,0,0,0,3.29-2.92c-.21-.16-.29.15-.46.13a.34.34,0,0,1,0-.06.86.86,0,0,1,.58-.7c.11,0,.21,0,.23.12a1.06,1.06,0,0,1-.25.88,6,6,0,0,1-1.65,2,6.1,6.1,0,0,1-1.42.75,8.85,8.85,0,0,0-1.79,1c-.18.1-.42.25-.37.5a.62.62,0,0,0,.57.46,24.77,24.77,0,0,0,2.61.35,101.69,101.69,0,0,0,10.5-.37A3.69,3.69,0,0,0,68.91,19.79Z"/><path class="cls-3" d="M117.79,33.06a4.67,4.67,0,0,0,2.21.3,4.4,4.4,0,0,0,3.24-2.66c.2-.39.37-.79.54-1.2,0-.12.11-.29-.07-.36s-.19.1-.26.19-.21.49-.49.57a5.59,5.59,0,0,1,.39-.93c.27-.42.06-.62-.28-.79-.18-.09-.37-.16-.53-.26a1.33,1.33,0,0,1-.59-1.84c.25-.51.21-1.16.75-1.52a.37.37,0,0,1-.06.34,5.41,5.41,0,0,0-.5,1.88.77.77,0,0,0,.49.88,3.67,3.67,0,0,1,1.16.7c.2.18.38.13.39-.17s0-.64,0-1a1.17,1.17,0,0,0-.89-1.46c-.43-.13-.45-.63-.28-1a5.06,5.06,0,0,1,1.34-1.49c.34-.34.8-.81,1.45-.56.16.06.29-.06.4-.2a3.33,3.33,0,0,0,.52-1.14c0-.14.11-.27,0-.38s-.25,0-.37.09a10.46,10.46,0,0,1-1.46.9,5.74,5.74,0,0,1,1.46-1.22.57.57,0,0,1,.73.05c.2.19,0,.41,0,.61a5.41,5.41,0,0,1-.67,1.47c-.14.18-.28.33-.49.23a1,1,0,0,0-1,.18,4.6,4.6,0,0,0-1.51,1.52c-.24.37-.16.66.24.82a1.37,1.37,0,0,1,.85,1.44,7.2,7.2,0,0,1-2.25,5.47,3.93,3.93,0,0,1-3,1.2A1.93,1.93,0,0,1,117.79,33.06Z"/><path class="cls-3" d="M140.71,29.39a1,1,0,0,0,1.12-.57.41.41,0,0,1,.54-.26c.29.13.15.4.07.58a5.47,5.47,0,0,1-1.36,2,1.6,1.6,0,0,1-1.65.45c-.45-.15-.81.12-1.15.37s-.44.3-.65.12,0-.48.11-.63a6.73,6.73,0,0,1,2.12-2A1.65,1.65,0,0,1,140.71,29.39Z"/><path class="cls-3" d="M9.88,43.49c0-.44,0-.88,0-1.32,0-.28.12-.43.41-.32a1.36,1.36,0,0,0,.93-.08A1.4,1.4,0,0,1,13,43a17.18,17.18,0,0,0,0,1.92.38.38,0,0,1-.4.48c-.31,0-.56-.13-.56-.49s0-1,0-1.5-.07-.83-.6-.88-.76.43-.73.92a8.12,8.12,0,0,0,.08,1.32.49.49,0,0,1-.48.63c-.37,0-.47-.24-.46-.56s0-.44,0-.66,0-.44,0-.66Z"/><path class="cls-3" d="M39,43c0-.6,0-1.2,0-1.8,0-.3.06-.53.42-.5s.59.15.56.55c0,.12-.05.23-.06.35a.82.82,0,0,0,0,.41c.35.64,1,.3,1.47.35s.43-.34.43-.65,0-.4,0-.6a.42.42,0,0,1,.47-.43c.29,0,.38.19.38.44q0,1.92,0,3.84c0,.25-.09.43-.39.42A.41.41,0,0,1,41.8,45a8.33,8.33,0,0,1,0-1c0-.62-.1-.75-.7-.68C40,43.46,40,43.46,40,44.59A1.61,1.61,0,0,1,40,45c-.08.31-.34.37-.61.37s-.36-.2-.36-.45c0-.64,0-1.28,0-1.92ZM42.47,42c0-.25,0-.41,0-.57s0-.41-.25-.38-.27.23-.22.41a1.75,1.75,0,0,1-.11,1.17.58.58,0,0,0-.05.4A2.54,2.54,0,0,1,42,44.68c0,.2,0,.44.3.42s.22-.27.19-.43A8.2,8.2,0,0,1,42.47,42ZM39.2,44.14a2.39,2.39,0,0,0,0,.24c0,.24-.15.63.21.64s.14-.38.15-.6c0-.48-.15-1,.3-1.4a.21.21,0,0,0,0-.32c-.4-.34-.28-.8-.29-1.23,0-.15.08-.38-.14-.4s-.24.23-.22.4A13,13,0,0,1,39.2,44.14Z"/><path class="cls-3" d="M17.55,45.39a2,2,0,0,1-2.21-1.61,2.51,2.51,0,0,1,1.11-2.86,2.85,2.85,0,0,1,2.17,0,.47.47,0,0,1,.31.68c-.18.3-.42.15-.66,0a1.41,1.41,0,0,0-2,.34A2.37,2.37,0,0,0,16.12,44a1.43,1.43,0,0,0,1.6.79.92.92,0,0,0,.55-.22c.17-.16.37-.34.55-.07a.5.5,0,0,1-.16.69A2,2,0,0,1,17.55,45.39Z"/><path class="cls-3" d="M124.88,22a10.46,10.46,0,0,0,1.46-.9c.12-.06.22-.21.37-.09s.07.24,0,.38a3.33,3.33,0,0,1-.52,1.14c-.11.14-.24.26-.4.2-.65-.24-1.11.22-1.45.56A5.06,5.06,0,0,0,123,24.74c-.17.41-.15.91.28,1a1.17,1.17,0,0,1,.89,1.46c0,.32,0,.64,0,1s-.19.35-.39.17a3.67,3.67,0,0,0-1.16-.7.77.77,0,0,1-.49-.88,5.41,5.41,0,0,1,.5-1.88.37.37,0,0,0,.06-.34.08.08,0,0,1,0-.07.34.34,0,0,0,.25-.37h0l.11-.13h0a.46.46,0,0,0,.36-.49h0l.12-.13a.12.12,0,0,0,.12-.12h0a.13.13,0,0,0,.11-.15l.14-.19.12-.13h0l.12-.12h0l.12-.12h0l.12-.12h0l.12-.12h0l.12-.14Z"/><path class="cls-3" d="M60.34,25.86c-.1,1-.21,1.83-.29,2.7A12.14,12.14,0,0,1,58.7,33.3c-.12.23-.19.55-.53.43S58,33.28,58,33.1c.69-1.5.61-3.16,1-4.73a16.86,16.86,0,0,1,.68-2C59.77,26.14,60,26.07,60.34,25.86Z"/><path class="cls-3" d="M185.07,20.77a1.1,1.1,0,0,1-.33.75c-.2.27-.22.45.21.51a1.46,1.46,0,0,1,1.11,1.85,1.87,1.87,0,0,1-.19.37c-.64,1-.77,1.05-1.64.22-.32-.31-.52-.36-.75.12-.35.73-.64.76-1.26.2-.13-.12-.28-.23-.42-.34a.49.49,0,0,1-.13-.77,7.56,7.56,0,0,0,.66-1.21c.23-.5.52-.43.84-.13a4.75,4.75,0,0,1,.41.51c.13.16.27.33.5.21a.58.58,0,0,0,.32-.6c0-.31-.25-.24-.44-.25a1.09,1.09,0,0,1-1-1.69c.17-.34.34-.68.49-1a.33.33,0,0,1,.43-.22A2.61,2.61,0,0,1,185.07,20.77Zm-.31,0a1.58,1.58,0,0,0-.77-1.13c-.12-.09-.23,0-.29.12a10.65,10.65,0,0,0-.62,1.15c-.21.5.29.67.53,1a.36.36,0,0,0,.58,0A3,3,0,0,0,184.76,20.76Zm1.08,2.61a.93.93,0,0,0-.33-.69c-.15-.14-.27-.39-.54-.31a.51.51,0,0,0-.35.57.54.54,0,0,1-.11.39c-.47.55-.44.72.15,1.17.2.15.46.24.59.07A1.87,1.87,0,0,0,185.84,23.37Zm-2.53.26a2.28,2.28,0,0,0-.07-.81c-.08-.17-.16-.32-.37-.35s-.31.14-.39.31-.31.6-.45.91a.62.62,0,0,0,.21.8c.22.18.45.36.75.23s.33-.42.31-.71C183.3,23.9,183.31,23.8,183.31,23.62Z"/><path class="cls-3" d="M126.92,28.88c-.41,1.24-.55,2.75-1.54,3.93A4.23,4.23,0,0,1,123.17,34c-.18.05-.38,0-.46-.17a.43.43,0,0,1,.18-.57,11.42,11.42,0,0,0,1.35-.9,4.15,4.15,0,0,0,1.55-2.49,12.94,12.94,0,0,0,.5-1.65.24.24,0,0,1,.24-.23.33.33,0,0,1,.29.18C126.95,28.3,126.9,28.51,126.92,28.88Z"/><path class="cls-3" d="M68.19,13.49a1.31,1.31,0,0,1-.3.8c-.09.16-.22.39.12.46a1.46,1.46,0,0,1,1,2.33c-.16.25-.21.62-.62.68a1,1,0,0,1-.87-.42c-.48-.48-.59-.46-.89.12a.65.65,0,0,1-1.09.21c-.9-.75-.92-.86-.33-1.91.06-.1.13-.2.19-.31.37-.74.73-.76,1.24-.08.08.11.15.24.23.35a.34.34,0,0,0,.43.12c.22-.1.21-.32.22-.52s0-.32-.25-.34a1.16,1.16,0,0,1-.57-.13c-.88-.58-.94-.81-.45-1.77.11-.21.21-.43.31-.65.24-.48.54-.53.94-.18A1.64,1.64,0,0,1,68.19,13.49Zm-.19,0a1.72,1.72,0,0,0-.69-1.07c-.19-.16-.42-.07-.55.17s-.36.71-.53,1.07a.52.52,0,0,0,.25.71c.23.13.4.56.76.31A2.91,2.91,0,0,0,68,13.48ZM69,16.15a.81.81,0,0,0-.23-.6c-.2-.21-.37-.53-.73-.41s-.34.4-.37.69c0,.12,0,.27-.08.34s-.43.4-.15.69.39.4.6.59a.18.18,0,0,0,.27,0A2.21,2.21,0,0,0,69,16.15ZM66.65,16c0-.52-.45-.93-.78-.77A2.26,2.26,0,0,0,65.24,17a.94.94,0,0,0,.72.57c.17,0,.35,0,.4-.19C66.47,16.9,66.56,16.45,66.65,16Z"/><path class="cls-3" d="M147.24,44.19c0-.62,0-1.24,0-1.86,0-.39.16-.63.6-.48a.66.66,0,0,0,.58,0,1,1,0,0,1,1.37.33c.92,1.11.79,1.88-.14,3a1.06,1.06,0,0,1-1.05.29c-.49-.08-.68.09-.61.57a1.09,1.09,0,0,1,0,.24c0,.22,0,.48-.32.48s-.42-.21-.43-.48c0-.68,0-1.36,0-2Zm.68-1.14c-.13-.11,0-.22,0-.32s.17-.34,0-.48a.29.29,0,0,0-.22-.05c-.22.08-.18.29-.18.46,0,.76,0,1.52,0,2.28,0,.32-.07.63-.09,1a.26.26,0,0,0,.19.28c.09,0,.18,0,.17-.11-.06-.51.41-1,.18-1.48.84.36,1.28.16,1.52-.69A1.43,1.43,0,0,0,149,42.5C148.46,42.27,148.19,42.67,147.92,43.05Z"/><path class="cls-3" d="M29.34,10.72c0,.15-.22.32-.08.44s.39,0,.55-.09q1.48-.79,2.94-1.61C34.16,8.65,35.59,7.86,37,7s2.7-1.68,4-2.62,2.38-1.74,3.51-2.7a3.21,3.21,0,0,0,.74-.78c.07-.11.18-.26.07-.38s-.25,0-.37.07c-.32.14-.52.5-.9.55.24-.57.87-.68,1.26-1.08.15-.16.35,0,.38.2a.93.93,0,0,1-.28.87,23.66,23.66,0,0,1-2.73,2.34,67.19,67.19,0,0,1-7.4,4.86c-1.5.86-3,1.68-4.55,2.51-.49.26-1,.57-1.43.86a.51.51,0,0,1-.75-.07c-.23-.29,0-.44.24-.56S29,10.67,29.34,10.72Z"/><path class="cls-3" d="M104.76,44c0-.22,0-.44,0-.66,0-.41,0-.8-.56-.84s-.74.54-.64,1a6.76,6.76,0,0,1,.08,1.19c0,.37-.14.65-.52.68s-.51-.3-.52-.61a19.36,19.36,0,0,1,.08-2.7c0-.21.1-.29.31-.22a1.5,1.5,0,0,0,1-.08,1.14,1.14,0,0,1,1.58.92,20.47,20.47,0,0,1,.23,2.09c0,.31-.06.62-.48.61s-.61-.17-.59-.59c0-.26,0-.52,0-.78Zm-1.48-1.8a.34.34,0,0,0-.39.38c0,.7,0,1.4,0,2.1,0,.12,0,.27.18.27s.19-.17.19-.31,0-.32,0-.48c0-.53-.27-1.08.3-1.54C103.77,42.44,103.5,42.25,103.28,42.21Zm.83-.14a4.45,4.45,0,0,1,1.12.87C105.23,42.12,104.93,41.86,104.11,42.07Z"/><path class="cls-3" d="M51.54,34.07a.45.45,0,0,1-.19-.88,7.58,7.58,0,0,0,2.1-1.26,3.74,3.74,0,0,0,1-1.55,3.58,3.58,0,0,1,1.69-2,2,2,0,0,0,.9-.85,1.16,1.16,0,0,1,.37-.38c.15-.11.33-.28.54-.11s0,.33,0,.49a8,8,0,0,1-.7,1.45,1.74,1.74,0,0,1-.83.74,2.91,2.91,0,0,0-1.67,1.78,4.85,4.85,0,0,1-1.07,1.85C53,33.95,52.18,33.74,51.54,34.07Zm3.16-3.34c.38-.23.52-.69.92-.93A3.56,3.56,0,0,0,56.8,29a1.6,1.6,0,0,0,.46-1.22C56.34,28.73,54.92,29.19,54.69,30.73Zm-.21.31a5.24,5.24,0,0,1-2.63,2.24c-.12.06-.29.13-.2.3s.25.09.38.07A2.85,2.85,0,0,0,54.48,31Z"/><path class="cls-3" d="M64.55,44.14a1.08,1.08,0,0,1,1-1l.42,0c.22,0,.4-.11.37-.37s-.23-.3-.45-.28l-.83.1a.32.32,0,0,1-.36-.17.33.33,0,0,1,.16-.41,2,2,0,0,1,1.66-.21,1.16,1.16,0,0,1,.89,1.09c.05.68,0,1.36,0,2a.43.43,0,0,1-.43.48,7.53,7.53,0,0,1-1.61.06c-.47-.06-.91-.31-.87-.93.25.23.4.56.71.7a.52.52,0,0,0,.57,0c.21-.2-.19-.25-.17-.43l.47,0a.66.66,0,0,0,.56-.48c.07-.2,0-.34-.17-.47s-.41-.15-.64,0a2.8,2.8,0,0,1-.56.17c-.08-.2.4-.28.14-.47s-.35.09-.49.23S64.69,44,64.55,44.14Z"/><path class="cls-3" d="M82.65,43.61c0,1.28-.56,1.84-1.69,1.78a1.64,1.64,0,0,1-1.27-1.13,2.07,2.07,0,0,1,1-2.42c.79-.44,1.87.28,2,1.35A3.17,3.17,0,0,1,82.65,43.61Zm-.59,0c0-.65-.45-1.29-.91-1.29s-.89.7-.89,1.26.39,1.2.91,1.21S82.06,44.33,82.06,43.6Z"/><path class="cls-3" d="M61.58,32.56c-.06.24-.28.26-.45.36s-.39.19-.32.38.34.09.52.07a2.7,2.7,0,0,0,2.29-1.69,5.36,5.36,0,0,1,2.12-2.09,2.38,2.38,0,0,0,.79-.87c.18-.34.39-.45.76-.15.84.67,1.11.62,1.91-.16A4.3,4.3,0,0,1,71,27.14a2.56,2.56,0,0,0,1.75-1.72c-.55-.06-.7.51-1.1.64.17-.65.89-.9,1.11-1.53.06-.17.24,0,.32.1a.68.68,0,0,1,.07.69c-.31.54-.48,1.19-1.15,1.47-.21.09-.35.32-.53.48s-.3.36-.54.34a1.57,1.57,0,0,0-1.37.73,8.33,8.33,0,0,1-.68.68,1,1,0,0,1-1.5,0c-.35-.31-.65-.33-.87.1a2.61,2.61,0,0,1-1.27,1.13A3.57,3.57,0,0,0,63.73,32a3.34,3.34,0,0,1-3.13,1.8c-.18,0-.4,0-.48-.16s.14-.3.25-.43A2.16,2.16,0,0,1,61.58,32.56Z"/><path class="cls-3" d="M122.61,30.26a2.16,2.16,0,0,1-1.79,1.09,8.41,8.41,0,0,1-1.56,0,2,2,0,0,1-1.75-2.55,1.61,1.61,0,0,0,.18-.81c0-.11,0-.27-.11-.3s-.24.12-.25.26a17,17,0,0,0-.38,1.87.23.23,0,0,1-.17.23,2.21,2.21,0,0,1,.22-1.57,14.78,14.78,0,0,0,.52-1.59c.3-.71.62-1.42,1-2.11a1.52,1.52,0,0,0,.18-.5c0-.36.23-.61.57-.54s.26.47.18.71c-.24.65-.55,1.26-.8,1.91a8.64,8.64,0,0,0-.84,2.85,1.74,1.74,0,0,0,1.81,2A4.77,4.77,0,0,0,122.61,30.26Z"/><path class="cls-3" d="M86.76,42.44a.31.31,0,0,1-.07-.51c.15-.18.32-.13.49,0a.61.61,0,0,0,.72,0,.68.68,0,0,1,.79,0c.16.1.35.16.48,0s0-.3-.13-.42-.3-.4-.05-.62a.48.48,0,0,1,.61,0,.41.41,0,0,1,.12.62c-.16.23-.1.42-.08.66.07,1,.08,2,.08,2.93,0,.24-.06.5-.41.48s-.44-.26-.45-.54c0-.44,0-.88.06-1.32s.11-.67-.19-.83-.74,0-1.07.19-.26.44-.22.73.06.88.07,1.32a.42.42,0,0,1-.35.43c-.21.05-.49,0-.51-.19a4.5,4.5,0,0,1,.09-2.37c0,.56,0,1.12,0,1.68,0,.23-.14.62.23.62s.2-.37.21-.59a4.2,4.2,0,0,0,0-.84c-.12-.67.27-1,.8-1.22l.17,0c.15,0,.28-.14.21-.3s-.23-.11-.34,0a.66.66,0,0,1-.73.1C87,42,86.9,42.25,86.76,42.44Zm2.39,1.28h0c0,.32,0,.64,0,1,0,.15,0,.37.17.39s.21-.2.21-.35c0-.7,0-1.39,0-2.08,0-.12,0-.27-.15-.28s-.19.17-.19.3C89.15,43,89.15,43.37,89.15,43.72Z"/><path class="cls-3" d="M78.1,43.43c0-.48,0-1,0-1.44s-.2-.7-.7-.61a1.89,1.89,0,0,1-.48,0,.31.31,0,0,1-.3-.37.27.27,0,0,1,.32-.28,21.17,21.17,0,0,0,3,0,.26.26,0,0,1,.31.22.35.35,0,0,1-.23.38.9.9,0,0,1-.18,0c-.33.07-.76-.22-1,.19s0,.67-.06,1a12.41,12.41,0,0,0,0,2.1c0,.28,0,.62-.36.63s-.34-.35-.34-.63,0-.84,0-1.26Z"/><path class="cls-3" d="M22.29,43.63c0,.14,0,.28,0,.42,0,1.37,0,1.38-1.71,1.39-.79,0-1.22-.52-1.23-1.51,0-.52,0-1,0-1.56,0-.26,0-.62.42-.61s.38.35.39.63c0,.52,0,1,0,1.56s.23.7.68.71.63-.29.63-.7,0-1,0-1.56c0-.31.05-.59.42-.61s.45.28.45.58,0,.84,0,1.26Zm-2.35-.18h0c0-.36,0-.72,0-1.08,0-.11-.06-.25-.21-.24s-.16.16-.16.27c0,.64,0,1.28,0,1.92a1.15,1.15,0,0,0,.72.9c.14.07.36.09.44-.06s-.13-.27-.26-.3c-.45-.1-.55-.41-.53-.81C19.95,43.85,19.94,43.65,19.94,43.45Z"/><path class="cls-3" d="M129.79,43.44c.13-.65-.36-1.35,0-2.07.1-.24.11-.53.45-.54s.38.21.44.47.43.42.75.46.42,0,.43.31a.4.4,0,0,1-.41.43c-.63,0-.85.35-.69,1a.86.86,0,0,1,0,.41c-.13.52.1.76.6.8.23,0,.54-.06.54.3s-.29.42-.59.45a1.2,1.2,0,0,1-1.45-1.27C129.78,43.94,129.79,43.72,129.79,43.44Zm1.1,1.8c.13,0,.41,0,.35-.18s-.37-.28-.6-.33a.15.15,0,0,0-.21.15C130.44,45.17,130.65,45.22,130.89,45.24Z"/><path class="cls-3" d="M49.72,33.75c-.33,0-.54-.07-.41-.43,0-.07,0-.16,0-.23a20.89,20.89,0,0,0,.93-4.5c.14-.77.59-1.44.66-2.23,0-.23.22-.34.46-.42s.4,0,.37.3c-.17,1.44-.31,2.89-.59,4.32a26,26,0,0,1-1,2.9A.39.39,0,0,1,49.72,33.75Zm1.73-6.94s0-.07-.1-.08-.18.08-.21.17a12.43,12.43,0,0,0-.65,2.47,12.27,12.27,0,0,1-.67,3.26c-.06.15-.27.39-.06.47s.24-.21.3-.38.13-.2.18-.31a5.22,5.22,0,0,0,.64-1.79,16.75,16.75,0,0,1,.32-2.3C51.3,27.85,51.36,27.37,51.45,26.81Z"/><path class="cls-3" d="M35,31.2H32.49c-.57,0-.87-.26-.83-.7s.33-.58.91-.57a38.24,38.24,0,0,0,4.91-.05.63.63,0,0,1,.8.59c.07.46-.19.73-.68.74H35Zm0-.93H32.53c-.19,0-.44,0-.42.27s.24.22.41.23c1.66,0,3.32-.09,5,.07a.32.32,0,0,0,.37-.36.29.29,0,0,0-.37-.29A15.34,15.34,0,0,1,35,30.28Z"/><path class="cls-3" d="M33.56,45.36A1.21,1.21,0,0,1,32,44.52c-.18-.42.24-1.11.84-1.34a4.68,4.68,0,0,1,.76-.17c.18,0,.47,0,.43-.26a.4.4,0,0,0-.55-.32,8.34,8.34,0,0,1-1.53.25c-.16,0-.32,0-.47.09-.41.11-.63.36-.5.8A5.42,5.42,0,0,1,31,44.87c0,.39-.22.53-.58.51a.44.44,0,0,1-.46-.56,21.38,21.38,0,0,0,.08-2.51c0-.21,0-.44.3-.4.82.11,1.63-.16,2.44-.11,0,0,.06,0,.1.06s-.37.16-.28.4.22.1.36.08c1.24-.2,1.3-.14,1.27,1.13,0,.06,0,.12,0,.18l-.74.07c0-.2.15-.41-.24-.41a1,1,0,0,0-.91.58.77.77,0,0,0,0,.89A1.28,1.28,0,0,0,33.56,45.36Zm-2.67-3.13c-.26,0-.59-.13-.6.34a12.66,12.66,0,0,1-.05,2.15c0,.14,0,.35.26.33s.24-.19.23-.36,0-.15-.05-.23c-.1-1.44-.2-1.57.9-2,.13-.06.3-.15.23-.3s-.27,0-.39,0A1.16,1.16,0,0,1,30.89,42.23Z"/><path class="cls-3" d="M129.93,26.81c-.11.64-.19,1.46-.38,2.25-.24,1-.09,2-.61,2.91a5.78,5.78,0,0,1-1,1.72c-.17.14-.35.22-.54.08s-.07-.32,0-.48a8.16,8.16,0,0,0,.9-3.32,8.34,8.34,0,0,1,.83-3.14,3.17,3.17,0,0,0,.17-.51c0-.19,0-.46.29-.44s.38.25.38.52C129.93,26.49,129.93,26.57,129.93,26.81Zm-.35-.26c-1.25,2-.9,4.4-1.67,6.53C129.44,31.13,129,28.71,129.59,26.55Z"/><path class="cls-3" d="M87.21,14.71l.11-.1c.37,0,.61-.1.61-.51l.23-.22c.12,0,.22,0,.23-.15h0c.08,0,.12,0,.1-.1h0q.12,0,.1-.11h0q.12,0,.1-.11h0c.08,0,.12,0,.11-.11h0c.08,0,.12,0,.11-.11h0q.12,0,.11-.11h0c.08,0,.12,0,.1-.11l0,0q.13,0,.1-.1l0,0q.12,0,.1-.1l0,0q.12,0,.1-.1l0,0q.12,0,.1-.1l0,0c.08,0,.12,0,.1-.1v0c.16,0,.16-.1.14-.21h0a.11.11,0,0,0,.11-.12h0a.1.1,0,0,0,.12-.12h0a.1.1,0,0,0,.11-.12h0c.18,0,.26-.26.52-.1a4,4,0,0,0-.36.57c-.14.34-.59.49-.57.92h0a.1.1,0,0,0-.12.12h0c-.25,0-.36.25-.5.4a25.87,25.87,0,0,1-2.72,2.43c-1.37,1.12-2.75,2.24-4.15,3.33-.35.27-.62.72-1.17.74,0-.3.25-.39.38-.57.36-.5.95-.79,1.25-1.35h0a.79.79,0,0,0,.28-.08c.59-.45,1.19-.88,1.74-1.37a8.32,8.32,0,0,0,1.85-1.68h0c.19,0,.38,0,.34-.25h0A.12.12,0,0,0,87.21,14.71Z"/><path class="cls-3" d="M104.65,26.27c-.61,1.24-.3,2.69-.64,4.05-.28,1.14-.83,2.15-1.18,3.25a.36.36,0,0,1-.45.28c-.26,0-.33-.21-.31-.43a1.36,1.36,0,0,1,.1-.47,10,10,0,0,0,.74-3.44,17.32,17.32,0,0,1,.85-3c.07-.22.26-.35.42-.5s.18-.25.35-.14S104.64,26.07,104.65,26.27Zm-2.24,7.07c.24,0,.25-.21.32-.32A11.37,11.37,0,0,0,104,28.45c.07-.43.16-.86.22-1.29,0-.13,0-.31-.15-.34s-.19.12-.22.23a7.66,7.66,0,0,0-.47,1.54,15.61,15.61,0,0,1-.66,3.63A3.37,3.37,0,0,0,102.41,33.34Z"/><path class="cls-3" d="M100.32,13.52c.24,0,.3-.33.67-.26a11.35,11.35,0,0,1-1.48,1.93,48.53,48.53,0,0,1-5.4,4.63c-.79.61-1.54,1.26-2.32,1.88-.12.1-.24.37-.42.17s.08-.31.18-.45A16.08,16.08,0,0,1,94,19.32c.65-.56,1.34-1.07,2-1.61.15-.12.33-.24.36-.46h0c.11,0,.21,0,.21-.14h0q.12,0,.1-.1l0,0c.08,0,.12,0,.11-.1h0a.1.1,0,0,0,.13-.1h0a.13.13,0,0,0,.13-.13l.09-.11a.15.15,0,0,0,.15-.13.05.05,0,0,1,.07,0c.08,0,.14,0,.15-.1h0c.34,0,.47-.16.5-.47a.06.06,0,0,1,.07,0c.08,0,.14,0,.13-.1l0,0c.08,0,.12,0,.1-.1l0,0c.08,0,.12,0,.1-.1v0a1.76,1.76,0,0,0,1.17-1.19h0c.16,0,.16-.09.15-.2h0c.18,0,.26-.06.24-.24h0l.11-.13,0,0,0,0a.11.11,0,0,0,.11-.12Z"/><path class="cls-3" d="M2.84,40.7h.24c.26,0,.61-.15.76.19s-.22.41-.4.58a.44.44,0,0,0-.15.43,6,6,0,0,1,0,2.21.65.65,0,0,0,.27.62.44.44,0,0,1,.17.48c-.08.22-.28.2-.46.2h-1a.41.41,0,0,1-.44-.25.34.34,0,0,1,.19-.4c.32-.2.34-.48.34-.83a12.08,12.08,0,0,1,0-2,.59.59,0,0,0-.24-.58c-.16-.14-.41-.27-.28-.53s.35-.14.55-.14h.42Zm0,4.52c.22-.05.58.1.58-.24s-.33-.46-.6-.46-.55.19-.54.47S2.62,45.15,2.81,45.22Zm.53-4.12c0-.28-.26-.24-.42-.21s-.6-.19-.65.18.28.4.51.41A.57.57,0,0,0,3.34,41.1Z"/><path class="cls-3" d="M83.63,45.08c-.45-.11-.5-.5-.52-.84,0-.66,0-1.32,0-2,0-.24,0-.45.34-.47a.43.43,0,0,1,.51.46c0,.56,0,1.12,0,1.68s.22.76.71.74.61-.44.57-.82,0-1-.06-1.5c0-.33.11-.56.47-.56s.47.24.47.56c0,.84,0,1.69,0,2.53,0,.2-.07.43-.24.44a5.2,5.2,0,0,1-2,.07c-.06,0-.09-.12-.13-.18l.18,0A2.51,2.51,0,0,0,85.66,45c.48-.19,0-.72.1-1.1a4.75,4.75,0,0,0,0-1c0-.15.09-.36-.17-.48a8.32,8.32,0,0,0,0,1.44,1,1,0,0,1-.95,1c-.64,0-.9-.32-.9-1.06,0-.44,0-.88,0-1.32,0-.13,0-.32-.21-.31s-.22.2-.19.32C83.51,43.34,83.18,44.26,83.63,45.08Z"/><path class="cls-3" d="M57.82,36.49a3,3,0,0,1-.81,1.6.26.26,0,0,1-.38,0l-.35-.23c-.26-.17-.4-.55-.77-.52s-.32.46-.5.68a.57.57,0,0,1-.4.25c-.53,0-.76-.46-1.09-.76a.64.64,0,0,1-.11-.82,5.81,5.81,0,0,0,.65-1.34c.06-.28.33-.24.55-.14a1.66,1.66,0,0,1,.63.62c.13.18.19.51.49.46s.21-.35.3-.54a2.69,2.69,0,0,1,.13-.33.66.66,0,0,1,.79-.26A2.12,2.12,0,0,1,57.82,36.49Zm-.32-.07c0-.09,0-.16,0-.21-.19-.31-.28-.77-.75-.74s-.45.42-.46.77a1,1,0,0,1-.11.4c-.22.47-.11.85.32,1s.66-.22.82-.54A3.33,3.33,0,0,0,57.5,36.42Zm-2.29.06a1.94,1.94,0,0,0-.59-.93c-.15-.11-.3-.07-.34.08-.12.43-.45.75-.6,1.16s.28.73.57,1a.35.35,0,0,0,.56-.12C55.05,37.3,54.91,36.81,55.21,36.48Z"/><path class="cls-3" d="M47.1,26.92a2.7,2.7,0,0,1-.81,1.27.33.33,0,0,1-.39.08,14.13,14.13,0,0,1-1.17-.83c-.12-.1-.1-.3,0-.45l.78-1.49a.36.36,0,0,1,.44-.22A2.13,2.13,0,0,1,47.1,26.92Z"/><path class="cls-3" d="M170.13,27a3.21,3.21,0,0,1-.79,1.71c-.09.14-.25.11-.38,0a2.52,2.52,0,0,1-.34-.24c-.25-.2-.46-.53-.73-.59-.44-.1-.3.48-.54.66s-.22.21-.34.23c-.61.11-.81-.5-1.22-.75-.25-.15-.2-.47-.09-.71.23-.49.47-1,.72-1.45a.31.31,0,0,1,.5-.13,3.41,3.41,0,0,1,.52.49c.18.21.26.57.58.54s.31-.42.37-.68a.55.55,0,0,1,.44-.44.67.67,0,0,1,.35,0A2.08,2.08,0,0,1,170.13,27Zm-.31.08a1.24,1.24,0,0,0-.62-1,.31.31,0,0,0-.49.15c-.16.42-.1.94-.56,1.22,0,0,0,.17,0,.22.21.23.44.46.67.68a.24.24,0,0,0,.37,0A2.33,2.33,0,0,0,169.82,27.06Zm-2.41,0c0-.37-.32-.86-.54-.89s-.33.28-.45.46a4,4,0,0,0-.36.62,1,1,0,0,0,.64,1.27.37.37,0,0,0,.48-.32C167.27,27.74,167.35,27.33,167.41,27Z"/><path class="cls-3" d="M91.16,45.43c-.07,0-.29,0-.51,0a.47.47,0,0,1-.44-.64c.08-.36.33-.34.6-.2a1.54,1.54,0,0,0,.77.11c.16,0,.34,0,.38-.23a.37.37,0,0,0-.27-.42,3,3,0,0,0-.53-.09,1.18,1.18,0,0,1-1-1.11,1.33,1.33,0,0,1,.93-1.13,1.94,1.94,0,0,1,1.18.08.55.55,0,0,1,.3.75c-.17.39-.43.14-.64,0a.68.68,0,0,0-.51-.11c-.2,0-.42.1-.45.34s.2.31.4.35l.18,0c.78.19,1.31.71,1.25,1.24S92.2,45.44,91.16,45.43Zm-.6-3a.33.33,0,0,0-.19.45,1,1,0,0,0,.92.83c.51,0,.86.16.87.74,0,.1,0,.22.16.19a.35.35,0,0,0,.2-.2.54.54,0,0,0-.19-.64,2,2,0,0,0-1-.54.56.56,0,0,1-.57-.56C90.71,42.64,90.74,42.5,90.56,42.48Zm.67,2.75v0c.22,0,.44,0,.66,0s.25-.08.23-.23-.18-.11-.29-.08a1.16,1.16,0,0,1-.76,0c-.17-.06-.34-.26-.54-.08a.21.21,0,0,0,0,.28c.13.21.35.12.54.14Zm-.32-3c.34,0,.56,0,.77,0s.5.28.53,0-.35-.31-.61-.31A.8.8,0,0,0,90.91,42.21Z"/><path class="cls-3" d="M111.42,15.59a1.72,1.72,0,0,1-1.65-.76c-.18-.33.75-2.07,1.11-2.09.52,0,1.14,1,1,1.61s-.47.78-.51,1.24Z"/><path class="cls-3" d="M91.15,18.3a4.77,4.77,0,0,1-.77,1.36.49.49,0,0,1-.66,0c-.24-.18-.46-.39-.68-.58a.45.45,0,0,1-.12-.59l.74-1.5c.08-.15.17-.27.37-.21A3,3,0,0,1,91.15,18.3Z"/><path class="cls-3" d="M143.43,35a3.62,3.62,0,0,1-1,1.61c-.19.18-.41.08-.59-.09l-.47-.47c-.26-.28-.47-.26-.66.08-.08.14-.17.27-.26.41s-.17.26-.31.26c-.58,0-.86-.54-1.26-.85s-.16-.56,0-.81a5,5,0,0,0,.51-1c.29-.65.63-.71,1.1-.17a3.13,3.13,0,0,1,.24.34c.11.16.06.47.31.46s.35-.3.44-.51c.4-.95.76-1,1.37-.16C143.13,34.43,143.48,34.62,143.43,35Zm-2.62.3a7.28,7.28,0,0,0-.23-.8A.71.71,0,0,0,140,34c-.31,0-.34.29-.45.49s-.2.39-.3.59a1.12,1.12,0,0,0,.66,1.41.31.31,0,0,0,.32-.11A3.23,3.23,0,0,0,140.81,35.35Zm2.29-.27a1.79,1.79,0,0,0-.68-1.12.3.3,0,0,0-.49.15c-.12.38-.35.72-.48,1.09a.74.74,0,0,0,.38.92c.23.15.45.33.69.1A2.43,2.43,0,0,0,143.1,35.08Z"/><path class="cls-3" d="M111.42,15.6c.3.1.49-.4.82-.14a3.38,3.38,0,0,1,.91,1.1c.23.44-.58,1.84-1.07,1.89-.34,0-.55-.2-.76-.42-.53-.53-.58-.52-.91.13s-.38.62-.94.23c-.18-.13-.33-.28-.51-.42a.7.7,0,0,1-.15-1.13,4.33,4.33,0,0,0,.4-.74c.1-.2,0-.5.41-.49a.88.88,0,0,1,.82.39c.15.24.2.7.52.65s.36-.56.49-.89c0,0,0-.11,0-.17ZM110.6,17a1.28,1.28,0,0,0-.47-.93c-.28-.3-.65-.23-.71.16A1.67,1.67,0,0,1,109,17a.46.46,0,0,0,.1.73c.28.16.49.69.88.39A1.6,1.6,0,0,0,110.6,17Zm2.15-.09a1.2,1.2,0,0,0-.26-.83c-.28-.45-.6-.44-.83,0a4.55,4.55,0,0,0-.33,1,.82.82,0,0,0,.58,1c.42.14.57-.25.69-.57A1.24,1.24,0,0,0,112.75,16.88Z"/><path class="cls-3" d="M98.4,21a2.46,2.46,0,0,1-.79,1.51c-.05.05-.17.11-.21.09a3.82,3.82,0,0,1-1.14-1c-.22-.3,0-.56.22-.79a3.43,3.43,0,0,0,.33-.76c.28-.54.68-.59,1.07-.12A1.5,1.5,0,0,1,98.4,21Z"/><path class="cls-3" d="M177.77,33.55a9.94,9.94,0,0,1,3-3.71,2.49,2.49,0,0,1,1.62-.27,1.36,1.36,0,0,0,1.38-.74,13.28,13.28,0,0,1,.86-1.23,2.39,2.39,0,0,1,1.29-1,1.52,1.52,0,0,0,.89-.85c.06-.1.12-.23,0-.33s-.21,0-.32,0a3.24,3.24,0,0,0-1.59,1.21.53.53,0,0,1-.38.27,2.69,2.69,0,0,1,1.32-1.38c.42-.16.63-.62,1.07-.76.15,0,.29-.17.44,0s0,.29,0,.42c-.18.31-.21.68-.46,1a1.76,1.76,0,0,1-1,.68c-.54.12-.87.62-1.17,1.06S184,29,183.58,29.46a.72.72,0,0,1-.71.32,3.43,3.43,0,0,0-3.52,1.77c-.34.54-.74,1-1.11,1.56C178.11,33.29,178,33.49,177.77,33.55Z"/><path class="cls-3" d="M82.87,18.22c-.31.55-.89.85-1.25,1.35-.12.17-.36.27-.38.57.55,0,.82-.47,1.17-.74,1.4-1.09,2.78-2.21,4.15-3.33a25.87,25.87,0,0,0,2.72-2.43c.14-.16.26-.37.5-.4a10,10,0,0,1-2.21,2.33c-2,1.8-4.3,3.25-6.26,5.11-.21.2-.44.32-.67.07s-.07-.42.11-.62A6.44,6.44,0,0,1,82.87,18.22Z"/><path class="cls-3" d="M142.72,42.21l.12.12c.06.21.13.42.19.63.42,1.58-.39,2.5-2,2.24l-.25-.24a.36.36,0,0,0-.34-.37h0a6.06,6.06,0,0,1-.17-1.34l0-.44c.24-.21.49-.41.72-.63a1,1,0,0,1,1.3-.13C142.46,42.12,142.56,42.23,142.72,42.21Zm0,1.42c0-.57-.5-1.31-.92-1.32s-.89.56-.9,1.22c0,0,0,.08,0,.12,0,.72.34,1.12.89,1.12A1.1,1.1,0,0,0,142.7,43.64Z"/><path class="cls-3" d="M33.56,45.36a1.28,1.28,0,0,1-1.16-.6.77.77,0,0,1,0-.89,1,1,0,0,1,.91-.58c.39,0,.28.21.24.41-.31.12-.74.14-.69.6s.39.5.71.52c.67,0,.95-.46.71-1.19,0-.06,0-.12,0-.18,0-1.27,0-1.33-1.27-1.13-.14,0-.3.09-.36-.08s.23-.23.28-.4l.22,0,.53,0a1.17,1.17,0,0,1,1.19,1.22c0,.54,0,1.08,0,1.61s-.15.63-.59.46a.4.4,0,0,0-.51.15Z"/><path class="cls-3" d="M146.36,13.77a10.2,10.2,0,0,1-3,2.82c0-.09-.06-.23-.13-.26-.68-.26-.39-.54-.05-.87.58-.55,1.14-1.13,1.71-1.68.24-.23.51-.44.81-.07S146.16,13.69,146.36,13.77Z"/><path class="cls-3" d="M146.62,43.56v.18c0,1.69,0,1.69-1.67,1.75a1.09,1.09,0,0,1-1.19-1c-.06-.74,0-1.48-.09-2.22a.45.45,0,0,1,.44-.54c.3,0,.37.26.38.52,0,.56,0,1.12,0,1.68s.14.73.63.76.65-.31.67-.73,0-1,0-1.5c0-.28-.08-.66.4-.65s.46.36.46.69,0,.72,0,1.08Zm-.2.06h0c0-.32,0-.64,0-1s.06-.48-.2-.49-.24.31-.24.51A9.62,9.62,0,0,1,146,44c-.07.41-.15.91-.78.87s-.88-.27-.89-.94c0-.48,0-1,0-1.44,0-.15,0-.37-.19-.38s-.21.2-.21.35c0,.64,0,1.28,0,1.92a1,1,0,0,0,1.06.94c1.43-.12,1.43-.12,1.43-1.57Q146.43,43.68,146.43,43.62Z"/><path class="cls-3" d="M142.72,42.21c-.16,0-.26-.09-.37-.17a1,1,0,0,0-1.3.13c-.23.22-.48.42-.72.63-.47-.4-.9,0-1.36.05,0-.18.29-.34,0-.53a.47.47,0,0,0-.45-.12c-.25.09-.18.33-.18.52,0,.56,0,1.12,0,1.68,0,.24-.2.6.18.62s.19-.37.2-.59a2.52,2.52,0,0,1,0-.3c.08-.41-.21-.87.18-1.24,0,.66,0,1.32,0,2,0,.28-.05.53-.42.51s-.45-.22-.45-.52c0-.86,0-1.72,0-2.58,0-.42.23-.59.63-.39a.55.55,0,0,0,.66,0c.34-.26.64-.27.89.16s.45.12.66-.06A1.13,1.13,0,0,1,142.72,42.21Z"/><path class="cls-3" d="M108.87,42.46c-.32.81-.64,1.71-1,2.59-.16.36-.53.33-.74,0a23.75,23.75,0,0,1-1-2.57c-.07-.17-.07-.38.16-.45s.38.09.45.29c.17.51.33,1,.51,1.54,0,.13.09.29.25.31s.24-.17.29-.31c.18-.51.34-1,.52-1.53a.37.37,0,0,1,.41-.29C108.92,42,108.88,42.21,108.87,42.46Z"/><path class="cls-3" d="M59.76,42.31a1.31,1.31,0,0,1,1.6-.58,2.17,2.17,0,0,1,1.21,1.54.54.54,0,0,1-.53.55,3.36,3.36,0,0,1-1.31.05c-.22-.07-.53-.09-.58.23s.21.45.48.53a3.56,3.56,0,0,0,1.25-.08c.19,0,.46-.08.53.15a.57.57,0,0,1-.22.59,2.08,2.08,0,0,1-2.42-.42,2.64,2.64,0,0,0,1.69.37c.21,0,.51,0,.47-.3s-.3-.19-.49-.13a1.43,1.43,0,0,1-1.05-.09c-.32-.14-.6-.51-.42-.74a1,1,0,0,0,.12-.93c.4.25.86.07,1.27.18-.08.37-.53,0-.68.36a2.34,2.34,0,0,0,.31.05,4.21,4.21,0,0,0,.6,0c.53-.06.68-.3.54-.83a1.16,1.16,0,0,0-1.87-.67A.65.65,0,0,1,59.76,42.31Z"/><path class="cls-3" d="M101.32,40.71l.39,0c.21,0,.47-.07.58.19s-.09.4-.29.51a.6.6,0,0,0-.26.62c0,.58,0,1.16,0,1.74a1.26,1.26,0,0,0,.33,1.09c.29.28.14.55-.29.57s-.72,0-1.08,0c-.16,0-.33,0-.4-.2a.35.35,0,0,1,.2-.45c.37-.18.41-.48.39-.85s0-1,0-1.44.09-.94-.47-1.24c-.27-.14-.18-.44.15-.5A4.2,4.2,0,0,1,101.32,40.71Zm.07.17c-.21,0-.46-.09-.62.11s0,.2.12.29a5.21,5.21,0,0,1,.07,3.41c-.1.12-.28.21-.21.39s.27.12.42.14h.36c.38,0,.51-.14.24-.46a.89.89,0,0,1-.24-.65c0-.74,0-1.48,0-2.22a.65.65,0,0,1,.15-.5c.11-.12.37-.21.26-.41S101.58,40.91,101.39,40.88Z"/><path class="cls-3" d="M27.27,45.3c-.92-.78-.67-1.85-.69-2.85,0-.14,0-.3.23-.29s.21.18.21.32c0,.46,0,.92,0,1.38a.94.94,0,0,0,.89,1,.93.93,0,0,0,1-.94c0-.46,0-.92,0-1.38,0-.16,0-.37.2-.38s.22.2.22.35c0,.74,0,1.48,0,2.23,0,.28-.09.48-.43.39a.66.66,0,0,0-.61.16l-.24.05a.91.91,0,0,0-.52,0Z"/><path class="cls-3" d="M35.63,43c0-.62,0-1.24,0-1.86,0-.35.14-.6.5-.62s.46.32.47.62c0,1.24,0,2.48,0,3.72,0,.32-.12.55-.48.55s-.48-.23-.47-.55c0-.62,0-1.24,0-1.86Zm.68-.18c0-.46,0-.92,0-1.38,0-.16.09-.44-.14-.45s-.22.27-.22.46a29.13,29.13,0,0,1-.06,3.23c0,.19,0,.41.24.4s.28-.23.23-.41A10.86,10.86,0,0,1,36.31,42.79Z"/><path class="cls-3" d="M60.08,43A1,1,0,0,1,60,44c-.18.23.11.6.42.74a1.43,1.43,0,0,0,1.05.09c.18-.06.45-.16.49.13s-.26.28-.47.3a2.64,2.64,0,0,1-1.69-.37.36.36,0,0,1-.24-.35l.12-2.08.11-.12a.65.65,0,0,0,.49-.17,1.16,1.16,0,0,1,1.87.67c.14.53,0,.77-.54.83a4.21,4.21,0,0,1-.6,0,2.34,2.34,0,0,1-.31-.05c.14-.34.6,0,.68-.36l.12-.06c.35-.14.33-.31.05-.51s-.46-.37-.79-.36c-.13-.15-.21-.08-.27.07A.71.71,0,0,0,60.08,43Z"/><path class="cls-3" d="M92.1,33.95a2.38,2.38,0,0,1,.3-1c.21-.6.52-1.14.74-1.72.08-.21.12-.39.38-.36s.29.24.28.45.07.45-.11.57c-.47.32-.35.92-.65,1.31-.16.22.09.35.19.51.28.41.49.81.09,1.3s-.82.44-1.08-.07A1.71,1.71,0,0,1,92.1,33.95Zm.19.2c0,.44.11.85.55.88s.4-.38.4-.68-.21-.76-.65-.77S92.33,33.94,92.3,34.15Z"/><path class="cls-3" d="M17,16.43c.22.65-.51,1-.57,1.65,0,.11-.19.13-.31.11a.27.27,0,0,1-.23-.24.89.89,0,0,1,.11-.69,1.28,1.28,0,0,0,0-1.6c-.2-.31-.08-.67-.24-1a.13.13,0,0,1,.1-.18.38.38,0,0,1,.25.12A2.35,2.35,0,0,1,17,16.43Z"/><path class="cls-3" d="M50.54,41.24c.18-.08.37-.2.45.12a.82.82,0,0,0,.81.69c-.35.19-.79.24-.69.75v1.56c0,.27.11.38.38.35l.22,0a.36.36,0,0,1,.12.56.81.81,0,0,1-.61,0,2.64,2.64,0,0,1-.72-.82l0-.33V42.83a4.26,4.26,0,0,1,0-1.37Z"/><path class="cls-3" d="M165.38,15.76c0-.27.22-.39.37-.53,1.29-1.19,2.58-2.38,3.9-3.55.2-.18.51-.54.73-.3s-.2.46-.38.64a39.77,39.77,0,0,1-4.35,3.74A.2.2,0,0,1,165.38,15.76Z"/><path class="cls-3" d="M1,15.59a6,6,0,0,0,0,2c0,.22,0,.47-.3.49s-.25-.28-.36-.44c-.63-.89-.19-1.75,0-2.62.05-.21.13-.32.35-.33s.3.14.29.35S1,15.31,1,15.59Z"/><path class="cls-3" d="M83.63,45.08c-.45-.82-.11-1.73-.32-2.58,0-.12,0-.32.19-.32s.2.19.21.31c0,.44,0,.88,0,1.32,0,.74.26,1,.9,1.06a1,1,0,0,0,.95-1,8.32,8.32,0,0,1,0-1.44c.26.12.16.33.17.48a4.75,4.75,0,0,1,0,1c-.07.38.38.91-.1,1.1a2.51,2.51,0,0,1-1.73.27l-.18,0Z"/><path class="cls-3" d="M25.11,44.49c0,.2.21.22.36.27s.41.1.42.29-.29.21-.44.32l-.21,0a1.6,1.6,0,0,1-.71-1.65c.12-.71-.26-1.42,0-2.13,0-.14,0-.36.23-.37s.2.18.23.31c.07.32.31.44.62.56-1,.47-.55,1.28-.56,2Z"/><path class="cls-3" d="M116.84,44.76a.52.52,0,0,1,.24.53l-.21.08c-1-.19-1.08-.26-1.1-1.33a3.1,3.1,0,0,0-.28-1.8c-.18-.28.16-.58.37-.82a.14.14,0,0,1,.24.07c.09.42.46.49.86.61-.84.22-1.16,1.58-.65,2.41C116.42,44.71,116.64,44.72,116.84,44.76Z"/><path class="cls-3" d="M134,24.3a2.39,2.39,0,0,1-.69,1.4.28.28,0,0,1-.15.09c-.64.15-.88-.45-1.29-.72s-.21-.49,0-.76a8.56,8.56,0,0,0,.57-1.11c.25-.55.58-.59,1-.17A1.6,1.6,0,0,1,134,24.3Zm-.33-.07c0-.55-.38-1.13-.74-1-.62.16-.45.93-.89,1.26-.14.1-.07.36.08.48s.44.74.88.6.57-.59.67-1A1.26,1.26,0,0,0,133.7,24.23Z"/><path class="cls-3" d="M5.11,17.64c-.9.41-1.39.33-1.58-.35a2.86,2.86,0,0,1,.13-2,2,2,0,0,1,.12,1c0,.57.22.73.75.53a.83.83,0,0,1,.84.13c.23.19-.18.36-.14.58Z"/><path class="cls-3" d="M86.76,42.44c.13-.19.23-.41.55-.25a.66.66,0,0,0,.73-.1c.11-.09.26-.17.34,0s-.07.25-.21.3l-.17,0c-.53.23-.92.54-.8,1.22a4.2,4.2,0,0,1,0,.84c0,.22.11.59-.21.59s-.23-.39-.23-.62c0-.56,0-1.12,0-1.68Z"/><path class="cls-3" d="M174.88,35.34c-.16.36-.59.45-.9.91,1-.31,1.64-1.07,2.48-1.39A3.93,3.93,0,0,1,175.08,36a13.47,13.47,0,0,0-1.2.79.5.5,0,0,1-.79-.11c-.18-.31.16-.36.36-.47C173.94,35.94,174.31,35.47,174.88,35.34Z"/><path class="cls-3" d="M74,15.57c0,.19-.07.28-.21.38-1.6,1.12-3,2.42-4.56,3.65a.59.59,0,0,1-.16.06c.22-.66.84-1,1.32-1.35,1-.83,2-1.62,3-2.45A1.09,1.09,0,0,1,74,15.57Z"/><path class="cls-3" d="M110.69,44.77c.16.36.41.09.6.07.39,0,.58,0,.36.46l-.34,0a.57.57,0,0,0-.73,0,1.39,1.39,0,0,1-1.08-.73l-.26-1,.05-.46c.22-.2.46,0,.69,0h0a1,1,0,0,1-.21.71c-.16.23-.16.46.2.5A2,2,0,0,0,110.69,44.77Z"/><path class="cls-3" d="M33.78,45.31a.4.4,0,0,1,.51-.15c.44.17.59-.06.59-.46s0-1.08,0-1.61a1.17,1.17,0,0,0-1.19-1.22l-.53,0A1.29,1.29,0,0,1,35.07,43c0,.46,0,.92,0,1.38.08,1,0,1-.94,1C34,45.38,33.89,45.44,33.78,45.31Z"/><path class="cls-3" d="M3.88,12.6l.21-.2a.44.44,0,0,1,.68-.06.46.46,0,0,1-.09.73,3,3,0,0,1-.87.51,2.9,2.9,0,0,0-1.17.63c.07-.56.59-.69.69-1.08Z"/><path class="cls-3" d="M99.28,13.93a2.77,2.77,0,0,1-.23.29l-1.49,1.37c-.12.11-.27.23-.41.07a.32.32,0,0,1,0-.44c.48-.47,1-.94,1.47-1.39a.41.41,0,0,1,.49-.1C99.2,13.77,99.23,13.86,99.28,13.93Z"/><path class="cls-3" d="M136,31a8.06,8.06,0,0,0,.74-3.69,7.71,7.71,0,0,1,.09-2.3c.23.33.09.7.1,1,0,.7,0,1.41,0,2.1a9.53,9.53,0,0,1-.56,2.5A.4.4,0,0,1,136,31Z"/><path class="cls-3" d="M89.92,13.1c0-.43.43-.58.57-.92a4,4,0,0,1,.36-.57c-.26-.16-.34.14-.52.1a2,2,0,0,1,.85-1.11.31.31,0,0,1,.48,0c.15.17,0,.28-.07.41A10.59,10.59,0,0,1,89.92,13.1Z"/><path class="cls-3" d="M74.62,14.27c-.2,0-.22-.2-.12-.31.55-.61,1.12-1.2,1.69-1.79a.24.24,0,0,1,.33,0,.26.26,0,0,1,.07.37,11.19,11.19,0,0,1-1.86,1.67Z"/><path class="cls-3" d="M137.3,22c0,.42.24.32.48.25a2.69,2.69,0,0,0-.76,2c0,.15,0,.28-.19.33,0-.26,0-.51,0-.77s-.19-.33-.43-.2c-.2-.28.07-.42.2-.58C136.86,22.64,136.93,22.19,137.3,22Z"/><path class="cls-3" d="M86.73,15.09a8.32,8.32,0,0,1-1.85,1.68c-.55.49-1.15.92-1.74,1.37a.79.79,0,0,1-.28.08A5.2,5.2,0,0,1,84.19,17c.73-.62,1.47-1.21,2.22-1.81A1.27,1.27,0,0,1,86.73,15.09Z"/><path class="cls-3" d="M89.07,12.24a.57.57,0,0,1-.2.39A17.16,17.16,0,0,1,87.25,14c-.1.08-.21.13-.33,0s-.06-.19,0-.26a16.33,16.33,0,0,1,1.73-1.65C88.86,12,89.05,11.93,89.07,12.24Z"/><path class="cls-3" d="M141.06,45.2c1.59.26,2.39-.66,2-2.24-.06-.21-.13-.42-.19-.63.82.84.65,1.65.1,2.58a1.42,1.42,0,0,1-1.69.49A.23.23,0,0,1,141.06,45.2Z"/><path class="cls-3" d="M159.89,44.79c0-.18,0-.45.4-.45a.47.47,0,0,1,.51.52c0,.34-.22.44-.5.46S159.88,45.16,159.89,44.79Z"/><path class="cls-3" d="M184.49,27a.83.83,0,0,1-.9.7,4.85,4.85,0,0,0-2.48.63,3.25,3.25,0,0,1,2.21-1A3.52,3.52,0,0,0,184.49,27Z"/><path class="cls-3" d="M64.55,44.14c.14-.16.28-.33.43-.48s.29-.37.49-.23-.22.27-.14.47c-.35.47-.12.7.34.84,0,.18.37.23.17.43a.52.52,0,0,1-.57,0c-.32-.15-.47-.48-.71-.7Z"/><path class="cls-3" d="M146.8,29.25a1.27,1.27,0,0,1,.51-.58,8,8,0,0,0,1.88-2.05,1.52,1.52,0,0,1,.21-.2,1.34,1.34,0,0,1-.46.93A5.7,5.7,0,0,1,146.8,29.25Z"/><path class="cls-3" d="M129.37,33.74c.66-.43,1.57-.36,2.1-1.06.06-.08.14-.14.2-.22s.21-.51.5-.44.39.37.45.65c-.37-.36-.6-.37-1,.1A2.86,2.86,0,0,1,129.37,33.74Z"/><path class="cls-3" d="M181,28.4a21.8,21.8,0,0,1-2.14,2.26A5.29,5.29,0,0,1,181,28.4Z"/><path class="cls-3" d="M151.26,24.18a2.56,2.56,0,0,1,1.79-.64,2.78,2.78,0,0,0,1.28-.13.24.24,0,0,1-.24.33A6.18,6.18,0,0,0,151.26,24.18Z"/><path class="cls-3" d="M56.39,16.66c-.19.45-.64.57-1,.78l-2,1c.07-.27.32-.34.52-.46Z"/><path class="cls-3" d="M42.1,2.41c-.21.42-.65.56-1,.8a7.48,7.48,0,0,1-1.77,1.08A13,13,0,0,1,42.1,2.41Z"/><path class="cls-3" d="M49.34,41.51a.42.42,0,0,1-.37-.44c0-.22,0-.4.3-.41s.51,0,.52.35S49.61,41.43,49.34,41.51Z"/><path class="cls-3" d="M133.35,29.47c-.1-.21.18-.87-.47-.39-.23-.42.18-.43.37-.55s.34-.22.47,0,0,.38-.06.56S133.54,29.39,133.35,29.47Z"/><path class="cls-3" d="M157.4,20.27c0-.27.3-.36.35-.59s.2-.32,0-.49-.29,0-.43,0a.42.42,0,0,1,.56-.43c.34.08.19.4.16.59A1,1,0,0,1,157.4,20.27Z"/><path class="cls-3" d="M37.28,5.66a6.71,6.71,0,0,1-2.07,1.39A6,6,0,0,1,37.28,5.66Z"/><path class="cls-3" d="M147.54,13.19c0-.24.31-.37.19-.64-.22-.08-.3.18-.48.18,0-.28.09-.51.39-.57a.27.27,0,0,1,.33.25C148,12.78,148,13.08,147.54,13.19Z"/><path class="cls-3" d="M53.26,18.58a11.83,11.83,0,0,1-1.46,1.56A3,3,0,0,1,53.26,18.58Z"/><path class="cls-3" d="M144.55,30.13c0,.18-.3.25-.17.44s.24,0,.37,0c0,.25-.17.33-.4.33s-.44-.09-.48-.34.17-.27.34-.32S144.43,30.07,144.55,30.13Z"/><path class="cls-3" d="M39.09,4.44a4.45,4.45,0,0,1-1.7,1.16A4.57,4.57,0,0,1,39.09,4.44Z"/><path class="cls-3" d="M99.68,14.23a1.76,1.76,0,0,1-1.17,1.19A3.77,3.77,0,0,1,99.68,14.23Z"/><path class="cls-3" d="M178.84,30.75a3.32,3.32,0,0,1-1,1.46A3.2,3.2,0,0,1,178.84,30.75Z"/><path class="cls-3" d="M150.06,25.44a2.13,2.13,0,0,1,1.08-1.19A3.62,3.62,0,0,1,150.06,25.44Z"/><path class="cls-3" d="M176.57,34.77a3.7,3.7,0,0,1,1.14-1.13A2.12,2.12,0,0,1,176.57,34.77Z"/><path class="cls-3" d="M62.9,31.71a1.92,1.92,0,0,1-1.33.84A4,4,0,0,1,62.9,31.71Z"/><path class="cls-3" d="M50.49,41.46a4.26,4.26,0,0,0,0,1.37C50.12,42.37,50,41.91,50.49,41.46Z"/><path class="cls-3" d="M134.92,30.86c-.44.44-.85.25-1.24-.08Z"/><path class="cls-3" d="M76,13.75a1.24,1.24,0,0,1-1,1A2.35,2.35,0,0,1,76,13.75Z"/><path class="cls-3" d="M140.28,43.25a6.06,6.06,0,0,0,.17,1.34A1,1,0,0,1,140.28,43.25Z"/><path class="cls-3" d="M116.78,31.35a2.1,2.1,0,0,1,.52,1.14C117,32.18,116.68,31.86,116.78,31.35Z"/><path class="cls-3" d="M50.51,44.49a2.64,2.64,0,0,0,.72.82C50.67,45.32,50.47,45,50.51,44.49Z"/><path class="cls-3" d="M43.18,1.68a1.54,1.54,0,0,1-1,.67A1.49,1.49,0,0,1,43.18,1.68Z"/><path class="cls-3" d="M33.17,8.37a2,2,0,0,1-1.09.72A1.87,1.87,0,0,1,33.17,8.37Z"/><path class="cls-3" d="M109.25,43.65l.26,1A.68.68,0,0,1,109.25,43.65Z"/><path class="cls-3" d="M34.75,7.34a1.27,1.27,0,0,1-.86.56A1.24,1.24,0,0,1,34.75,7.34Z"/><path class="cls-3" d="M134.07,33.26l.78-.47A.57.57,0,0,1,134.07,33.26Z"/><path class="cls-3" d="M136.12,24.54l-.22.8A.53.53,0,0,1,136.12,24.54Z"/><path class="cls-3" d="M128.91,33.36c-.05.2.11.27.21.38-.18.2-.32.09-.4-.08S128.65,33.34,128.91,33.36Z"/><path class="cls-3" d="M144.88,30.45a1.16,1.16,0,0,1,.72-.41A.71.71,0,0,1,144.88,30.45Z"/><path class="cls-3" d="M110.58,45.34a.57.57,0,0,1,.73,0A.66.66,0,0,1,110.58,45.34Z"/><path class="cls-3" d="M30.18,10.24a.64.64,0,0,1-.64.41A.89.89,0,0,1,30.18,10.24Z"/><path class="cls-3" d="M87.92,14.11c0,.41-.24.54-.61.51A1.2,1.2,0,0,1,87.92,14.11Z"/><path class="cls-3" d="M139.83,20.49c.17-.19.3-.41.58-.45A.52.52,0,0,1,139.83,20.49Z"/><path class="cls-3" d="M98,15.81c0,.31-.16.5-.5.47A.65.65,0,0,1,98,15.81Z"/><path class="cls-3" d="M133.33,30.42a.44.44,0,0,1,0-.61A.51.51,0,0,1,133.33,30.42Z"/><path class="cls-3" d="M155.6,21.59a.62.62,0,0,1,.42-.47C156,21.42,155.85,21.53,155.6,21.59Z"/><path class="cls-3" d="M156.94,20.64l.41-.24C157.35,20.72,157.22,20.81,156.94,20.64Z"/><path class="cls-3" d="M33.67,8c-.08.25-.28.3-.5.32A.51.51,0,0,1,33.67,8Z"/><path class="cls-3" d="M157.19,19.39a.5.5,0,0,1-.51.29A.51.51,0,0,1,157.19,19.39Z"/><path class="cls-3" d="M27.49,45.36a.91.91,0,0,1,.52,0C27.84,45.57,27.67,45.55,27.49,45.36Z"/><path class="cls-3" d="M135.49,31.94a.64.64,0,0,1,.28-.46A.34.34,0,0,1,135.49,31.94Z"/><path class="cls-3" d="M156.19,20.93a.51.51,0,0,1,.53-.26A.49.49,0,0,1,156.19,20.93Z"/><path class="cls-3" d="M31.14,9.64a.57.57,0,0,1-.49.31A.44.44,0,0,1,31.14,9.64Z"/><path class="cls-3" d="M123.44,23.52a.46.46,0,0,1-.36.49A.56.56,0,0,1,123.44,23.52Z"/><path class="cls-3" d="M77.29,12.54a.38.38,0,0,1-.47.38A.47.47,0,0,1,77.29,12.54Z"/><path class="cls-3" d="M43.67,1.33a.36.36,0,0,1-.39.3C43.34,1.45,43.44,1.31,43.67,1.33Z"/><path class="cls-3" d="M154.4,23.29a.38.38,0,0,1,.29-.36C154.74,23.17,154.6,23.25,154.4,23.29Z"/><path class="cls-3" d="M147.06,13.9a.37.37,0,0,1,.29-.37C147.4,13.77,147.24,13.85,147.06,13.9Z"/><path class="cls-3" d="M140.47,44.6a.36.36,0,0,1,.34.37A.35.35,0,0,1,140.47,44.6Z"/><path class="cls-3" d="M133,33.16c.12,0,.24,0,.31.12C133.16,33.42,133,33.42,133,33.16Z"/><path class="cls-3" d="M123,24.14a.34.34,0,0,1-.25.37C122.75,24.34,122.79,24.19,123,24.14Z"/><path class="cls-3" d="M87.07,14.84c0,.29-.16.27-.34.25A.4.4,0,0,1,87.07,14.84Z"/><path class="cls-3" d="M63.86,30.39a.34.34,0,0,1-.23.38C63.64,30.6,63.66,30.44,63.86,30.39Z"/><path class="cls-3" d="M139.47,20.76a.38.38,0,0,1,.32-.25C139.8,20.74,139.64,20.75,139.47,20.76Z"/><path class="cls-3" d="M175.82,34.6a.33.33,0,0,1-.34.27C175.52,34.68,175.65,34.62,175.82,34.6Z"/><path class="cls-3" d="M177.28,33.05a.32.32,0,0,1-.26.35C177,33.24,177.1,33.1,177.28,33.05Z"/><path class="cls-3" d="M63.5,31a.31.31,0,0,1-.25.36A.37.37,0,0,1,63.5,31Z"/><path class="cls-3" d="M64.1,30a.31.31,0,0,1-.24.37A.35.35,0,0,1,64.1,30Z"/><path class="cls-3" d="M142.6,17.27a.35.35,0,0,1-.32.27C142.28,17.33,142.45,17.3,142.6,17.27Z"/><path class="cls-3" d="M177.63,32.56a.32.32,0,0,1-.26.36C177.41,32.76,177.45,32.61,177.63,32.56Z"/><path class="cls-3" d="M177.88,32.21a.34.34,0,0,1-.25.36C177.64,32.4,177.69,32.26,177.88,32.21Z"/><path class="cls-3" d="M132.63,29.82a.23.23,0,0,1-.14.24C132.41,29.91,132.49,29.85,132.63,29.82Z"/><path class="cls-3" d="M141.42,18.2a.23.23,0,0,1-.23.18C141.2,18.24,141.27,18.16,141.42,18.2Z"/><path class="cls-3" d="M142.23,18.63a.23.23,0,0,1,.22-.16C142.45,18.63,142.39,18.7,142.23,18.63Z"/><path class="cls-3" d="M141,19.59a.23.23,0,0,1,.21-.16C141.24,19.59,141.18,19.66,141,19.59Z"/><path class="cls-3" d="M156.47,19.77a.24.24,0,0,1-.25.17C156.25,19.8,156.31,19.71,156.47,19.77Z"/><path class="cls-3" d="M155,22.45a.23.23,0,0,1,.18-.25C155.22,22.35,155.15,22.43,155,22.45Z"/><path class="cls-3" d="M50.49,43.86v.3C50.33,44.06,50.33,44,50.49,43.86Z"/><path class="cls-3" d="M140.54,20a.22.22,0,0,1,.21-.16C140.76,19.95,140.71,20,140.54,20Z"/><path class="cls-3" d="M149.58,26.16a.24.24,0,0,1,.17-.23C149.8,26.09,149.73,26.15,149.58,26.16Z"/><path class="cls-3" d="M149.82,25.81a.24.24,0,0,1,.16-.24C150.05,25.74,150,25.79,149.82,25.81Z"/><path class="cls-3" d="M129.62,32.91a.23.23,0,0,1-.23.16C129.4,32.92,129.46,32.83,129.62,32.91Z"/><path class="cls-3" d="M142.83,18.16a.22.22,0,0,1,.22-.17C143.06,18.16,143,18.23,142.83,18.16Z"/><path class="cls-3" d="M136.33,23.88a.23.23,0,0,1-.07.26C136.11,24,136.23,23.94,136.33,23.88Z"/><path class="cls-3" d="M35.12,7.11a.23.23,0,0,1-.26.18C34.89,7.15,35,7.08,35.12,7.11Z"/><path class="cls-3" d="M135.85,29.54a.24.24,0,0,1-.1.28C135.64,29.67,135.74,29.6,135.85,29.54Z"/><path class="cls-3" d="M154.76,22.8a.23.23,0,0,1,.18-.24C155,22.72,154.9,22.79,154.76,22.8Z"/><path class="cls-3" d="M100.09,13.77c0,.18-.06.26-.24.24A.36.36,0,0,1,100.09,13.77Z"/><path class="cls-3" d="M90,12.09c0,.11,0,.21-.14.21A.21.21,0,0,1,90,12.09Z"/><path class="cls-3" d="M77.45,12.33c0,.11,0,.21-.14.2A.21.21,0,0,1,77.45,12.33Z"/><path class="cls-3" d="M99.85,14c0,.11,0,.21-.15.2A.2.2,0,0,1,99.85,14Z"/><path class="cls-3" d="M96.57,17.12c0,.15-.1.16-.21.14A.22.22,0,0,1,96.57,17.12Z"/><path class="cls-3" d="M88.38,13.74c0,.16-.11.16-.23.15A.24.24,0,0,1,88.38,13.74Z"/><path class="cls-3" d="M100.21,13.65l-.11.13Z"/><path class="cls-3" d="M98.25,15.68c0,.1,0,.12-.13.1Z"/><path class="cls-3" d="M88.5,13.64c0,.08,0,.12-.1.1Z"/><path class="cls-3" d="M100.32,13.53a.11.11,0,0,1-.11.12Z"/><path class="cls-3" d="M88.74,13.4q0,.12-.1.11Z"/><path class="cls-3" d="M88.87,13.28c0,.08,0,.12-.11.11Z"/><path class="cls-3" d="M96.81,16.89c0,.08,0,.11-.11.1Z"/><path class="cls-3" d="M89,13.16c0,.08,0,.12-.11.11Z"/><path class="cls-3" d="M89.79,13.22a.1.1,0,0,1,.12-.12Z"/><path class="cls-3" d="M96.68,17q0,.12-.1.1Z"/><path class="cls-3" d="M89.11,13q0,.12-.11.11Z"/><path class="cls-3" d="M88.62,13.52q0,.12-.1.11Z"/><path class="cls-3" d="M89.46,12.67q0,.12-.1.1Z"/><path class="cls-3" d="M53.39,18.47l-.13.11Z"/><path class="cls-3" d="M44,1.14l-.16.11Z"/><path class="cls-3" d="M89.58,12.55q0,.12-.1.1Z"/><path class="cls-3" d="M93,27.24l.11-.13,0,0-.11.12Z"/><path class="cls-3" d="M69,19.67l-.11.13Z"/><path class="cls-3" d="M57.36,15.7l-.12.12Z"/><path class="cls-3" d="M89.34,12.8q0,.12-.1.1Z"/><path class="cls-3" d="M89.7,12.43q0,.12-.1.1Z"/><path class="cls-3" d="M89.82,12.31c0,.08,0,.12-.1.1Z"/><path class="cls-3" d="M123.09,24l-.11.13Z"/><path class="cls-3" d="M77.56,12.2a.11.11,0,0,1-.11.13Z"/><path class="cls-3" d="M123.56,23.4l-.12.13Z"/><path class="cls-3" d="M89.22,12.92c0,.08,0,.12-.1.11Z"/><path class="cls-3" d="M123.68,23.28a.12.12,0,0,1-.12.12Z"/><path class="cls-3" d="M123.79,23.13a.13.13,0,0,1-.11.15Z"/><path class="cls-3" d="M90.09,12a.11.11,0,0,1-.11.12Z"/><path class="cls-3" d="M98.37,15.56c0,.08,0,.12-.1.1Z"/><path class="cls-3" d="M90.21,11.84a.1.1,0,0,1-.12.12Z"/><path class="cls-3" d="M124.05,22.81l-.12.13Z"/><path class="cls-3" d="M90.32,11.72a.1.1,0,0,1-.11.12Z"/><path class="cls-3" d="M175.48,34.87l-.15.1Z"/><path class="cls-3" d="M63.6,30.84a.14.14,0,0,1-.1.16Z"/><path class="cls-3" d="M98.49,15.44c0,.08,0,.12-.1.1Z"/><path class="cls-3" d="M124.17,22.68l-.12.12Z"/><path class="cls-3" d="M175.95,34.48l-.13.12Z"/><path class="cls-3" d="M124.66,22.19l-.12.14Z"/><path class="cls-3" d="M74.7,15a.14.14,0,0,1-.17.11Z"/><path class="cls-3" d="M177,33.4l-.12.13Z"/><path class="cls-3" d="M30.52,10a.15.15,0,0,1-.16.11Z"/><path class="cls-3" d="M123,29.91l-.12.13Z"/><path class="cls-3" d="M74.9,14.84c0,.09-.05.12-.14.1Z"/><path class="cls-3" d="M87.21,14.71a.12.12,0,0,1-.12.14Z"/><path class="cls-3" d="M75,14.72c0,.08,0,.12-.11.1Z"/><path class="cls-3" d="M31.48,9.44l-.15.12Z"/><path class="cls-3" d="M31.85,9.22l-.16.1Z"/><path class="cls-3" d="M146.47,14.66l.13-.14Z"/><path class="cls-3" d="M57.24,15.82l-.12.12Z"/><path class="cls-3" d="M57.12,15.94l-.13.13Z"/><path class="cls-3" d="M32.09,9.09l-.16.11Z"/><path class="cls-3" d="M124.41,22.44l-.12.12Z"/><path class="cls-3" d="M74.1,15.45l-.14.12Z"/><path class="cls-3" d="M124.53,22.32l-.12.12Z"/><path class="cls-3" d="M97.55,16.29c0,.09-.06.12-.15.1Z"/><path class="cls-3" d="M124.3,22.56l-.12.12Z"/><path class="cls-3" d="M56.64,16.42l-.13.13Z"/><path class="cls-3" d="M97.33,16.41a.15.15,0,0,1-.15.13Z"/><path class="cls-3" d="M117.32,32.57l.12.15Z"/><path class="cls-3" d="M56.52,16.55l-.13.12Z"/><path class="cls-3" d="M97.09,16.65a.13.13,0,0,1-.13.13Z"/><path class="cls-3" d="M63,31.59l-.12.12Z"/><path class="cls-3" d="M63.14,31.47,63,31.6Z"/><path class="cls-3" d="M63.26,31.35l-.12.13Z"/><path class="cls-3" d="M97,16.78a.1.1,0,0,1-.13.1Z"/><path class="cls-3" d="M74.31,15.3a.12.12,0,0,1-.15.13Z"/><path class="cls-3" d="M114.37,44.23a.66.66,0,0,0-.59-.32c-.59.08-.86-.25-1-.72A1.16,1.16,0,0,1,114,41.86c.21,0,.5,0,.51.26s-.31.13-.45.23c-.73,0-.85.09-.71.73a.31.31,0,0,0,.41.18l.33.06a.6.6,0,0,0,.44.23l.26.26c.13.43.23.85-.19,1.2a1.83,1.83,0,0,1-1.5.18c-.35,0-.16-.32-.09-.52l.19,0c.28.18.55.5.88.07l.24-.14c.1,0,.19,0,.21-.14A.2.2,0,0,0,114.37,44.23Z"/><path class="cls-3" d="M122.26,43.56a3.84,3.84,0,0,0,.05,1.07c.05.2,0,.45-.25.44s-.29-.24-.25-.45a3.5,3.5,0,0,0-.05-1.83c-.09-.27-.22-.52-.55-.57-.11,0-.27,0-.21-.2s.17-.15.3-.16a1.13,1.13,0,0,1,1,1C122.27,43.08,122.26,43.32,122.26,43.56Z"/><path class="cls-3" d="M119.75,44.74a5.9,5.9,0,0,0,0-2.09c0-.11,0-.26.11-.3a.58.58,0,0,1,.47,0,.21.21,0,0,1,.08.31,3.83,3.83,0,0,0-.11,1.94c0,.21,0,.51-.24.54S119.8,44.88,119.75,44.74Z"/><path class="cls-3" d="M117.71,44.67a12.8,12.8,0,0,0,.08-2,.52.52,0,0,1,.27-.49.21.21,0,0,1,.27.06c.16.19.07.37,0,.56a3.6,3.6,0,0,0-.09,1.83c0,.21,0,.45-.23.47S117.76,44.81,117.71,44.67Z"/><path class="cls-3" d="M124.5,45.24c-.4.11-.74-.19-1-.56-.06-.07-.14-.17,0-.26s.19,0,.26,0a1.19,1.19,0,0,0,1.51.3c.13-.07.29-.08.33.12a.24.24,0,0,1-.21.31C125.08,45.23,124.86,45.23,124.5,45.24Z"/><path class="cls-3" d="M125.21,42.79l-.08-.21c.21-.14.43-.2.49.12s.16.62-.17.81-.3-.09-.35-.26l.1-.18C125.38,43,125.39,42.89,125.21,42.79Z"/><path class="cls-3" d="M127.18,42.47a.41.41,0,0,1-.3.33.2.2,0,0,1-.25-.19c0-.2.1-.3.28-.31S127.15,42.3,127.18,42.47Z"/><path class="cls-3" d="M119.23,41.88a.38.38,0,0,1,.35.27c0,.13-.07.18-.18.16s-.34,0-.37-.24S119.12,41.9,119.23,41.88Z"/><path class="cls-3" d="M82.65,35a5.81,5.81,0,0,1,.83-3.24c.09-.2.16-.41.23-.62s.07-.37.29-.29.14.32.07.42a11.25,11.25,0,0,0-.7,1.64,2.34,2.34,0,0,0,2,3.53A3.82,3.82,0,0,0,88.68,35a2.56,2.56,0,0,0,.49-.81.87.87,0,0,0-.44-1.2,5,5,0,0,1-.62-.46.6.6,0,0,1-.26-.68,15.77,15.77,0,0,1,.64-1.53c.08-.17.35-.27.39,0s.35.47.56.66a1.53,1.53,0,0,1,.47,1.73,12.66,12.66,0,0,1-.73,2.4A6.79,6.79,0,0,1,86.65,38a3.51,3.51,0,0,1-3.52-.4,2.39,2.39,0,0,1-.49-1.8C82.65,35.56,82.65,35.34,82.65,35Z"/><path class="cls-3" d="M93,27.29l.11-.12c.18-.13.35-.31.58-.29.84.05,1.16-.61,1.55-1.13a1,1,0,0,1,.93-.51c.08,0,.17,0,.24,0s.44-.48.53,0-.14.86-.58.82a1.67,1.67,0,0,0-1.81,1.23c-.08.19-.23.37-.45.35-1-.09-1.41.62-1.89,1.25a5.51,5.51,0,0,1-.59.68,1,1,0,0,1-1.58,0,1.65,1.65,0,0,0-.41-.35.51.51,0,0,1-.29-.81,1.81,1.81,0,0,0,.14-1,10,10,0,0,1,.4-2.83.31.31,0,0,1,.27-.27,4.93,4.93,0,0,1-.12,2,2,2,0,0,0,1.34,2C91.8,28.42,92.71,27.85,93,27.29Z"/><path class="cls-3" d="M84.26,30.34c-.06-.24,0-.41.16-.49,0,0,.12,0,.13.08C84.59,30.14,84.48,30.26,84.26,30.34Z"/><path class="cls-3" d="M88.93,29.79c0-.06-.1-.1-.11-.14s0-.13.06-.15.14,0,.14.12S89,29.71,88.93,29.79Z"/><path class="cls-3" d="M8.78,18.42c-.49.92-1.14,1.28-1.86,1.16-.42-.07-.71-.49-.8-1.24C6.95,19.27,7.8,19,8.78,18.42Z"/><path class="cls-3" d="M10.83,16.7c.39.4.93.33,1.4.49a.14.14,0,0,1,.09.19,1.38,1.38,0,0,1-.8.48c-.36.13-.53-.2-.73-.41a.67.67,0,0,1-.09-.63S10.77,16.75,10.83,16.7Z"/><path class="cls-3" d="M10,14.12c.25,0,.26.2.28.37s0,.48-.36.5-.45,0-.43-.26A.71.71,0,0,1,10,14.12Z"/><path class="cls-3" d="M54.38,42.53c-.12-.54-.51-.3-.82-.29s-.41.16-.47-.07.23-.28.41-.31A1.19,1.19,0,0,1,55,43.39a3.74,3.74,0,0,0,.11,1.07c.06.5-.11.77-.65.73a1.53,1.53,0,0,0-.59.06,1,1,0,0,1-1.18-.48.91.91,0,0,1,.09-1.11c.07-.09.18-.17.17-.3a1,1,0,0,1,.69-.14v.52c-.29.12-.69.19-.64.59s.44.51.82.53.57-.31.78-.57a.25.25,0,0,0,.08-.4,2.52,2.52,0,0,1-.23-.89Z"/><path class="cls-3" d="M49.55,43.84c0,.3,0,.6,0,.9s-.05.34-.26.33a.25.25,0,0,1-.2-.32,6.56,6.56,0,0,0,0-2.15c0-.12,0-.26.17-.27s.17.13.21.25A5.47,5.47,0,0,1,49.55,43.84Z"/><path class="cls-3" d="M44.86,45.23a1.31,1.31,0,0,1-1.2-.52c-.11-.12-.24-.28-.07-.41s.25.05.33.16a1.07,1.07,0,0,0,1.43.36c.15-.06.33-.14.37.12s-.11.28-.29.29Z"/><path class="cls-3" d="M47.16,42.91c-.21,0-.26-.16-.26-.34s.18-.28.37-.27.36,0,.34.22S47.36,42.83,47.16,42.91Z"/><path class="cls-3" d="M72.23,43c0,.25-.05.51-.07.76A.89.89,0,0,0,73,44.79c.32.3.49.15.61-.19h0c.25.09.36-.37.63-.15a.33.33,0,0,1,.09.39c-.13.31-.42.24-.67.28s-.43.1-.64.13a1.2,1.2,0,0,1-1.34-1.12,1.89,1.89,0,0,1,.71-2c.19-.13.35-.28.61-.11C72.84,42.42,72.19,42.42,72.23,43Z"/><path class="cls-3" d="M69.18,42.35c-.77.58-.5,1.38-.51,2.13,0,.21.14.57-.21.58s-.23-.34-.23-.55c0-.54,0-1.08,0-1.61C68.23,42,68.24,42,69.18,42.35Z"/><path class="cls-3" d="M70.69,43.22c-.35-.55-.62-1-1.21-1-.09,0-.16-.09-.11-.16a.43.43,0,0,1,.24-.16C70.26,41.7,70.79,42.29,70.69,43.22Z"/><path class="cls-3" d="M23.07,42.94c0-.58,0-1.16,0-1.74,0-.16,0-.36.23-.36s.22.2.22.36q0,1.77,0,3.55c0,.16,0,.37-.2.39s-.25-.21-.25-.39c0-.6,0-1.2,0-1.8Z"/><path class="cls-3" d="M4.41,43.77a10.18,10.18,0,0,1,.09-1.36c0-.12,0-.26.16-.29s.32.13.47.22a.19.19,0,0,1,.06.3c-.57.55-.22,1.25-.3,1.87,0,.21.13.56-.23.56s-.24-.35-.25-.58S4.41,44.09,4.41,43.77Z"/><path class="cls-3" d="M7,44.39l.16.22c.09.37.54.2.69.46a.92.92,0,0,1-1.32-.48,1,1,0,0,1,.56-1.15c.37-.14.32.14.34.35-.16.08-.33.14-.41.32S6.83,44.29,7,44.39Z"/><path class="cls-3" d="M6.06,42.25a.49.49,0,0,1-.14,0s0-.06,0-.09l.13,0A.57.57,0,0,1,6.06,42.25Z"/><path class="cls-3" d="M94.8,41.87c.38.17.76.34,1.14.52a.18.18,0,0,1,.05.26c-.55.48-.2,1.08-.24,1.63,0,.25.17.72-.18.7s-.16-.47-.15-.74a8.15,8.15,0,0,0,0-1c0-.45-.18-.87-.7-1-.11,0-.27,0-.22-.21S94.67,41.86,94.8,41.87Z"/><path class="cls-3" d="M93.68,44.46c0,.12.21.6-.22.57s-.1-.44-.11-.69c0-.47-.06-.95-.07-1.42a1.62,1.62,0,0,1,.11-.58c.09-.22.29-.16.46-.12s.26.15.16.31-.45.47-.4.83A3.57,3.57,0,0,1,93.68,44.46Z"/><path class="cls-3" d="M42.47,42a8.2,8.2,0,0,0,0,2.71c0,.16.05.41-.19.43s-.33-.21-.3-.42A2.54,2.54,0,0,0,41.83,43a.58.58,0,0,1,.05-.4A1.75,1.75,0,0,0,42,41.42c-.05-.18,0-.39.22-.41s.24.2.25.38S42.47,41.71,42.47,42Z"/><path class="cls-3" d="M39.2,44.14a13,13,0,0,0,0-2.68c0-.17,0-.42.22-.4s.13.25.14.4c0,.43-.12.88.29,1.23a.21.21,0,0,1,0,.32c-.46.4-.28.92-.3,1.4,0,.22.14.6-.15.6s-.18-.4-.21-.64A2.39,2.39,0,0,1,39.2,44.14Z"/><path class="cls-3" d="M184.76,20.76a3,3,0,0,1-.57,1.1.36.36,0,0,1-.58,0c-.24-.28-.74-.45-.53-1a10.65,10.65,0,0,1,.62-1.15c.06-.11.17-.21.29-.12A1.58,1.58,0,0,1,184.76,20.76Z"/><path class="cls-3" d="M185.84,23.37a1.87,1.87,0,0,1-.58,1.2c-.13.17-.4.08-.59-.07-.59-.45-.62-.62-.15-1.17a.54.54,0,0,0,.11-.39.51.51,0,0,1,.35-.57c.26-.08.38.16.54.31A.93.93,0,0,1,185.84,23.37Z"/><path class="cls-3" d="M183.31,23.62c0,.18,0,.28,0,.38,0,.29,0,.58-.31.71s-.53-.06-.75-.23a.62.62,0,0,1-.21-.8c.14-.31.3-.61.45-.91s.16-.33.39-.31.29.18.37.35A2.28,2.28,0,0,1,183.31,23.62Z"/><path class="cls-3" d="M68,13.48a2.91,2.91,0,0,1-.76,1.19c-.35.25-.52-.18-.76-.31a.52.52,0,0,1-.25-.71c.17-.36.35-.71.53-1.07s.36-.33.55-.17A1.72,1.72,0,0,1,68,13.48Z"/><path class="cls-3" d="M69.05,16.15a2.21,2.21,0,0,1-.69,1.28.18.18,0,0,1-.27,0c-.21-.19-.41-.38-.6-.59s-.06-.49.15-.69.07-.22.08-.34c0-.29.06-.58.37-.69s.53.2.73.41A.81.81,0,0,1,69.05,16.15Z"/><path class="cls-3" d="M66.65,16c-.09.41-.17.86-.29,1.3,0,.18-.23.2-.4.19a.94.94,0,0,1-.72-.57,2.26,2.26,0,0,1,.62-1.69C66.2,15.11,66.63,15.51,66.65,16Z"/><path class="cls-3" d="M147.92,43.05l0,1.52c.23.53-.24,1-.18,1.48,0,.08-.09.14-.17.11a.26.26,0,0,1-.19-.28c0-.32.08-.63.09-1,0-.76,0-1.52,0-2.28,0-.17,0-.38.18-.46a.29.29,0,0,1,.22.05c.2.14.1.31,0,.48S147.79,42.94,147.92,43.05Z"/><path class="cls-3" d="M103.28,42.21c.23,0,.49.23.26.42-.57.46-.29,1-.3,1.54,0,.16,0,.32,0,.48s0,.31-.19.31-.18-.14-.18-.27c0-.7,0-1.4,0-2.1A.34.34,0,0,1,103.28,42.21Z"/><path class="cls-3" d="M104.11,42.07c.82-.21,1.12.05,1.12.87A4.45,4.45,0,0,0,104.11,42.07Z"/><path class="cls-3" d="M54.69,30.73c.22-1.54,1.65-2,2.57-2.93A1.6,1.6,0,0,1,56.8,29a3.56,3.56,0,0,1-1.19.78C55.22,30,55.08,30.5,54.69,30.73Z"/><path class="cls-3" d="M54.48,31A2.85,2.85,0,0,1,52,33.65c-.13,0-.31.07-.38-.07s.07-.25.2-.3A5.24,5.24,0,0,0,54.48,31Z"/><path class="cls-3" d="M89.15,43.72c0-.36,0-.72,0-1.07,0-.13,0-.31.19-.3s.15.16.15.28c0,.69,0,1.39,0,2.08,0,.15,0,.37-.21.35s-.17-.23-.17-.39c0-.32,0-.64,0-1Z"/><path class="cls-3" d="M19.94,43.45c0,.2,0,.4,0,.6,0,.4.08.71.53.81.13,0,.37.09.26.3s-.3.13-.44.06a1.15,1.15,0,0,1-.72-.9c-.06-.63,0-1.28,0-1.92,0-.11,0-.26.16-.27s.21.13.21.24c0,.36,0,.72,0,1.08Z"/><path class="cls-3" d="M130.89,45.24c-.24,0-.45-.07-.46-.37a.15.15,0,0,1,.21-.15c.23.06.53.1.6.33S131,45.21,130.89,45.24Z"/><path class="cls-3" d="M51.45,26.81c-.1.56-.16,1-.26,1.5a16.75,16.75,0,0,0-.32,2.3,5.22,5.22,0,0,1-.64,1.79c-.05.11-.13.2-.18.31s0,.5-.3.38,0-.32.06-.47a12.27,12.27,0,0,0,.67-3.26,12.43,12.43,0,0,1,.65-2.47c0-.09.09-.18.21-.17S51.45,26.83,51.45,26.81Z"/><path class="cls-3" d="M35,30.28a15.34,15.34,0,0,0,2.46-.08.29.29,0,0,1,.37.29.32.32,0,0,1-.37.36c-1.66-.16-3.32,0-5-.07-.17,0-.4,0-.41-.23s.23-.27.42-.27Z"/><path class="cls-3" d="M30.89,42.23a1.17,1.17,0,0,0,.53-.08c.12-.05.28-.25.39,0s-.1.24-.23.3c-1.1.46-1,.58-.9,2,0,.08,0,.15.05.23s0,.34-.23.36-.28-.18-.26-.33a12.66,12.66,0,0,0,.05-2.15C30.3,42.1,30.63,42.24,30.89,42.23Z"/><path class="cls-3" d="M129.59,26.55c-.56,2.17-.14,4.58-1.67,6.53C128.69,31,128.34,28.57,129.59,26.55Z"/><path class="cls-3" d="M102.41,33.34a3.37,3.37,0,0,1,.29-1.13,15.61,15.61,0,0,0,.66-3.63,7.66,7.66,0,0,1,.47-1.54c0-.12.07-.26.22-.23s.18.2.15.34c-.07.43-.16.86-.22,1.29A11.37,11.37,0,0,1,102.72,33C102.65,33.13,102.65,33.3,102.41,33.34Z"/><path class="cls-3" d="M2.81,45.22c-.19-.07-.55.14-.55-.23s.3-.46.54-.47.6.17.6.46S3,45.17,2.81,45.22Z"/><path class="cls-3" d="M3.34,41.1a.57.57,0,0,1-.56.37c-.23,0-.55-.18-.51-.41s.43-.14.65-.18S3.3,40.82,3.34,41.1Z"/><path class="cls-3" d="M57.5,36.42a3.33,3.33,0,0,1-.19.71c-.16.32-.31.75-.82.54s-.54-.56-.32-1a1,1,0,0,0,.11-.4c0-.35,0-.74.46-.77s.56.43.75.74C57.51,36.26,57.49,36.33,57.5,36.42Z"/><path class="cls-3" d="M55.21,36.48c-.3.32-.16.82-.39,1.19a.35.35,0,0,1-.56.12c-.29-.26-.77-.45-.57-1s.48-.73.6-1.16c0-.15.19-.2.34-.08A1.94,1.94,0,0,1,55.21,36.48Z"/><path class="cls-3" d="M169.82,27.06a2.33,2.33,0,0,1-.59,1.21.24.24,0,0,1-.37,0c-.23-.21-.46-.44-.67-.68,0,0-.06-.2,0-.22.47-.29.4-.8.56-1.22a.31.31,0,0,1,.49-.15A1.24,1.24,0,0,1,169.82,27.06Z"/><path class="cls-3" d="M167.41,27c-.07.32-.15.73-.23,1.13a.37.37,0,0,1-.48.32,1,1,0,0,1-.64-1.27,4,4,0,0,1,.36-.62c.12-.18.11-.51.45-.46S167.41,26.65,167.41,27Z"/><path class="cls-3" d="M90.56,42.48c.18,0,.14.16.15.27a.56.56,0,0,0,.57.56,2,2,0,0,1,1,.54.54.54,0,0,1,.19.64.35.35,0,0,1-.2.2c-.13,0-.16-.09-.16-.19,0-.58-.37-.71-.87-.74a1,1,0,0,1-.92-.83A.33.33,0,0,1,90.56,42.48Z"/><path class="cls-3" d="M91.23,45.23h-.18c-.19,0-.41.07-.54-.14a.21.21,0,0,1,0-.28c.2-.18.37,0,.54.08a1.16,1.16,0,0,0,.76,0c.11,0,.25-.1.29.08s-.11.22-.23.23-.44,0-.66,0Z"/><path class="cls-3" d="M90.91,42.21a.8.8,0,0,1,.69-.35c.26,0,.64,0,.61.31s-.34,0-.53,0S91.25,42.21,90.91,42.21Z"/><path class="cls-3" d="M140.81,35.35a3.23,3.23,0,0,1-.54,1.07.31.31,0,0,1-.32.11,1.12,1.12,0,0,1-.66-1.41c.1-.2.19-.4.3-.59s.15-.51.45-.49a.71.71,0,0,1,.54.51A7.28,7.28,0,0,1,140.81,35.35Z"/><path class="cls-3" d="M143.1,35.08a2.43,2.43,0,0,1-.59,1.13c-.24.23-.47.05-.69-.1a.74.74,0,0,1-.38-.92c.13-.37.36-.7.48-1.09a.3.3,0,0,1,.49-.15A1.79,1.79,0,0,1,143.1,35.08Z"/><path class="cls-3" d="M110.6,17a1.6,1.6,0,0,1-.62,1.17c-.4.31-.6-.23-.88-.39A.46.46,0,0,1,109,17a1.67,1.67,0,0,0,.42-.82c.06-.39.42-.46.71-.16A1.28,1.28,0,0,1,110.6,17Z"/><path class="cls-3" d="M112.75,16.88a1.24,1.24,0,0,1-.14.64c-.12.32-.27.72-.69.57a.82.82,0,0,1-.58-1,4.55,4.55,0,0,1,.33-1c.23-.49.55-.5.83,0A1.2,1.2,0,0,1,112.75,16.88Z"/><path class="cls-3" d="M146.43,43.62s0,.08,0,.12c0,1.45,0,1.45-1.43,1.57a1,1,0,0,1-1.06-.94c0-.64,0-1.28,0-1.92,0-.15,0-.37.21-.35s.19.23.19.38c0,.48,0,1,0,1.44,0,.68.24.91.89.94s.71-.46.78-.87a9.62,9.62,0,0,0,0-1.32c0-.2-.08-.52.24-.51s.19.3.2.49,0,.64,0,1Z"/><path class="cls-3" d="M138.93,42.9c-.38.36-.1.83-.18,1.24a2.52,2.52,0,0,0,0,.3c0,.22.11.6-.2.59s-.18-.38-.18-.62c0-.56,0-1.12,0-1.68,0-.19-.07-.42.18-.52a.47.47,0,0,1,.45.12c.25.19,0,.35,0,.53A0,0,0,0,1,138.93,42.9Z"/><path class="cls-3" d="M101.39,40.88c.19,0,.44-.1.55.1s-.15.29-.26.41a.65.65,0,0,0-.15.5c0,.74,0,1.48,0,2.22a.89.89,0,0,0,.24.65c.28.31.14.46-.24.46h-.36c-.15,0-.35.06-.42-.14s.11-.28.21-.39a5.21,5.21,0,0,0-.07-3.41c-.08-.09-.22-.17-.12-.29S101.18,40.92,101.39,40.88Z"/><path class="cls-3" d="M36.31,42.79a10.86,10.86,0,0,0,.05,1.85c0,.18,0,.4-.23.41s-.27-.22-.24-.4a29.13,29.13,0,0,0,.06-3.23c0-.19-.06-.47.22-.46s.14.29.14.45C36.31,41.88,36.31,42.34,36.31,42.79Z"/><path class="cls-3" d="M61.48,43.17l.05-.51C61.8,42.86,61.83,43,61.48,43.17Z"/><path class="cls-3" d="M60.74,42.3a.17.17,0,0,1-.27.07C60.53,42.23,60.61,42.16,60.74,42.3Z"/><path class="cls-3" d="M92.3,34.15c0-.21-.09-.58.29-.57s.65.35.65.77,0,.7-.4.68S92.28,34.59,92.3,34.15Z"/><path class="cls-3" d="M51.12,44.36a.83.83,0,0,1,.38.35C51.23,44.75,51.11,44.63,51.12,44.36Z"/><path class="cls-3" d="M133.7,24.23a1.26,1.26,0,0,1,0,.3c-.1.42-.26.87-.67,1s-.59-.38-.88-.6-.22-.38-.08-.48c.45-.33.27-1.1.89-1.26C133.32,23.1,133.71,23.68,133.7,24.23Z"/><path class="cls-3" d="M114.09,44.75c-.33.43-.6.12-.88-.07Z"/><path class="cls-3" d="M114.37,44.23a.2.2,0,0,1,.16.25c0,.11-.11.14-.21.14Z"/><path class="cls-3" d="M114.08,43.32c.26-.13.39,0,.44.23A.6.6,0,0,1,114.08,43.32Z"/><path class="cls-3" d="M113.34,43.08a.41.41,0,0,1,.41.18A.31.31,0,0,1,113.34,43.08Z"/><path class="cls-3" d="M125.21,42.79c.18.11.18.2,0,.28Z"/><path class="cls-3" d="M54.58,44.28c-.1-.56-.46-.69-1-.55v-.52c.27-.09.58,0,.81-.21a2.51,2.51,0,0,0,.23.89A.25.25,0,0,1,54.58,44.28Z"/><path class="cls-3" d="M73.61,44.6c-.12.34-.29.49-.61.19Z"/><path class="cls-3" d="M7,44.39c-.19-.09-.19-.18,0-.27Z"/></g></g></svg>